<svg width="41" height="41" viewBox="0 0 41 41" fill="none" xmlns="http://www.w3.org/2000/svg">
<rect x="0.75" y="0.619141" width="39" height="39" rx="7.5" fill="white" stroke="#C7C7C7"/>
<path d="M28.2512 19.4409H20.9287V12.1184C20.9287 11.744 20.6252 11.4404 20.2507 11.4404C19.8763 11.4404 19.5727 11.744 19.5727 12.1184V19.4409H12.2503C11.8758 19.4409 11.5723 19.7444 11.5723 20.1189C11.5723 20.4934 11.8758 20.7969 12.2503 20.7969H19.5727V28.1194C19.5727 28.4938 19.8763 28.7974 20.2507 28.7974C20.6252 28.7974 20.9287 28.4938 20.9287 28.1194V20.7969H28.2512C28.6257 20.7969 28.9292 20.4934 28.9292 20.1189C28.9292 19.7444 28.6257 19.4409 28.2512 19.4409Z" fill="#4B4B4B"/>
</svg>
