<svg width="41" height="41" viewBox="0 0 41 41" fill="none" xmlns="http://www.w3.org/2000/svg">
<rect x="0.644531" y="0.791992" width="39.2105" height="39" rx="7.5" fill="white" stroke="#C7C7C7"/>
<path d="M23.6836 13.5578C23.8676 13.7417 23.9709 13.9913 23.9709 14.2514C23.9709 14.5116 23.8676 14.7611 23.6836 14.945L18.8272 19.8015L23.6836 24.658C23.8624 24.843 23.9612 25.0909 23.959 25.3481C23.9568 25.6054 23.8536 25.8514 23.6717 26.0333C23.4898 26.2152 23.2437 26.3184 22.9865 26.3207C22.7292 26.3229 22.4814 26.224 22.2964 26.0453L16.7462 20.4952C16.5623 20.3112 16.459 20.0617 16.459 19.8015C16.459 19.5414 16.5623 19.2919 16.7462 19.1079L22.2964 13.5578C22.4803 13.3738 22.7298 13.2705 22.99 13.2705C23.2502 13.2705 23.4997 13.3738 23.6836 13.5578Z" fill="#4B4B4B"/>
</svg>
