<svg width="14" height="9" viewBox="0 0 14 9" fill="none" xmlns="http://www.w3.org/2000/svg">
<path d="M12.9493 8.74958H1.61798C1.37828 8.74958 1.15293 8.65624 0.983477 8.48681C0.81402 8.31735 0.720703 8.09201 0.720703 7.85231V1.21246C0.720703 0.972761 0.81402 0.747416 0.983477 0.577959C1.15293 0.408502 1.37828 0.315186 1.61798 0.315186H12.9493C13.189 0.315186 13.4143 0.408502 13.5838 0.577959C13.7533 0.747416 13.8466 0.972761 13.8466 1.21246V4.38395C13.8466 4.52546 13.7315 4.64031 13.5902 4.64031C13.449 4.64031 13.3338 4.52546 13.3338 4.38395V1.21246C13.3333 1.0007 13.1608 0.828171 12.9493 0.827915H1.61798C1.40648 0.828171 1.23395 1.0007 1.23343 1.21246V7.85231C1.23395 8.06406 1.40648 8.23632 1.61798 8.23685H12.9493C13.1608 8.23632 13.3333 8.06406 13.3338 7.85231V6.69123C13.3338 6.54997 13.449 6.43512 13.5902 6.43512C13.7315 6.43512 13.8466 6.54997 13.8466 6.69123V7.85231C13.8466 8.09201 13.7533 8.31735 13.5838 8.48681C13.4143 8.65624 13.189 8.74958 12.9493 8.74958ZM13.5902 5.79395C13.449 5.79395 13.3338 5.6791 13.3338 5.53759C13.3338 5.39633 13.449 5.28123 13.5902 5.28123C13.7315 5.28123 13.8466 5.39633 13.8466 5.53759C13.8466 5.6791 13.7315 5.79395 13.5902 5.79395Z" fill="#8F8F8F" stroke="#8F8F8F" strokeWidth="0.2"/>
<path d="M11.1294 5.32691C11.064 5.32691 10.9987 5.30207 10.9487 5.25236C10.8483 5.15253 10.8478 4.99022 10.9476 4.88981C11.8041 4.02824 11.8041 2.72886 10.9476 1.86729C10.8478 1.76687 10.8483 1.60454 10.9487 1.50474C11.0491 1.40489 11.2114 1.4054 11.3112 1.50582C11.8222 2.0198 12.1036 2.68489 12.1036 3.37854C12.1036 4.07218 11.8222 4.73727 11.3112 5.25128C11.2611 5.30168 11.1953 5.32691 11.1294 5.32691Z" fill="#8F8F8F" stroke="#8F8F8F" strokeWidth="0.2"/>
<path d="M10.3208 4.65443C10.2559 4.65443 10.191 4.62997 10.1411 4.5809C10.0401 4.48166 10.0387 4.31933 10.138 4.21835C10.6238 3.72398 10.6238 3.03346 10.138 2.53908C10.0387 2.4381 10.0401 2.27577 10.1411 2.17653C10.2421 2.07732 10.4044 2.0787 10.5037 2.17969C10.8321 2.51394 11.013 2.93973 11.013 3.37873C11.013 3.81773 10.8321 4.24352 10.5036 4.57775C10.4535 4.62882 10.3872 4.65443 10.3208 4.65443Z" fill="#8F8F8F" stroke="#8F8F8F" strokeWidth="0.2"/>
<path d="M9.59035 3.87226C9.52403 3.87226 9.45776 3.84668 9.40759 3.79568C9.3083 3.69473 9.30963 3.53242 9.41056 3.43313C9.43781 3.40632 9.4402 3.38865 9.44694 3.37876C9.4402 3.36886 9.43781 3.3512 9.41056 3.32438C9.30963 3.22507 9.3083 3.06276 9.40759 2.96183C9.5069 2.8609 9.66921 2.85957 9.77014 2.95886C9.91176 3.09817 9.9749 3.22768 9.9749 3.37876C9.9749 3.52983 9.91176 3.65935 9.77014 3.79866C9.7202 3.84775 9.65526 3.87226 9.59035 3.87226Z" fill="#8F8F8F" stroke="#8F8F8F" strokeWidth="0.2"/>
<path d="M12.5647 6.42948H11.0265C10.8849 6.42948 10.7701 6.3147 10.7701 6.17311C10.7701 6.03152 10.8849 5.91675 11.0265 5.91675H12.5647C12.7063 5.91675 12.821 6.03152 12.821 6.17311C12.821 6.3147 12.7063 6.42948 12.5647 6.42948ZM9.56522 6.42948H8.02703C7.88544 6.42948 7.77066 6.3147 7.77066 6.17311C7.77066 6.03152 7.88544 5.91675 8.02703 5.91675H9.56522C9.70681 5.91675 9.82158 6.03152 9.82158 6.17311C9.82158 6.3147 9.70681 6.42948 9.56522 6.42948ZM6.56575 6.42948H5.02756C4.88597 6.42948 4.7712 6.3147 4.7712 6.17311C4.7712 6.03152 4.88597 5.91675 5.02756 5.91675H6.56575C6.70734 5.91675 6.82211 6.03152 6.82211 6.17311C6.82211 6.3147 6.70734 6.42948 6.56575 6.42948ZM3.54065 6.42948H2.00246C1.86087 6.42948 1.74609 6.3147 1.74609 6.17311C1.74609 6.03152 1.86087 5.91675 2.00246 5.91675H3.54065C3.68224 5.91675 3.79701 6.03152 3.79701 6.17311C3.79701 6.3147 3.68224 6.42948 3.54065 6.42948Z" fill="#8F8F8F" stroke="#8F8F8F" strokeWidth="0.2"/>
<path d="M2.00246 4.1287H4.8984C5.03999 4.1287 5.15477 4.01392 5.15477 3.87233C5.15477 3.73074 5.03999 3.61597 4.8984 3.61597H2.00246C1.86087 3.61597 1.74609 3.73074 1.74609 3.87233C1.74609 4.01392 1.86087 4.1287 2.00246 4.1287Z" fill="#8F8F8F" stroke="#8F8F8F" strokeWidth="0.2"/>
</svg>
