<svg width="23" height="24" viewBox="0 0 23 24" fill="none" xmlns="http://www.w3.org/2000/svg">
<circle cx="11.6437" cy="12.0064" r="11.3565" fill="white"/>
<path d="M16.6673 6.88062C17.1978 6.88062 17.7065 7.09133 18.0815 7.4664C18.4566 7.84147 18.6673 8.35018 18.6673 8.88062V15.5473C18.6673 16.0777 18.4566 16.5864 18.0815 16.9615C17.7065 17.3366 17.1978 17.5473 16.6673 17.5473H7.33398C6.80355 17.5473 6.29484 17.3366 5.91977 16.9615C5.5447 16.5864 5.33398 16.0777 5.33398 15.5473V8.88062C5.33398 8.35018 5.5447 7.84147 5.91977 7.4664C6.29484 7.09133 6.80355 6.88062 7.33398 6.88062H16.6673ZM17.334 10.8806H6.66732V15.5473C6.66734 15.7106 6.72729 15.8682 6.83579 15.9902C6.9443 16.1122 7.09382 16.1902 7.25598 16.2093L7.33398 16.2139H16.6673C16.8306 16.2139 16.9882 16.154 17.1102 16.0455C17.2323 15.937 17.3102 15.7874 17.3293 15.6253L17.334 15.5473V10.8806ZM15.334 12.8806C15.5039 12.8808 15.6673 12.9459 15.7909 13.0625C15.9145 13.1792 15.9888 13.3386 15.9988 13.5082C16.0087 13.6778 15.9535 13.8449 15.8445 13.9752C15.7354 14.1055 15.5807 14.1892 15.412 14.2093L15.334 14.2139H13.334C13.1641 14.2138 13.0006 14.1487 12.8771 14.032C12.7535 13.9154 12.6792 13.756 12.6692 13.5864C12.6592 13.4167 12.7144 13.2497 12.8235 13.1194C12.9326 12.9891 13.0873 12.9054 13.256 12.8853L13.334 12.8806H15.334ZM16.6673 8.21395H7.33398C7.15717 8.21395 6.9876 8.28419 6.86258 8.40921C6.73756 8.53424 6.66732 8.7038 6.66732 8.88062V9.54728H17.334V8.88062C17.334 8.7038 17.2637 8.53424 17.1387 8.40921C17.0137 8.28419 16.8441 8.21395 16.6673 8.21395Z" fill="url(#paint0_linear_1143_32272)"/>
<defs>
<linearGradient id="paint0_linear_1143_32272" x1="2.83658" y1="12.2153" x2="17.5929" y2="12.2153" gradientUnits="userSpaceOnUse">
<stop stop-color="#B503FE"/>
<stop offset="1" stop-color="#FF376F"/>
</linearGradient>
</defs>
</svg>
