<svg width="16" height="16" viewBox="0 0 16 16" fill="none" xmlns="http://www.w3.org/2000/svg">
<g clipPath="url(#clip0_881_11087)">
<path d="M14.041 1.85059H13.3379V0.678711H12.166V1.85059H4.43164V0.678711H3.25977V1.85059H2.55664C1.58738 1.85059 0.798828 2.63914 0.798828 3.6084V13.9209C0.798828 14.8902 1.58738 15.6787 2.55664 15.6787H14.041C15.0103 15.6787 15.7988 14.8902 15.7988 13.9209V3.6084C15.7988 2.63914 15.0103 1.85059 14.041 1.85059ZM14.627 13.9209C14.627 14.244 14.3641 14.5068 14.041 14.5068H2.55664C2.23355 14.5068 1.9707 14.244 1.9707 13.9209V6.18652H14.627V13.9209ZM14.627 5.01465H1.9707V3.6084C1.9707 3.28531 2.23355 3.02246 2.55664 3.02246H3.25977V4.19434H4.43164V3.02246H12.166V4.19434H13.3379V3.02246H14.041C14.3641 3.02246 14.627 3.28531 14.627 3.6084V5.01465Z" fill="#4B4B4B"/>
<path d="M4.19727 7.41699H3.02539V8.58887H4.19727V7.41699Z" fill="#4B4B4B"/>
<path d="M6.54102 7.41699H5.36914V8.58887H6.54102V7.41699Z" fill="#4B4B4B"/>
<path d="M8.88477 7.41699H7.71289V8.58887H8.88477V7.41699Z" fill="#4B4B4B"/>
<path d="M11.2285 7.41699H10.0566V8.58887H11.2285V7.41699Z" fill="#4B4B4B"/>
<path d="M13.5723 7.41699H12.4004V8.58887H13.5723V7.41699Z" fill="#4B4B4B"/>
<path d="M4.19727 9.76074H3.02539V10.9326H4.19727V9.76074Z" fill="#4B4B4B"/>
<path d="M6.54102 9.76074H5.36914V10.9326H6.54102V9.76074Z" fill="#4B4B4B"/>
<path d="M8.88477 9.76074H7.71289V10.9326H8.88477V9.76074Z" fill="#4B4B4B"/>
<path d="M11.2285 9.76074H10.0566V10.9326H11.2285V9.76074Z" fill="#4B4B4B"/>
<path d="M4.19727 12.1045H3.02539V13.2764H4.19727V12.1045Z" fill="#4B4B4B"/>
<path d="M6.54102 12.1045H5.36914V13.2764H6.54102V12.1045Z" fill="#4B4B4B"/>
<path d="M8.88477 12.1045H7.71289V13.2764H8.88477V12.1045Z" fill="#4B4B4B"/>
<path d="M11.2285 12.1045H10.0566V13.2764H11.2285V12.1045Z" fill="#4B4B4B"/>
<path d="M13.5723 9.76074H12.4004V10.9326H13.5723V9.76074Z" fill="#4B4B4B"/>
</g>
<defs>
<clipPath id="clip0_881_11087">
<rect width="15" height="15" fill="white" transform="translate(0.798828 0.678711)"/>
</clipPath>
</defs>
</svg>
