<svg width="21" height="21" viewBox="0 0 21 21" fill="none" xmlns="http://www.w3.org/2000/svg">
<path d="M17.813 2.22949H15.8199V1.22949C15.8199 0.964276 15.7149 0.709922 15.528 0.522385C15.3412 0.334849 15.0877 0.229492 14.8234 0.229492C14.5591 0.229492 14.3056 0.334849 14.1187 0.522385C13.9318 0.709922 13.8268 0.964276 13.8268 1.22949V2.22949H7.8476V1.22949C7.8476 0.964276 7.74261 0.709922 7.55572 0.522385C7.36884 0.334849 7.11536 0.229492 6.85106 0.229492C6.58677 0.229492 6.33329 0.334849 6.1464 0.522385C5.95952 0.709922 5.85453 0.964276 5.85453 1.22949V2.22949H3.86145C3.06855 2.22949 2.30813 2.54556 1.74747 3.10817C1.1868 3.67078 0.871826 4.43384 0.871826 5.22949V17.2295C0.871826 18.0251 1.1868 18.7882 1.74747 19.3508C2.30813 19.9134 3.06855 20.2295 3.86145 20.2295H17.813C18.6059 20.2295 19.3663 19.9134 19.927 19.3508C20.4876 18.7882 20.8026 18.0251 20.8026 17.2295V5.22949C20.8026 4.43384 20.4876 3.67078 19.927 3.10817C19.3663 2.54556 18.6059 2.22949 17.813 2.22949ZM18.8095 17.2295C18.8095 17.4947 18.7045 17.7491 18.5177 17.9366C18.3308 18.1241 18.0773 18.2295 17.813 18.2295H3.86145C3.59715 18.2295 3.34367 18.1241 3.15679 17.9366C2.9699 17.7491 2.86491 17.4947 2.86491 17.2295V10.2295H18.8095V17.2295ZM18.8095 8.22949H2.86491V5.22949C2.86491 4.96428 2.9699 4.70992 3.15679 4.52239C3.34367 4.33485 3.59715 4.22949 3.86145 4.22949H5.85453V5.22949C5.85453 5.49471 5.95952 5.74906 6.1464 5.9366C6.33329 6.12414 6.58677 6.22949 6.85106 6.22949C7.11536 6.22949 7.36884 6.12414 7.55572 5.9366C7.74261 5.74906 7.8476 5.49471 7.8476 5.22949V4.22949H13.8268V5.22949C13.8268 5.49471 13.9318 5.74906 14.1187 5.9366C14.3056 6.12414 14.5591 6.22949 14.8234 6.22949C15.0877 6.22949 15.3412 6.12414 15.528 5.9366C15.7149 5.74906 15.8199 5.49471 15.8199 5.22949V4.22949H17.813C18.0773 4.22949 18.3308 4.33485 18.5177 4.52239C18.7045 4.70992 18.8095 4.96428 18.8095 5.22949V8.22949Z" fill="#4B4B4B"/>
</svg>
