<svg id="cancel-icon" xmlns="http://www.w3.org/2000/svg" width="24" height="24" viewBox="0 0 24 24">
  <circle id="Ellipse_269" data-name="Ellipse 269" cx="12" cy="12" r="12" fill="#ebf3ff"/>
  <path id="Path_19960" data-name="Path 19960" d="M128.622,128.622a1.177,1.177,0,0,1-1.65,0l-3.825-3.825-3.825,3.825a1.167,1.167,0,0,1-1.65-1.65l3.825-3.825-3.825-3.825a1.167,1.167,0,0,1,1.65-1.65l3.825,3.825,3.825-3.825a1.167,1.167,0,0,1,1.65,1.65l-3.825,3.825,3.825,3.825A1.177,1.177,0,0,1,128.622,128.622Z" transform="translate(-111.146 -111.146)" fill="#c4c4c4"/>
</svg>
