<svg width="106" height="94" viewBox="0 0 106 94" fill="none" xmlns="http://www.w3.org/2000/svg">
<path d="M45.3446 5.02961L2.06279 79.9905C1.28096 81.3442 0.869285 82.8799 0.869141 84.4431C0.868996 86.0063 1.28039 87.5421 2.06196 88.8959C2.84353 90.2497 3.96774 91.3739 5.32156 92.1555C6.67538 92.9371 8.21111 93.3485 9.77435 93.3484H96.3311C97.8943 93.3485 99.43 92.9371 100.784 92.1555C102.138 91.3739 103.262 90.2497 104.043 88.8959C104.825 87.5421 105.236 86.0063 105.236 84.4431C105.236 82.8799 104.824 81.3442 104.043 79.9905L60.7654 5.02961C59.984 3.67618 58.8601 2.55229 57.5066 1.77089C56.1531 0.989496 54.6179 0.578125 53.055 0.578125C51.4922 0.578125 49.9569 0.989496 48.6035 1.77089C47.25 2.55229 46.1261 3.67618 45.3446 5.02961Z" fill="#FF0000"/>
<path d="M53.6205 28.1484H52.4915C49.7119 28.1484 47.4585 30.4018 47.4585 33.1815V57.2384C47.4585 60.0181 49.7119 62.2714 52.4915 62.2714H53.6205C56.4002 62.2714 58.6536 60.0181 58.6536 57.2384V33.1815C58.6536 30.4018 56.4002 28.1484 53.6205 28.1484Z" fill="#FFF7ED"/>
<path d="M53.056 81.3513C56.1475 81.3513 58.6536 78.8452 58.6536 75.7538C58.6536 72.6623 56.1475 70.1562 53.056 70.1562C49.9646 70.1562 47.4585 72.6623 47.4585 75.7538C47.4585 78.8452 49.9646 81.3513 53.056 81.3513Z" fill="#FFF7ED"/>
</svg>
