<svg width="20" height="20" viewBox="0 0 20 20" fill="none" xmlns="http://www.w3.org/2000/svg">
<g clip-path="url(#clip0_4129_112385)">
<path d="M16.3864 0.234375H3.39059C1.73517 0.234375 0.388489 1.58105 0.388489 3.23648V16.2323C0.388489 17.8877 1.73517 19.2344 3.39059 19.2344H16.3864C18.0418 19.2344 19.3885 17.8877 19.3885 16.2323V3.23648C19.3885 1.58105 18.0418 0.234375 16.3864 0.234375ZM17.3871 16.2323C17.3871 16.784 16.9381 17.2329 16.3864 17.2329H3.39059C2.83886 17.2329 2.38998 16.784 2.38998 16.2323V3.23648C2.38998 2.68474 2.83891 2.23587 3.39059 2.23587H16.3864C16.9381 2.23587 17.387 2.68479 17.387 3.23648V16.2323H17.3871Z" fill="#4A13E7"/>
</g>
<path d="M13.7694 5.38281C13.4297 5.38281 13.1103 5.5152 12.87 5.75559L8.16338 10.4699L6.90893 9.21554C6.66876 8.97531 6.34943 8.84298 6.00976 8.84298C5.67004 8.84298 5.35071 8.97531 5.11049 9.21548C4.87032 9.45565 4.7381 9.77498 4.7381 10.1146C4.7381 10.4543 4.87032 10.7736 5.11049 11.0138L7.26438 13.1676C7.50454 13.4079 7.82388 13.5402 8.1636 13.5402C8.50315 13.5402 8.8226 13.4078 9.06304 13.1674L14.6687 7.55376C15.1644 7.05787 15.1643 6.25109 14.6687 5.7552C14.4285 5.51509 14.1091 5.38281 13.7694 5.38281Z" fill="#4A13E7"/>
<defs>
<clipPath id="clip0_4129_112385">
<rect width="19" height="19" fill="white" transform="translate(0.388489 0.234375)"/>
</clipPath>
</defs>
</svg>
