<svg width="28" height="29" viewBox="0 0 28 29" fill="none" xmlns="http://www.w3.org/2000/svg">
<rect x="0.828125" y="1.44531" width="26.2781" height="26.1353" rx="6.5" stroke="#4A13E7"/>
<path d="M17.1703 16.9609H16.3626C16.0653 16.9609 15.8242 17.202 15.8242 17.4994V20.7299C15.8242 21.0273 16.0653 21.2684 16.3626 21.2684H17.1703C18.061 21.2684 18.7856 20.5437 18.7856 19.6531V18.5762C18.7856 17.6856 18.061 16.9609 17.1703 16.9609ZM17.7087 19.6531C17.7087 19.95 17.4672 20.1915 17.1703 20.1915H16.9011V18.0378H17.1703C17.4672 18.0378 17.7087 18.2793 17.7087 18.5762V19.6531Z" fill="#4A13E7"/>
<path d="M21.4818 16.9609H19.8666C19.5692 16.9609 19.3281 17.202 19.3281 17.4994V20.7299C19.3281 21.0273 19.5692 21.2684 19.8666 21.2684C20.1639 21.2684 20.405 21.0273 20.405 20.7299V19.6531H20.9434C21.2408 19.6531 21.4818 19.412 21.4818 19.1147C21.4818 18.8173 21.2408 18.5762 20.9434 18.5762H20.405V18.0378H21.4818C21.7792 18.0378 22.0203 17.7967 22.0203 17.4994C22.0203 17.202 21.7792 16.9609 21.4818 16.9609Z" fill="#4A13E7"/>
<path d="M13.9395 16.9609H12.8626C12.5653 16.9609 12.3242 17.202 12.3242 17.4994V20.7299C12.3242 21.0273 12.5653 21.2684 12.8626 21.2684C13.16 21.2684 13.4011 21.0273 13.4011 20.7299V19.6531H13.9395C14.6817 19.6531 15.2856 19.0492 15.2856 18.307C15.2856 17.5648 14.6817 16.9609 13.9395 16.9609ZM13.9395 18.5762H13.4011V18.0378H13.9395C14.0879 18.0378 14.2087 18.1586 14.2087 18.307C14.2087 18.4555 14.0879 18.5762 13.9395 18.5762Z" fill="#4A13E7"/>
<path d="M18.845 10.8724L15.6147 7.64213C15.6088 7.63815 15.4682 7.48438 15.2339 7.48438H9.84966C8.95899 7.48438 8.23438 8.20899 8.23438 9.09966V19.6529C8.23438 20.5435 8.95899 21.2681 9.84966 21.2681H10.9265C11.2239 21.2681 11.4649 21.0271 11.4649 20.7297C11.4649 20.4323 11.2239 20.1913 10.9265 20.1913H9.84966C9.55277 20.1913 9.31123 19.9497 9.31123 19.6529V9.09966C9.31123 8.80277 9.55277 8.56123 9.84966 8.56123H14.6955V10.1765C14.6955 11.0672 15.4201 11.7918 16.3108 11.7918H17.9261V15.5608C17.9261 15.8582 18.1671 16.0992 18.4645 16.0992C18.7619 16.0992 19.0029 15.8582 19.0029 15.5608V11.2533C19.0029 11.112 18.9452 10.9722 18.845 10.8724ZM16.3108 10.7149C16.0139 10.7149 15.7724 10.4734 15.7724 10.1765V9.32268L17.1646 10.7149H16.3108Z" fill="#4A13E7"/>
<path d="M15.6817 14.3774H14.885L14.006 12.855L14.4044 12.1651C14.5674 11.8828 14.5674 11.5457 14.4044 11.2634C14.2414 10.9811 13.9494 10.8125 13.6234 10.8125C13.2974 10.8125 13.0055 10.981 12.8425 11.2634C12.6795 11.5457 12.6795 11.8828 12.8425 12.1651L13.2408 12.855L12.3619 14.3774H11.5653C11.2393 14.3774 10.9474 14.546 10.7844 14.8283C10.6213 15.1106 10.6214 15.4477 10.7844 15.73C10.9473 16.0123 11.2393 16.1808 11.5652 16.1808H11.5653C11.8912 16.1808 12.1832 16.0123 12.3462 15.73L12.7445 15.0401H14.5024L14.9008 15.73C15.0638 16.0123 15.3557 16.1808 15.6817 16.1808C16.0077 16.1808 16.2996 16.0123 16.4625 15.73C16.6255 15.4477 16.6256 15.1106 16.4625 14.8283C16.2996 14.546 16.0077 14.3774 15.6817 14.3774ZM11.7723 15.3987C11.71 15.5065 11.6068 15.5182 11.5653 15.5182C11.5238 15.5182 11.4205 15.5066 11.3582 15.3987C11.296 15.2908 11.3375 15.1955 11.3582 15.1596C11.379 15.1237 11.4407 15.0401 11.5653 15.0401H11.9793L11.7723 15.3987ZM13.4164 11.5947C13.4372 11.5588 13.4989 11.4752 13.6235 11.4752C13.748 11.4752 13.8098 11.5587 13.8305 11.5947C13.8512 11.6306 13.8928 11.7259 13.8305 11.8338L13.6235 12.1923L13.4164 11.8338C13.3541 11.7259 13.3957 11.6306 13.4164 11.5947ZM13.1271 14.3774L13.6235 13.5177L14.1199 14.3774H13.1271ZM15.8887 15.3987C15.8264 15.5065 15.7232 15.5182 15.6817 15.5182C15.6402 15.5182 15.5369 15.5066 15.4746 15.3987L15.2676 15.0401H15.6817C15.8063 15.0401 15.8679 15.1237 15.8887 15.1596C15.9094 15.1955 15.951 15.2908 15.8887 15.3987Z" fill="#4A13E7"/>
</svg>
