<svg width="24" height="23" viewBox="0 0 24 23" fill="none" xmlns="http://www.w3.org/2000/svg">
<g id="Group 40035">
<circle id="Ellipse 92" cx="11.9776" cy="11.6354" r="11.3565" fill="white"/>
<path id="Vector (Stroke)" fill-rule="evenodd" clip-rule="evenodd" d="M7.63331 6.07028C7.97657 5.72702 8.44214 5.53418 8.92758 5.53418H15.0288C15.5143 5.53418 15.9798 5.72702 16.3231 6.07028C16.6664 6.41355 16.8592 6.87911 16.8592 7.36456V16.5164H17.4693C17.8063 16.5164 18.0795 16.7896 18.0795 17.1266C18.0795 17.4635 17.8063 17.7367 17.4693 17.7367H6.48708C6.15012 17.7367 5.87695 17.4635 5.87695 17.1266C5.87695 16.7896 6.15012 16.5164 6.48708 16.5164H7.0972V7.36456C7.0972 6.87911 7.29005 6.41355 7.63331 6.07028ZM8.31746 16.5164H10.1478V14.0759C10.1478 13.7523 10.2764 13.4419 10.5052 13.2131C10.7341 12.9843 11.0445 12.8557 11.3681 12.8557H12.5883C12.912 12.8557 13.2223 12.9843 13.4512 13.2131C13.68 13.4419 13.8086 13.7523 13.8086 14.0759V16.5164H15.639V7.36456C15.639 7.20274 15.5747 7.04755 15.4603 6.93313C15.3458 6.81871 15.1907 6.75443 15.0288 6.75443H8.92758C8.76577 6.75443 8.61058 6.81871 8.49616 6.93313C8.38174 7.04755 8.31746 7.20274 8.31746 7.36456V16.5164ZM12.5883 16.5164V14.0759H11.3681V16.5164H12.5883ZM9.53771 8.58481C9.53771 8.24785 9.81087 7.97468 10.1478 7.97468H10.758C11.0949 7.97468 11.3681 8.24785 11.3681 8.58481C11.3681 8.92177 11.0949 9.19493 10.758 9.19493H10.1478C9.81087 9.19493 9.53771 8.92177 9.53771 8.58481ZM12.5883 8.58481C12.5883 8.24785 12.8615 7.97468 13.1985 7.97468H13.8086C14.1456 7.97468 14.4187 8.24785 14.4187 8.58481C14.4187 8.92177 14.1456 9.19493 13.8086 9.19493H13.1985C12.8615 9.19493 12.5883 8.92177 12.5883 8.58481ZM9.53771 11.0253C9.53771 10.6883 9.81087 10.4152 10.1478 10.4152H10.758C11.0949 10.4152 11.3681 10.6883 11.3681 11.0253C11.3681 11.3623 11.0949 11.6354 10.758 11.6354H10.1478C9.81087 11.6354 9.53771 11.3623 9.53771 11.0253ZM12.5883 11.0253C12.5883 10.6883 12.8615 10.4152 13.1985 10.4152H13.8086C14.1456 10.4152 14.4187 10.6883 14.4187 11.0253C14.4187 11.3623 14.1456 11.6354 13.8086 11.6354H13.1985C12.8615 11.6354 12.5883 11.3623 12.5883 11.0253Z" fill="url(#paint0_linear_912_65806)"/>
</g>
<defs>
<linearGradient id="paint0_linear_912_65806" x1="3.59136" y1="11.637" x2="17.0961" y2="11.637" gradientUnits="userSpaceOnUse">
<stop stop-color="#B503FE"/>
<stop offset="1" stop-color="#FF376F"/>
</linearGradient>
</defs>
</svg>
