<svg width="23" height="23" viewBox="0 0 23 23" fill="none" xmlns="http://www.w3.org/2000/svg">
<g clip-path="url(#clip0_1558_28150)">
<path d="M15.8796 8.43058C15.5221 8.07262 14.9409 8.07262 14.5834 8.43058L10.6482 12.3654L9.00458 10.7222C8.64708 10.3643 8.06591 10.3643 7.70841 10.7222C7.35045 11.0802 7.35045 11.6605 7.70841 12.0184L10.0001 14.3101C10.1788 14.4893 10.4135 14.5787 10.6482 14.5787C10.8828 14.5787 11.1175 14.4893 11.2962 14.3101L15.8796 9.72674C16.2375 9.36879 16.2375 8.78854 15.8796 8.43058Z" fill="#FE9244"/>
<path d="M21.1898 10.4544C20.6838 10.4544 20.2731 10.8651 20.2731 11.3711C20.2731 16.4256 16.1609 20.5378 11.1064 20.5378C6.05195 20.5378 1.93978 16.4256 1.93978 11.3711C1.93978 6.31659 6.05195 2.20443 11.1064 2.20443C13.5672 2.20443 15.8772 3.16601 17.6116 4.91226C17.9677 5.27205 18.5484 5.27389 18.9077 4.91684C19.2671 4.56026 19.2689 3.98001 18.9123 3.62068C16.8315 1.52518 14.059 0.371094 11.1064 0.371094C5.04086 0.371094 0.106445 5.30551 0.106445 11.3711C0.106445 17.4367 5.04086 22.3711 11.1064 22.3711C17.172 22.3711 22.1064 17.4367 22.1064 11.3711C22.1064 10.8651 21.6958 10.4544 21.1898 10.4544Z" fill="#FE9244"/>
</g>
<defs>
<clipPath id="clip0_1558_28150">
<rect width="22" height="22" fill="white" transform="translate(0.106445 0.371094)"/>
</clipPath>
</defs>
</svg>
