<svg width="22" height="23" viewBox="0 0 22 23" fill="none" xmlns="http://www.w3.org/2000/svg">
<g clip-path="url(#clip0_1558_28150)">
<path d="M15.7736 8.43058C15.4161 8.07262 14.835 8.07262 14.4775 8.43058L10.5422 12.3654L8.89862 10.7222C8.54112 10.3643 7.95995 10.3643 7.60245 10.7222C7.24449 11.0802 7.24449 11.6605 7.60245 12.0184L9.89412 14.3101C10.0729 14.4893 10.3075 14.5787 10.5422 14.5787C10.7769 14.5787 11.0115 14.4893 11.1903 14.3101L15.7736 9.72674C16.1316 9.36879 16.1316 8.78854 15.7736 8.43058Z" fill="#FE9244"/>
<path d="M21.0833 10.4544C20.5773 10.4544 20.1667 10.8651 20.1667 11.3711C20.1667 16.4256 16.0545 20.5378 11 20.5378C5.9455 20.5378 1.83333 16.4256 1.83333 11.3711C1.83333 6.31659 5.9455 2.20443 11 2.20443C13.4608 2.20443 15.7708 3.16601 17.5051 4.91226C17.8612 5.27205 18.442 5.27389 18.8013 4.91684C19.1606 4.56026 19.1625 3.98001 18.8059 3.62068C16.725 1.52518 13.9526 0.371094 11 0.371094C4.93442 0.371094 0 5.30551 0 11.3711C0 17.4367 4.93442 22.3711 11 22.3711C17.0656 22.3711 22 17.4367 22 11.3711C22 10.8651 21.5893 10.4544 21.0833 10.4544Z" fill="#FE9244"/>
</g>
<defs>
<clipPath id="clip0_1558_28150">
<rect width="22" height="22" fill="white" transform="translate(0 0.371094)"/>
</clipPath>
</defs>
</svg>
