<svg xmlns="http://www.w3.org/2000/svg" width="34" height="35" viewBox="0 0 34 35" fill="none">
  <rect x="0.550781" y="1.26758" width="32.2438" height="32.2438" rx="7.5" fill="white" stroke="#EFF4FA"/>
  <path d="M19.6823 10.0718H12.6692C11.7423 10.0718 10.9922 10.8219 10.9922 11.7488V21.2013C10.9922 22.1282 11.7423 22.8783 12.6692 22.8783H17.1698L17.304 22.1282C17.365 21.7867 17.5235 21.4818 17.7675 21.2318L21.3594 17.6459V11.7488C21.3594 10.8219 20.6093 10.0718 19.6823 10.0718ZM13.4315 12.5111H15.8709C16.2063 12.5111 16.4807 12.7855 16.4807 13.121C16.4807 13.4564 16.2063 13.7308 15.8709 13.7308H13.4315C13.0961 13.7308 12.8217 13.4564 12.8217 13.121C12.8217 12.7855 13.0961 12.5111 13.4315 12.5111ZM16.4807 18.6095H13.4315C13.0961 18.6095 12.8217 18.335 12.8217 17.9996C12.8217 17.6642 13.0961 17.3898 13.4315 17.3898H16.4807C16.8161 17.3898 17.0905 17.6642 17.0905 17.9996C17.0905 18.335 16.8161 18.6095 16.4807 18.6095ZM18.92 16.1701H13.4315C13.0961 16.1701 12.8217 15.8957 12.8217 15.5603C12.8217 15.2249 13.0961 14.9505 13.4315 14.9505H18.92C19.2555 14.9505 19.5299 15.2249 19.5299 15.5603C19.5299 15.8957 19.2555 16.1701 18.92 16.1701Z" fill="url(#paint0_linear_2051_43541)"/>
  <path d="M18.6368 24.7072C18.5167 24.7072 18.3996 24.6596 18.3136 24.5731C18.2081 24.4676 18.1605 24.3176 18.1868 24.17L18.51 22.3376C18.5258 22.2455 18.5709 22.1601 18.6368 22.0937L23.1644 17.5666C23.7206 17.0093 24.2669 17.1599 24.5657 17.4587L25.32 18.213C25.7365 18.6289 25.7365 19.3057 25.32 19.7222L20.7924 24.2499C20.7265 24.3163 20.6412 24.3609 20.5485 24.3767L18.7161 24.6999C18.6898 24.7048 18.663 24.7072 18.6368 24.7072Z" fill="url(#paint1_linear_2051_43541)"/>
  <defs>
    <linearGradient id="paint0_linear_2051_43541" x1="10.9948" y1="16.472" x2="21.3646" y2="16.472" gradientUnits="userSpaceOnUse">
      <stop stop-color="#FF3671"/>
      <stop offset="1" stop-color="#FE9841"/>
    </linearGradient>
    <linearGradient id="paint1_linear_2051_43541" x1="18.1816" y1="20.9475" x2="25.6361" y2="20.9475" gradientUnits="userSpaceOnUse">
      <stop stop-color="#FF3671"/>
      <stop offset="1" stop-color="#FE9841"/>
    </linearGradient>
  </defs>
</svg>