<svg width="22" height="23" viewBox="0 0 22 23" fill="none" xmlns="http://www.w3.org/2000/svg">
<path d="M13.05 2.23626L8.63503 6.65123C8.6265 6.65972 8.6212 6.67002 8.61271 6.67859C9.70035 6.52018 10.8177 6.62879 11.8535 7.03267L14.8499 4.03621C15.8426 3.04352 17.4571 3.04352 18.4498 4.03621C19.4425 5.02882 19.4425 6.64338 18.4498 7.63599C18.2805 7.80535 13.7795 12.3063 14.0348 12.051C13.0343 13.0516 11.3928 13.0088 10.4349 12.051C9.93887 11.5549 9.13118 11.5549 8.63503 12.051L7.8623 12.8237C8.07663 13.1879 8.32236 13.5383 8.63503 13.851C10.5204 15.7363 13.7656 15.8869 15.8074 13.8733C15.8159 13.8648 15.8262 13.8594 15.8348 13.851L20.2497 9.43599C22.2378 7.4478 22.2378 4.22445 20.2497 2.23626C18.2615 0.248069 15.0382 0.248069 13.05 2.23626Z" fill="#393939"/>
<path d="M9.91655 16.1692L6.91042 19.1754C5.91781 20.1681 4.30325 20.1681 3.31064 19.1754C2.31794 18.1827 2.31794 16.5682 3.31064 15.5755C3.47991 15.4062 7.99051 10.8956 7.73524 11.1509C8.73578 10.1504 10.3773 10.1931 11.3351 11.1509C11.8312 11.6471 12.6389 11.6471 13.135 11.1509L13.9077 10.3782C13.6934 10.014 13.4477 9.66357 13.135 9.35099C11.2533 7.46915 8.01041 7.30904 5.96265 9.32863C5.95412 9.33711 5.94386 9.34246 5.93529 9.35099L1.51064 13.7756C-0.477463 15.7637 -0.477548 18.9872 1.51064 20.9754C3.49883 22.9635 6.72226 22.9635 8.71037 20.9754L13.135 16.5507C13.1435 16.5422 13.1488 16.532 13.1573 16.5233C12.0696 16.6817 10.9523 16.5731 9.91655 16.1692Z" fill="#393939"/>
</svg>
