<svg width="132" height="133" viewBox="0 0 132 133" fill="none" xmlns="http://www.w3.org/2000/svg">
<g clip-path="url(#clip0_1558_27968)">
<g clip-path="url(#clip1_1558_27968)">
<path d="M113.318 23.4111H40.0967C34.1244 23.4111 29.283 28.1253 29.283 33.9406V121.102C29.283 126.917 34.1244 131.632 40.0967 131.632H113.318C119.29 131.632 124.132 126.917 124.132 121.102V33.9406C124.132 28.1253 119.29 23.4111 113.318 23.4111Z" fill="#4A13E7"/>
<path d="M53.3716 103.871H102.63" stroke="white" strokeWidth="3.7932" strokeMiterlimit="10" strokeLinecap="round"/>
<path d="M61.2587 111.941H94.7444" stroke="white" strokeWidth="3.7932" strokeMiterlimit="10" strokeLinecap="round"/>
<path d="M77.9559 85.219C88.7775 85.219 97.5501 76.1333 97.5501 64.9254C97.5501 53.7176 88.7775 44.6318 77.9559 44.6318C67.1342 44.6318 58.3616 53.7176 58.3616 64.9254C58.3616 76.1333 67.1342 85.219 77.9559 85.219Z" stroke="white" strokeWidth="5.10972" strokeMiterlimit="10" strokeLinecap="round"/>
<path d="M69.3557 64.9254L75.9898 71.7954L100.902 44.6318" stroke="white" strokeWidth="5.10972" strokeMiterlimit="10" strokeLinecap="round"/>
</g>
<path d="M113.93 30.6904C111.889 30.6904 109.432 30.2006 107.339 28.3882C107.232 28.3043 107.142 28.1994 107.076 28.0803C107.01 27.9612 106.97 27.8296 106.957 27.6945C106.945 27.5595 106.96 27.4228 107.002 27.2936C107.045 27.1645 107.114 27.0454 107.204 26.943C107.295 26.8407 107.406 26.7585 107.53 26.6998C107.655 26.6411 107.79 26.6092 107.927 26.6042C108.064 26.5992 108.202 26.6218 108.33 26.6713C108.458 26.7208 108.575 26.7946 108.673 26.8902C111.514 29.351 115.336 28.7111 116.847 28.3227C119.243 27.7063 120.659 26.5832 120.861 26.0204C120.904 25.8938 120.971 25.7764 121.059 25.6757C121.148 25.5751 121.255 25.4929 121.377 25.4342C121.497 25.3755 121.63 25.3411 121.764 25.3327C121.899 25.3251 122.034 25.3436 122.161 25.3881C122.288 25.4325 122.405 25.5013 122.505 25.591C122.604 25.6808 122.685 25.789 122.742 25.9106C122.799 26.0314 122.83 26.1622 122.834 26.2955C122.839 26.4289 122.817 26.5614 122.769 26.6864C122.244 28.1407 120.119 29.5422 117.356 30.2535C116.237 30.5412 115.086 30.6879 113.93 30.6913V30.6904Z" fill="#FE9244"/>
<path d="M105.44 25.149C105.248 25.149 105.058 25.0944 104.895 24.9921C104.732 24.8889 104.602 24.743 104.522 24.5694C103.281 21.919 103.23 19.132 104.38 16.5076C105.474 14.0082 107.584 11.8208 110.492 10.192C115.419 7.43014 120.58 9.4372 122.938 12.7309C124.565 15.0029 124.526 17.4059 122.84 18.8518C118.57 22.517 112.472 15.8148 112.216 15.5196C112.127 15.4215 112.06 15.3066 112.015 15.1816C111.972 15.0575 111.953 14.9258 111.961 14.7941C111.97 14.6624 112.004 14.5341 112.061 14.415C112.12 14.2967 112.2 14.1902 112.301 14.103C112.4 14.0158 112.516 13.9478 112.642 13.9051C112.768 13.8623 112.902 13.8438 113.035 13.8514C113.167 13.8589 113.298 13.8925 113.418 13.9504C113.538 14.0082 113.645 14.0879 113.734 14.1869C113.785 14.2422 118.793 19.6595 121.519 17.3254C122.545 16.4455 122.075 14.9644 121.29 13.8698C119.82 11.8158 115.86 9.46823 111.496 11.9156C106.356 14.8075 104.348 19.4389 106.356 23.729C106.413 23.8481 106.445 23.9781 106.451 24.1098C106.456 24.2415 106.436 24.3731 106.39 24.4973C106.344 24.6214 106.274 24.7346 106.183 24.8319C106.092 24.9292 105.984 25.0072 105.862 25.0617C105.73 25.1204 105.585 25.1498 105.44 25.1481V25.149Z" fill="#FE9244"/>
<path d="M114.303 24.5095C113.987 24.5095 113.673 24.4726 113.366 24.4014C111.877 24.0516 110.709 22.9269 110.076 21.236C108.832 17.9038 112.803 14.8332 112.971 14.7041C113.078 14.6235 113.197 14.5648 113.325 14.5305C113.454 14.4961 113.588 14.4877 113.72 14.5045C113.852 14.5212 113.979 14.564 114.094 14.6294C114.209 14.6948 114.31 14.7821 114.392 14.8861C114.473 14.9901 114.533 15.1092 114.567 15.2358C114.602 15.3625 114.611 15.495 114.594 15.625C114.577 15.755 114.534 15.8808 114.467 15.9949C114.401 16.1089 114.313 16.2087 114.207 16.2892C114.179 16.3111 111.257 18.6217 111.976 20.5441C112.364 21.5883 113.026 22.2685 113.831 22.458C114.587 22.635 115.41 22.38 116.086 21.7585C117.356 20.5927 116.582 18.8012 116.548 18.7249C116.441 18.4833 116.434 18.2099 116.53 17.9642C116.625 17.7184 116.815 17.5197 117.059 17.4106C117.302 17.3024 117.579 17.2932 117.828 17.3855C118.079 17.4777 118.282 17.6639 118.394 17.9029C118.452 18.0313 119.808 21.0683 117.466 23.2188C116.614 24.0281 115.484 24.4894 114.303 24.5095Z" fill="#FE9244"/>
<path d="M30.6226 85.7923C30.4485 85.852 30.2613 85.8639 30.081 85.8263C29.9007 85.7887 29.7342 85.7029 29.5999 85.5785L16.8748 73.8413C16.6787 73.6609 16.564 73.41 16.5548 73.1451C16.5457 72.8802 16.6432 72.6222 16.8267 72.4279C17.0095 72.2338 17.2635 72.1201 17.5315 72.1108C17.7996 72.1014 18.0605 72.1974 18.2569 72.3786L30.982 84.1158C31.0788 84.2051 31.157 84.3132 31.2123 84.4327C31.2676 84.5522 31.2975 84.6813 31.302 84.812C31.3067 84.9436 31.285 85.0744 31.2384 85.1978C31.1914 85.3204 31.1213 85.4332 31.0301 85.5293C30.9181 85.6484 30.7782 85.739 30.6226 85.7923Z" fill="#FE9244"/>
<path d="M36.0049 94.9834C35.842 95.0392 35.668 95.0527 35.4977 95.0232C35.3283 94.9935 35.1694 94.9219 35.0355 94.8142L24.2845 86.1841C24.0764 86.0158 23.9441 85.7736 23.9172 85.5094C23.8901 85.2444 23.9703 84.9808 24.1406 84.7742C24.3104 84.5686 24.5564 84.4372 24.8237 84.4104C25.091 84.3835 25.3584 84.4622 25.5665 84.6306L36.3186 93.2586C36.4586 93.3712 36.5658 93.5182 36.6297 93.6853C36.6925 93.852 36.7098 94.0325 36.678 94.2085C36.6469 94.3842 36.568 94.5489 36.4508 94.684C36.334 94.8199 36.1821 94.9226 36.0113 94.9812L36.0049 94.9834Z" fill="#FF376F"/>
<path d="M122.925 65.3694C122.678 65.2841 122.473 65.1076 122.355 64.8775C122.236 64.6473 122.212 64.3806 122.289 64.1334L128.538 43.7926C128.616 43.5387 128.792 43.3261 129.029 43.2009C129.266 43.0759 129.543 43.05 129.8 43.1272C130.057 43.2044 130.273 43.3792 130.399 43.614C130.526 43.8488 130.554 44.1222 130.475 44.3757L124.226 64.7165C124.188 64.8428 124.124 64.9594 124.04 65.0608C123.955 65.1623 123.852 65.2465 123.734 65.3079C123.617 65.3696 123.488 65.4078 123.356 65.4208C123.224 65.4337 123.09 65.4203 122.963 65.3816L122.924 65.3702L122.925 65.3694Z" fill="#FF376F"/>
<path d="M123.801 71.1797L123.746 71.1606C123.622 71.11 123.51 71.0368 123.417 70.9431C123.323 70.8502 123.248 70.7401 123.198 70.6186C123.146 70.4969 123.12 70.367 123.12 70.2357C123.12 70.1041 123.146 69.9737 123.198 69.8529L129.033 55.9215C129.136 55.6765 129.334 55.4817 129.582 55.38C129.83 55.2783 130.109 55.2789 130.358 55.3807C130.606 55.4824 130.803 55.6777 130.906 55.9227C131.009 56.168 131.008 56.4442 130.906 56.6894L125.07 70.6214C124.97 70.8571 124.784 71.046 124.548 71.15C124.312 71.2543 124.045 71.265 123.801 71.1797Z" fill="#C50EE0"/>
<path d="M95.6704 13.9884C95.4021 13.9884 95.144 13.8827 94.9547 13.6957C94.7646 13.5086 94.6584 13.2537 94.6584 12.9886V9.89038C94.6584 9.62534 94.7646 9.37121 94.9547 9.18334C95.144 8.99547 95.4021 8.89062 95.6704 8.89062C95.9387 8.89062 96.1959 8.9963 96.3852 9.18334C96.5754 9.37037 96.6815 9.62534 96.6815 9.89038V12.9895C96.6815 13.1211 96.656 13.2511 96.6051 13.3719C96.5542 13.4935 96.4794 13.6034 96.3852 13.6965C96.2918 13.7896 96.1798 13.8626 96.0575 13.9129C95.9344 13.9632 95.8028 13.9892 95.6704 13.9892V13.9884Z" fill="#FF376F"/>
<path d="M97.3666 12.464H97.3445L93.9547 12.4137C93.8222 12.412 93.6907 12.3835 93.5693 12.3315C93.447 12.2795 93.3366 12.204 93.2441 12.1101C93.0573 11.9197 92.9546 11.6639 92.9589 11.3988C92.9631 11.1338 93.0735 10.8814 93.2662 10.696C93.4589 10.5115 93.7178 10.41 93.9861 10.4142L97.376 10.4645C97.6442 10.4662 97.9006 10.5735 98.0891 10.7623C98.2775 10.951 98.3828 11.2059 98.3811 11.471C98.3786 11.736 98.2708 11.9893 98.0797 12.1755C97.8887 12.3617 97.6306 12.4649 97.3624 12.4632H97.3675L97.3666 12.464Z" fill="#FF376F"/>
<path d="M23.9028 51.3447C23.6346 51.3447 23.3773 51.239 23.1872 51.052C22.997 50.8649 22.8909 50.61 22.8909 50.3449V47.2458C22.8909 46.9808 22.9979 46.7267 23.1872 46.5388C23.3765 46.3509 23.6346 46.2461 23.9028 46.2461C24.1711 46.2461 24.4283 46.3518 24.6185 46.5388C24.8087 46.7258 24.9148 46.9808 24.9148 47.2458V50.3449C24.9148 50.61 24.8078 50.8641 24.6185 51.052C24.4292 51.2398 24.1711 51.3447 23.9028 51.3447Z" fill="#C50EE0"/>
<path d="M25.6024 49.8203H25.5889L22.199 49.77C22.0666 49.7683 21.935 49.7406 21.8127 49.6878C21.6905 49.6349 21.5801 49.5603 21.4876 49.4663C21.395 49.3724 21.322 49.2609 21.2736 49.1384C21.2253 49.016 21.2006 48.886 21.2023 48.7551C21.204 48.6234 21.232 48.4943 21.2855 48.3735C21.3382 48.2527 21.4146 48.1437 21.5096 48.0523C21.6047 47.9608 21.7176 47.8887 21.8416 47.8401C21.9647 47.7914 22.0971 47.7679 22.2296 47.7696L25.6194 47.8199C25.8877 47.8216 26.1441 47.929 26.3325 48.1177C26.521 48.3064 26.6254 48.5614 26.6237 48.8264C26.622 49.0914 26.5134 49.3447 26.3224 49.5309C26.1313 49.7171 25.8733 49.8203 25.605 49.8186H25.6033L25.6024 49.8203Z" fill="#C50EE0"/>
<path d="M4.92064 9.70443C4.71635 10.1713 4.64833 10.6856 4.7243 11.1888C4.80027 11.692 5.01718 12.1641 5.35044 12.5515L26.6951 37.5455C27.0744 37.9898 27.5868 38.303 28.158 38.4396C28.7292 38.5763 29.3296 38.5292 29.8719 38.3053C30.4143 38.0813 30.8705 37.6922 31.1744 37.1943C31.4783 36.6964 31.614 36.1156 31.5619 35.5362L30.2742 21.1798C30.2535 20.9543 30.29 20.7272 30.3802 20.5192C30.4704 20.3111 30.6115 20.1286 30.7908 19.988L42.1893 11.0216C42.6508 10.6609 42.9835 10.1636 43.1389 9.60227C43.2942 9.04098 43.2641 8.4452 43.0528 7.90209L43.0374 7.86212C42.8232 7.32789 42.444 6.8743 41.9539 6.56609C41.4638 6.25788 40.8879 6.11082 40.3083 6.1459L7.30162 8.05189C6.78841 8.07961 6.29331 8.24913 5.87247 8.54122C5.45163 8.83331 5.12189 9.23628 4.92064 9.70443ZM40.4691 8.87769L29.07 17.8444C28.9126 17.9807 28.766 18.1287 28.6315 18.2872L18.0659 13.7995C17.899 13.7286 17.7197 13.6909 17.5381 13.6887C17.3566 13.6864 17.1763 13.7195 17.0077 13.7862C16.8391 13.8529 16.6854 13.9518 16.5554 14.0772C16.4254 14.2027 16.3216 14.3523 16.25 14.5175C16.1784 14.6826 16.1404 14.8602 16.1381 15.0399C16.1358 15.2196 16.1693 15.398 16.2366 15.5649C16.304 15.7318 16.4039 15.884 16.5307 16.0126C16.6574 16.1413 16.8085 16.244 16.9754 16.3149L27.5409 20.8026C27.5176 21.0082 27.5103 21.2154 27.519 21.4222L28.8074 35.7782L7.4618 10.7839L40.4691 8.87769ZM44.5056 31.35C44.8426 31.4932 45.1083 31.763 45.2444 32.1C45.3804 32.4371 45.3756 32.8139 45.231 33.1475C45.0864 33.481 44.8138 33.7441 44.4733 33.8787C44.1327 34.0134 43.7521 34.0086 43.4151 33.8655L34.4297 30.0486C34.0928 29.9055 33.827 29.6357 33.691 29.2986C33.555 28.9615 33.5598 28.5848 33.7044 28.2512C33.849 27.9176 34.1215 27.6546 34.4621 27.5199C34.8026 27.3853 35.1832 27.39 35.5202 27.5332L44.5056 31.35ZM38.3314 17.5778C38.403 17.4126 38.5067 17.263 38.6367 17.1375C38.7667 17.012 38.9204 16.9131 39.0891 16.8464C39.2577 16.7798 39.4379 16.7466 39.6195 16.7489C39.8011 16.7512 39.9804 16.7889 40.1473 16.8598L49.1326 20.6767C49.2995 20.7476 49.4506 20.8503 49.5774 20.979C49.7041 21.1076 49.804 21.2598 49.8714 21.4267C49.9387 21.5936 49.9722 21.772 49.9699 21.9517C49.9676 22.1315 49.9296 22.309 49.858 22.4741C49.7864 22.6393 49.6826 22.7889 49.5526 22.9144C49.4226 23.0398 49.2689 23.1387 49.1003 23.2054C48.9317 23.2721 48.7515 23.3052 48.5699 23.3029C48.3883 23.3007 48.209 23.263 48.0422 23.1921L39.0568 19.3753C38.8899 19.3045 38.7387 19.2018 38.6119 19.0731C38.4852 18.9444 38.3852 18.7923 38.3179 18.6253C38.2505 18.4584 38.217 18.28 38.2194 18.1003C38.2217 17.9205 38.2598 17.743 38.3314 17.5778ZM41.3928 23.7803L50.4045 27.5364C50.5719 27.6061 50.7237 27.7078 50.8514 27.8356C50.979 27.9634 51.08 28.1149 51.1485 28.2814C51.217 28.4478 51.2517 28.626 51.2507 28.8057C51.2496 28.9855 51.2128 29.1632 51.1424 29.3289C51.0719 29.4945 50.9692 29.6448 50.8401 29.7712C50.7109 29.8976 50.5579 29.9975 50.3898 30.0653C50.2216 30.1332 50.0416 30.1675 49.86 30.1665C49.6785 30.1655 49.4989 30.129 49.3315 30.0593L40.3198 26.3032C39.9829 26.1617 39.7165 25.8937 39.5789 25.558C39.4414 25.2223 39.4438 24.8463 39.5858 24.5124C39.7278 24.1785 39.9978 23.914 40.3365 23.7767C40.6751 23.6395 41.055 23.6408 41.3928 23.7803Z" fill="#FF376F"/>
</g>
<defs>
<clipPath id="clip0_1558_27968">
<rect width="131" height="131.654" fill="white" transform="translate(0.618652 0.450195)"/>
</clipPath>
<clipPath id="clip1_1558_27968">
<rect width="94.849" height="110.017" fill="white" transform="translate(29.283 23.4111)"/>
</clipPath>
</defs>
</svg>
