<svg width="31" height="31" viewBox="0 0 31 31" fill="none" xmlns="http://www.w3.org/2000/svg">
<g id=" " clip-path="url(#clip0_1192_2619)">
<path id="Vector" d="M18.2383 0.811035H3.86328C1.96328 0.811035 0.425781 2.34854 0.425781 4.24854V23.6235C0.425781 25.5235 1.96328 27.061 3.86328 27.061H12.1008C11.4258 25.636 11.0508 24.0485 11.0508 22.3735C11.0508 20.936 11.3258 19.561 11.8383 18.2985C11.7883 18.311 11.7383 18.311 11.6758 18.311H5.42578C4.73828 18.311 4.17578 17.7485 4.17578 17.061C4.17578 16.3735 4.73828 15.811 5.42578 15.811H11.6758C12.1508 15.811 12.5758 16.086 12.7758 16.486C13.5883 15.2235 14.6383 14.1485 15.8758 13.311H5.42578C4.73828 13.311 4.17578 12.7485 4.17578 12.061C4.17578 11.3735 4.73828 10.811 5.42578 10.811H16.6758C17.3633 10.811 17.9258 11.3735 17.9258 12.061C17.9258 12.1235 17.9258 12.1735 17.9133 12.2235C19.0758 11.7485 20.3508 11.4735 21.6758 11.4485V4.24854C21.6758 2.34854 20.1383 0.811035 18.2383 0.811035ZM10.4258 8.31104H5.42578C4.73828 8.31104 4.17578 7.74854 4.17578 7.06104C4.17578 6.37354 4.73828 5.81104 5.42578 5.81104H10.4258C11.1133 5.81104 11.6758 6.37354 11.6758 7.06104C11.6758 7.74854 11.1133 8.31104 10.4258 8.31104Z" fill="#8F8F8F"/>
<path id="Vector_2" d="M21.9883 13.936C17.3358 13.936 13.5508 17.721 13.5508 22.3735C13.5508 27.026 17.3358 30.811 21.9883 30.811C26.6408 30.811 30.4258 27.026 30.4258 22.3735C30.4258 17.721 26.6408 13.936 21.9883 13.936ZM25.4258 23.6235H23.2383V25.811C23.2383 26.501 22.6783 27.061 21.9883 27.061C21.2983 27.061 20.7383 26.501 20.7383 25.811V23.6235H18.5508C17.8608 23.6235 17.3008 23.0635 17.3008 22.3735C17.3008 21.6835 17.8608 21.1235 18.5508 21.1235H20.7383V18.936C20.7383 18.246 21.2983 17.686 21.9883 17.686C22.6783 17.686 23.2383 18.246 23.2383 18.936V21.1235H25.4258C26.1158 21.1235 26.6758 21.6835 26.6758 22.3735C26.6758 23.0635 26.1158 23.6235 25.4258 23.6235Z" fill="#4A13E7"/>
</g>
<defs>
<clipPath id="clip0_1192_2619">
<rect width="30" height="30" fill="white" transform="translate(0.425781 0.811035)"/>
</clipPath>
</defs>
</svg>
