<svg width="25" height="26" viewBox="0 0 25 26" fill="none" xmlns="http://www.w3.org/2000/svg">
<path d="M21.4242 7.07885L21.4242 7.07886L23.3104 8.07445C24.4083 8.65389 24.8414 9.97897 24.2953 11.0903L23.3575 12.9987L23.2678 12.9546L23.3575 12.9987C23.27 13.1768 23.27 13.3803 23.3575 13.5584L24.2953 15.4668C24.8414 16.5782 24.4083 17.9034 23.3104 18.4828L21.4242 19.4783C21.2479 19.5714 21.1276 19.7363 21.0932 19.9315L20.7242 22.0236C20.5094 23.242 19.3766 24.0605 18.1462 23.8873L16.032 23.5898C15.8341 23.5622 15.6391 23.6252 15.4958 23.7631L13.961 25.24C13.5147 25.6696 12.9411 25.8846 12.3679 25.8847C11.7944 25.8847 11.2212 25.6696 10.7747 25.24L9.23999 23.7631C9.23999 23.7631 9.23998 23.7631 9.23998 23.7631C9.09654 23.6251 8.90147 23.5619 8.70389 23.5898L8.70385 23.5898L6.58958 23.8873C6.47942 23.9028 6.36977 23.9104 6.26166 23.9104C5.16336 23.9105 4.20705 23.1327 4.01148 22.0237L3.64258 19.9314C3.64258 19.9314 3.64257 19.9314 3.64257 19.9314C3.60813 19.7363 3.48783 19.5714 3.31154 19.4784L3.31153 19.4783L1.42527 18.4828C0.327435 17.9033 -0.105709 16.5782 0.440395 15.4669L0.530145 15.511L0.440396 15.4669L1.37817 13.5585L1.46792 13.6026L1.37817 13.5585C1.46567 13.3805 1.46567 13.1769 1.37817 12.9988L0.440444 11.0905L0.530194 11.0464L0.440444 11.0905C-0.105659 9.97912 0.327481 8.65394 1.42532 8.07455L3.31156 7.07896C3.31157 7.07896 3.31157 7.07896 3.31158 7.07896C3.48784 6.98589 3.60814 6.82098 3.64258 6.62584L4.01148 4.53369C4.22633 3.3153 5.35923 2.49679 6.58953 2.66999C6.58953 2.66999 6.58954 2.66999 6.58954 2.66999L8.70373 2.96748L21.4242 7.07885ZM21.4242 7.07885C21.2479 6.98584 21.1276 6.8209 21.0931 6.62579M21.4242 7.07885L21.0931 6.62579M14.4181 22.6541L14.3488 22.5821C14.8603 22.0898 15.5583 21.8641 16.2629 21.9634L18.3771 22.2609C18.7227 22.3094 19.0389 22.0802 19.0989 21.7396L19.4678 19.6474C19.5908 18.9497 20.0225 18.3589 20.6511 18.0271L20.6978 18.1155L20.6511 18.0271L22.5374 17.0315C22.8451 16.8691 22.9656 16.4992 22.8129 16.1884L21.8751 14.28L21.9649 14.2359L21.8751 14.28C21.5625 13.6438 21.5625 12.9132 21.8751 12.277L21.9649 12.3211L21.8751 12.277L22.8129 10.3686C22.9656 10.0579 22.8451 9.68808 22.5373 9.52566L22.584 9.43722L22.5373 9.52566L20.6511 8.53007C20.0224 8.19833 19.5908 7.6075 19.4677 6.90982L19.0988 4.81757C19.0388 4.47694 18.7223 4.24772 18.377 4.2963L18.3631 4.19728L18.377 4.2963L16.2628 4.59381C16.2628 4.59381 16.2628 4.59381 16.2628 4.59381C15.5583 4.693 14.8602 4.46739 14.3487 3.9751L12.814 2.49824C12.814 2.49823 12.814 2.49823 12.814 2.49823C12.5636 2.25732 12.1719 2.25734 11.9215 2.49823L10.3868 3.9751L10.3175 3.90305L10.3868 3.97511C9.87525 4.46734 9.17709 4.693 8.47272 4.59381L14.4181 22.6541ZM14.4181 22.6541L14.3488 22.5821L12.814 24.0589L12.8834 24.1309L12.814 24.0589C12.5637 24.2998 12.172 24.2998 11.9216 24.0589C11.9216 24.0589 11.9216 24.0589 11.9216 24.0589L10.3869 22.582C9.95466 22.1661 9.38911 21.9404 8.79884 21.9404C8.69075 21.9404 8.58183 21.9479 8.47281 21.9633L6.35855 22.2608C6.01337 22.3094 5.69686 22.0802 5.63676 21.7395L5.26781 19.6473L5.16933 19.6647L5.26781 19.6473C5.14475 18.9496 4.71312 18.3588 4.08449 18.027L2.19824 17.0314L2.15156 17.1199L2.19823 17.0314C1.89049 16.869 1.76998 16.4992 1.92265 16.1885L2.86042 14.2801L2.77067 14.236L2.86042 14.2801C3.17306 13.6438 3.17306 12.9133 2.86042 12.277L2.77067 12.3211L2.86042 12.277L1.92264 10.3686C1.76998 10.0579 1.89049 9.68808 2.19823 9.52566L2.15156 9.43722L2.19824 9.52566L4.0845 8.53007L4.0845 8.53007C4.71306 8.19823 5.14475 7.60746 5.26776 6.90977L5.63666 4.81758C5.63666 4.81757 5.63666 4.81757 5.63666 4.81757C5.69677 4.47693 6.01294 4.24776 6.35845 4.2963C6.35846 4.2963 6.35846 4.29631 6.35847 4.29631L8.47271 4.59381L14.4181 22.6541ZM21.0931 6.62579L20.7242 4.53355M21.0931 6.62579L20.7242 4.53355M20.7242 4.53355C20.5094 3.31514 19.3761 2.49674 18.1462 2.66984M20.7242 4.53355L18.1462 2.66984M18.1462 2.66984L16.0319 2.96734M18.1462 2.66984L16.0319 2.96734M16.0319 2.96734C16.0319 2.96734 16.0319 2.96734 16.0319 2.96734M16.0319 2.96734L16.0319 2.96734M16.0319 2.96734C15.834 2.99512 15.6391 2.93201 15.4958 2.79407M16.0319 2.96734L15.4958 2.79407M15.4958 2.79407L13.9611 1.3172M15.4958 2.79407L13.9611 1.3172M13.9611 1.3172C13.0678 0.457577 11.6679 0.457519 10.7747 1.3172M13.9611 1.3172L10.7747 1.3172M10.7747 1.3172L9.23993 2.79422M10.7747 1.3172L9.23993 2.79422M9.23993 2.79422C9.09658 2.93217 8.90167 2.99518 8.7038 2.96749L9.23993 2.79422Z" fill="#4A13E7" stroke="#4A13E7" strokeWidth="0.2"/>
<path d="M16.57 7.93724C16.8921 7.61676 17.4143 7.61675 17.7365 7.93724C17.7365 7.93724 17.7365 7.93724 17.7365 7.93724L17.6659 8.00813C17.9491 8.28986 17.9491 8.74652 17.6659 9.02825L16.57 7.93724ZM16.57 7.93724L6.99927 17.4579C6.67681 17.7787 6.67681 18.299 6.99927 18.6197C7.16038 18.78 7.37167 18.8601 7.58248 18.8601C7.79326 18.8601 8.00461 18.7801 8.1657 18.6197C8.16571 18.6197 8.16572 18.6197 8.16573 18.6197L17.7364 9.09915L16.57 7.93724Z" fill="#4A13E7" stroke="#4A13E7" strokeWidth="0.2"/>
<path d="M8.35882 9.43183C8.35882 10.039 8.85566 10.534 9.46728 10.534C10.0789 10.534 10.5757 10.039 10.5758 9.43183H8.35882ZM8.35882 9.43183C8.35882 8.82468 8.85566 8.32969 9.46728 8.32969M8.35882 9.43183L9.46728 8.32969M9.46728 8.32969C10.0789 8.32969 10.5758 8.82469 10.5758 9.43182L9.46728 8.32969ZM9.46728 6.68711C7.94656 6.68711 6.70859 7.91784 6.70859 9.43187C6.70859 10.9459 7.94656 12.1766 9.46728 12.1766C10.988 12.1766 12.226 10.9459 12.226 9.43187C12.226 7.91784 10.988 6.68711 9.46728 6.68711Z" fill="#4A13E7" stroke="#4A13E7" strokeWidth="0.2"/>
<path d="M15.2681 14.3805C13.7473 14.3805 12.5094 15.6112 12.5094 17.1252C12.5094 18.6393 13.7473 19.87 15.2681 19.87C16.7888 19.87 18.0267 18.6393 18.0267 17.1252C18.0267 15.6112 16.7888 14.3805 15.2681 14.3805ZM15.2681 18.2274C14.6564 18.2274 14.1595 17.7324 14.1595 17.1252C14.1595 16.5181 14.6564 16.0231 15.2681 16.0231C15.8797 16.0231 16.3765 16.5181 16.3765 17.1252C16.3765 17.7324 15.8797 18.2274 15.2681 18.2274Z" fill="#4A13E7" stroke="#4A13E7" strokeWidth="0.2"/>
</svg>
