<svg width="42" height="45" viewBox="0 0 42 45" fill="none" xmlns="http://www.w3.org/2000/svg">
<path d="M34.0231 45C23.2126 45 12.4214 45 1.61091 45C0.426987 44.4935 0 43.6169 0 42.3117C0.038817 29.1429 0.038817 15.9545 0 2.78571C0 1.46104 0.38817 0.525974 1.61091 0C9.04436 0 16.4972 0 23.9307 0C24.1636 0.175325 24.4159 0.331169 24.61 0.545455C28.1423 4.11039 31.6747 7.67532 35.1682 11.2792C35.4399 11.5519 35.5952 12.0779 35.6146 12.487C35.6534 14.9805 35.634 17.474 35.634 19.987C35.634 20.2597 35.6728 20.5519 35.6922 20.8831C36.8373 20.8831 37.9048 20.8831 38.9723 20.8831C40.9325 20.9026 42.0194 21.9935 42.0194 23.9805C42.0194 27.526 42.0194 31.0519 42.0194 34.5974C42.0194 36.9351 41.049 37.9091 38.7394 37.9091C37.7301 37.9091 36.7015 37.9091 35.634 37.9091C35.634 39.5065 35.5758 40.9481 35.6534 42.3701C35.6922 43.6364 35.207 44.513 34.0231 45ZM32.8392 20.8636C32.8392 18.3896 32.8392 16.0325 32.8392 13.6364C30.2967 13.6364 27.8512 13.6558 25.3863 13.6364C23.3872 13.6169 22.1839 12.4091 22.1451 10.4221C22.1257 9.19481 22.1451 7.94805 22.1451 6.72078C22.1451 5.43506 22.1451 4.14935 22.1451 2.84416C15.6238 2.84416 9.21904 2.84416 2.79482 2.84416C2.79482 15.9935 2.79482 29.0649 2.79482 42.2338C3.2024 42.2338 3.55176 42.2338 3.90111 42.2338C13.1784 42.2338 22.4556 42.2338 31.7329 42.2338C31.9658 42.2338 32.2181 42.2922 32.4122 42.2143C32.6063 42.1364 32.878 41.9221 32.878 41.7468C32.9168 40.5 32.8974 39.2338 32.8974 37.8701C32.4122 37.8701 32.024 37.8701 31.6553 37.8701C24.3577 37.8701 17.0407 37.8701 9.74307 37.8701C7.51109 37.8701 6.48244 36.8377 6.48244 34.5974C6.48244 31.1494 6.48244 27.7208 6.48244 24.2727C6.48244 21.8766 7.51109 20.8442 9.91775 20.8442C17.1571 20.8442 24.3965 20.8442 31.6359 20.8442C32.024 20.8636 32.3928 20.8636 32.8392 20.8636ZM19.8355 30.8377C20.0102 32.0649 20.476 33.039 21.6405 33.4481C22.9797 33.9156 24.3771 33.9351 25.7357 33.4481C26.8808 33.039 27.4824 32.1234 27.5601 30.9351C27.6377 29.8831 26.9972 28.9675 25.8133 28.5195C25.0758 28.2273 24.2606 28.1299 23.5037 27.8377C23.1738 27.7208 22.9409 27.3506 22.6691 27.1169C23.0573 26.961 23.4261 26.6688 23.8142 26.6883C24.1248 26.7078 24.4159 27.0779 24.707 27.3117C24.8623 27.4286 25.0176 27.6623 25.1728 27.6623C25.8715 27.6623 26.5508 27.6039 27.2884 27.5455C27.1525 26.3182 26.6091 25.461 25.5804 25.2857C24.3965 25.0909 23.1543 25.0909 21.9704 25.2857C20.9612 25.4416 20.3013 26.2403 20.2431 27.3506C20.1848 28.3831 20.6506 29.1429 21.7375 29.5909C22.5139 29.9221 23.329 30.1169 24.1248 30.3506C24.6682 30.526 25.1922 30.8377 24.9011 31.4221C24.7264 31.7532 23.9889 32.1234 23.6784 32.0065C23.0961 31.7922 22.6303 31.2468 21.9122 30.6818C21.427 30.7208 20.6506 30.7792 19.8355 30.8377ZM18.8651 27.6429C18.2634 25.5584 16.4972 24.6039 14.1682 25.0325C11.8004 25.461 10.597 27.1169 10.7523 29.7662C10.8882 32.2208 12.402 33.6818 14.9445 33.7987C17.1765 33.8961 18.6322 32.8442 18.9427 30.8377C18.2246 30.6234 17.5065 30.4091 16.7689 30.1948C16.6719 30.4091 16.6137 30.526 16.5749 30.6429C16.2837 31.5 15.7015 31.8896 14.7893 31.7727C13.8771 31.6558 13.5471 31.013 13.4695 30.2143C13.4113 29.5714 13.3531 28.8701 13.5665 28.2857C13.7606 27.7792 14.2653 27.2727 14.7505 27.0584C15.3715 26.7857 15.9926 27.0584 16.4196 27.6818C16.5555 27.8766 16.9242 28.0325 17.1765 28.013C17.7588 27.9545 18.3022 27.7792 18.8651 27.6429ZM37.2061 25.1299C36.5462 25.1299 36.0028 25.1883 35.4593 25.1104C34.7412 25.0325 34.4501 25.3052 34.256 25.987C33.8096 27.6234 33.2856 29.2403 32.781 30.8571C32.2181 29.6883 31.8299 28.5 31.4806 27.3117C30.7819 25.013 30.7819 25.013 28.3558 25.1299C28.2976 25.1299 28.2394 25.1688 28.1035 25.1883C28.1811 25.4221 28.2394 25.6753 28.3364 25.9091C29.0545 27.8377 29.7921 29.7857 30.5102 31.7143C31.2477 33.7013 31.2477 33.6623 33.305 33.6818C33.8872 33.6818 34.159 33.5065 34.3531 32.961C35.0324 31.013 35.7699 29.0844 36.488 27.1364C36.7403 26.513 36.9538 25.8701 37.2061 25.1299ZM24.5906 3.64286C24.5906 5.74675 24.5712 7.98701 24.61 10.2078C24.6294 10.8896 25.0952 11.2403 25.7745 11.2403C26.7837 11.2403 27.7736 11.2403 28.7828 11.2403C29.9279 11.2403 31.073 11.2403 32.4122 11.2403C29.695 8.61039 27.1525 6.13636 24.5906 3.64286Z" fill="black"/>
</svg>
