<svg width="25" height="25" viewBox="0 0 25 25" fill="none" xmlns="http://www.w3.org/2000/svg">
<path d="M12.9878 10.1511C14.8595 10.1511 16.3769 8.6337 16.3769 6.76193C16.3769 4.89017 14.8595 3.3728 12.9878 3.3728C11.116 3.3728 9.59863 4.89017 9.59863 6.76193C9.59863 8.6337 11.116 10.1511 12.9878 10.1511Z" fill="#4B4B4B"/>
<path d="M19.8447 10.1511C21.028 10.1511 21.9873 9.19182 21.9873 8.00852C21.9873 6.82522 21.028 5.86597 19.8447 5.86597C18.6614 5.86597 17.7021 6.82522 17.7021 8.00852C17.7021 9.19182 18.6614 10.1511 19.8447 10.1511Z" fill="#4B4B4B"/>
<path d="M6.13181 10.1511C7.31511 10.1511 8.27436 9.19182 8.27436 8.00852C8.27436 6.82522 7.31511 5.86597 6.13181 5.86597C4.94851 5.86597 3.98926 6.82522 3.98926 8.00852C3.98926 9.19182 4.94851 10.1511 6.13181 10.1511Z" fill="#4B4B4B"/>
<path d="M8.24306 12.075C7.39968 11.384 6.63588 11.4754 5.6607 11.4754C4.20221 11.4754 3.01562 12.655 3.01562 14.1046V18.3589C3.01562 18.9884 3.52945 19.5003 4.16131 19.5003C6.8892 19.5003 6.56058 19.5496 6.56058 19.3826C6.56058 16.368 6.20351 14.1573 8.24306 12.075Z" fill="#4B4B4B"/>
<path d="M13.9156 11.491C12.2123 11.349 10.7318 11.4927 9.45476 12.5467C7.31778 14.2584 7.72903 16.5632 7.72903 19.3826C7.72903 20.1286 8.33596 20.7469 9.09325 20.7469C17.3161 20.7469 17.6433 21.0121 18.1309 19.9323C18.2908 19.5671 18.247 19.6832 18.247 16.1898C18.247 13.4152 15.8445 11.491 13.9156 11.491Z" fill="#4B4B4B"/>
<path d="M20.3158 11.4756C19.3352 11.4756 18.5757 11.3851 17.7334 12.0751C19.7577 14.1419 19.4159 16.2019 19.4159 19.3828C19.4159 19.5508 19.1431 19.5004 21.7743 19.5004C22.4287 19.5004 22.9608 18.9702 22.9608 18.3185V14.1047C22.9608 12.6552 21.7743 11.4756 20.3158 11.4756Z" fill="#4B4B4B"/>
</svg>
