<svg xmlns="http://www.w3.org/2000/svg" width="46" height="46" viewBox="0 0 46 46" fill="none">
  <rect x="0.787109" y="0.953125" width="44.5312" height="44.5312" rx="8" fill="white"/>
  <path d="M29.9883 16.0931C29.9883 14.9229 29.04 13.9746 27.8698 13.9746H18.2405C17.0704 13.9746 16.1221 14.9229 16.1221 16.0931V30.3444C16.1221 31.5146 17.0704 32.4629 18.2405 32.4629H27.8698C29.04 32.4629 29.9883 31.5146 29.9883 30.3444V16.0931ZM20.6517 21.1003H20.0662C19.1657 21.1003 18.4331 20.3677 18.4331 19.4672C18.4331 18.6575 19.017 17.9912 19.7812 17.8556V17.2486C19.7812 16.9297 20.04 16.6708 20.359 16.6708C20.6779 16.6708 20.9367 16.9297 20.9367 17.2486V17.8263H21.7071C22.026 17.8263 22.2848 18.0852 22.2848 18.4041C22.2848 18.723 22.026 18.9819 21.7071 18.9819H20.0662C19.8028 18.9819 19.5886 19.196 19.5886 19.4595C19.5886 19.7306 19.8028 19.9448 20.0662 19.9448H20.6517C21.5522 19.9448 22.2848 20.6774 22.2848 21.5779C22.2848 22.3875 21.7009 23.0539 20.9367 23.1895V23.7957C20.9367 24.1147 20.6779 24.3735 20.359 24.3735C20.04 24.3735 19.7812 24.1147 19.7812 23.7957V23.2188H19.0109C18.6919 23.2188 18.4331 22.9599 18.4331 22.641C18.4331 22.3221 18.6919 22.0632 19.0109 22.0632H20.6517C20.9152 22.0632 21.1293 21.8491 21.1293 21.5856C21.1293 21.3145 20.9152 21.1003 20.6517 21.1003ZM27.0995 30.1519H19.0109C18.6919 30.1519 18.4331 29.893 18.4331 29.5741C18.4331 29.2552 18.6919 28.9963 19.0109 28.9963H27.0995C27.4184 28.9963 27.6772 29.2552 27.6772 29.5741C27.6772 29.893 27.4184 30.1519 27.0995 30.1519ZM27.0995 27.0705H19.0109C18.6919 27.0705 18.4331 26.8116 18.4331 26.4927C18.4331 26.1738 18.6919 25.915 19.0109 25.915H27.0995C27.4184 25.915 27.6772 26.1738 27.6772 26.4927C27.6772 26.8116 27.4184 27.0705 27.0995 27.0705ZM27.0995 23.9891H24.4033C24.0844 23.9891 23.8255 23.7303 23.8255 23.4113C23.8255 23.0924 24.0844 22.8336 24.4033 22.8336H27.0995C27.4184 22.8336 27.6772 23.0924 27.6772 23.4113C27.6772 23.7303 27.4184 23.9891 27.0995 23.9891ZM27.0995 20.9077H24.4033C24.0844 20.9077 23.8255 20.6489 23.8255 20.33C23.8255 20.011 24.0844 19.7522 24.4033 19.7522H27.0995C27.4184 19.7522 27.6772 20.011 27.6772 20.33C27.6772 20.6489 27.4184 20.9077 27.0995 20.9077Z" fill="url(#paint0_linear_3632_88786)"/>
  <defs>
    <linearGradient id="paint0_linear_3632_88786" x1="16.1256" y1="23.2143" x2="29.9952" y2="23.2143" gradientUnits="userSpaceOnUse">
      <stop stop-color="#FF3671"/>
      <stop offset="1" stop-color="#FE9841"/>
    </linearGradient>
  </defs>
</svg>