<svg xmlns="http://www.w3.org/2000/svg" width="13" height="12" viewBox="0 0 13 12" fill="none">
  <path d="M10.9496 1.44706H9.7394V0.897357C9.7394 0.751567 9.67565 0.611749 9.56218 0.50866C9.4487 0.405571 9.2948 0.347656 9.13432 0.347656C8.97384 0.347656 8.81993 0.405571 8.70645 0.50866C8.59298 0.611749 8.52923 0.751567 8.52923 0.897357V1.44706H4.8987V0.897357C4.8987 0.751567 4.83495 0.611749 4.72147 0.50866C4.608 0.405571 4.45409 0.347656 4.29361 0.347656C4.13313 0.347656 3.97923 0.405571 3.86575 0.50866C3.75228 0.611749 3.68853 0.751567 3.68853 0.897357V1.44706H2.47835C1.99691 1.44706 1.53519 1.6208 1.19476 1.93007C0.854336 2.23933 0.663086 2.65879 0.663086 3.09616V9.69256C0.663086 10.1299 0.854336 10.5494 1.19476 10.8587C1.53519 11.1679 1.99691 11.3417 2.47835 11.3417H10.9496C11.431 11.3417 11.8927 11.1679 12.2332 10.8587C12.5736 10.5494 12.7648 10.1299 12.7648 9.69256V3.09616C12.7648 2.65879 12.5736 2.23933 12.2332 1.93007C11.8927 1.6208 11.431 1.44706 10.9496 1.44706ZM11.5547 9.69256C11.5547 9.83835 11.4909 9.97817 11.3774 10.0813C11.264 10.1843 11.1101 10.2423 10.9496 10.2423H2.47835C2.31787 10.2423 2.16396 10.1843 2.05049 10.0813C1.93701 9.97817 1.87326 9.83835 1.87326 9.69256V5.84466H11.5547V9.69256ZM11.5547 4.74526H1.87326V3.09616C1.87326 2.95037 1.93701 2.81055 2.05049 2.70746C2.16396 2.60437 2.31787 2.54646 2.47835 2.54646H3.68853V3.09616C3.68853 3.24195 3.75228 3.38177 3.86575 3.48485C3.97923 3.58794 4.13313 3.64586 4.29361 3.64586C4.45409 3.64586 4.608 3.58794 4.72147 3.48485C4.83495 3.38177 4.8987 3.24195 4.8987 3.09616V2.54646H8.52923V3.09616C8.52923 3.24195 8.59298 3.38177 8.70645 3.48485C8.81993 3.58794 8.97384 3.64586 9.13432 3.64586C9.2948 3.64586 9.4487 3.58794 9.56218 3.48485C9.67565 3.38177 9.7394 3.24195 9.7394 3.09616V2.54646H10.9496C11.1101 2.54646 11.264 2.60437 11.3774 2.70746C11.4909 2.81055 11.5547 2.95037 11.5547 3.09616V4.74526Z" fill="#4B4B4B"/>
</svg>