<svg width="78" height="88" viewBox="0 0 78 88" fill="none" xmlns="http://www.w3.org/2000/svg">
<path d="M10.0556 77.9495C9.93746 77.9495 9.82145 77.9174 9.72015 77.8565C9.61884 77.7956 9.53606 77.7081 9.48105 77.6038L4.25681 67.7437C4.1762 67.592 4.15986 67.4143 4.21051 67.2501C4.26116 67.086 4.375 66.9484 4.5275 66.868C4.67945 66.7875 4.85755 66.7712 5.02204 66.8218C5.18652 66.8723 5.32431 66.9859 5.40492 67.1381L10.6292 76.9982C10.6689 77.0732 10.6934 77.1558 10.7016 77.2406C10.7098 77.3254 10.7005 77.4108 10.6755 77.4918C10.6504 77.5733 10.6096 77.6489 10.5551 77.7147C10.5006 77.7799 10.4342 77.8342 10.3585 77.8739C10.2653 77.9234 10.1613 77.9495 10.0556 77.9495Z" fill="#FE9244"/>
<path d="M11.3647 84.7075C11.2541 84.7075 11.1457 84.6792 11.0488 84.6254C10.9524 84.5716 10.8712 84.4944 10.8129 84.4004L6.12627 76.8576C6.03586 76.7109 6.00699 76.5347 6.04675 76.3673C6.08651 76.1993 6.19108 76.0547 6.33813 75.964C6.48464 75.8737 6.66165 75.8449 6.82941 75.8846C6.99716 75.9243 7.14258 76.0287 7.23299 76.1754L11.9208 83.7171C11.9818 83.8155 12.0155 83.928 12.0188 84.0438C12.0215 84.159 11.9937 84.2732 11.9371 84.3743C11.881 84.4754 11.7982 84.5597 11.6985 84.6178C11.5989 84.6765 11.485 84.7075 11.369 84.7075H11.3647Z" fill="#FF376F"/>
<path d="M74.3517 45.1737C74.1839 45.1737 74.0222 45.109 73.9013 44.9932C73.7804 44.8774 73.709 44.7193 73.7025 44.5518L73.1431 30.784C73.136 30.6122 73.1976 30.4448 73.3141 30.3181C73.4312 30.1915 73.5935 30.117 73.7657 30.1099C73.9378 30.1029 74.1055 30.1643 74.2324 30.2812C74.3593 30.398 74.4345 30.5595 74.441 30.7312L75.0004 44.4991C75.0042 44.5845 74.9906 44.6693 74.9612 44.7492C74.9317 44.8291 74.8871 44.9025 74.8288 44.965C74.7711 45.0275 74.7014 45.078 74.624 45.1139C74.5467 45.1498 74.4628 45.1699 74.3773 45.1732L74.3517 45.1742V45.1737Z" fill="#FF376F"/>
<path d="M76.1168 48.5431H76.0792C75.9937 48.5382 75.9103 48.517 75.8335 48.4795C75.7567 48.4425 75.6881 48.3909 75.6315 48.3273C75.5743 48.2637 75.5307 48.1898 75.5029 48.1093C75.4746 48.0289 75.4626 47.9435 75.4681 47.8587L76.0269 38.1003C76.0372 37.9285 76.1151 37.7676 76.2437 37.653C76.3722 37.5383 76.5416 37.4795 76.7137 37.4893C76.8858 37.4991 77.047 37.5768 77.1614 37.7051C77.2763 37.8334 77.3351 38.0025 77.3253 38.1742L76.766 47.9332C76.7562 48.0984 76.6837 48.2534 76.5628 48.367C76.4424 48.4806 76.2829 48.5436 76.1168 48.5431Z" fill="#C50EE0"/>
<path d="M60.9805 25.3259H51.3156V22.9788C51.3156 19.5528 48.5285 16.7656 45.1025 16.7656H34.0568C30.6309 16.7656 27.8437 19.5528 27.8437 22.9788V25.3259H18.1788C14.3662 25.3259 11.2754 28.4166 11.2754 32.2293V32.9196C11.2754 34.0633 12.2026 34.9907 13.3465 34.9907H65.8128C66.9565 34.9907 67.8839 34.0635 67.8839 32.9196V32.2293C67.8839 28.4166 64.7932 25.3259 60.9805 25.3259ZM31.9859 22.9788C31.9859 21.8367 32.915 20.9076 34.0571 20.9076H45.1027C46.2448 20.9076 47.1739 21.8367 47.1739 22.9788V25.3259H31.9862L31.9859 22.9788ZM16.504 80.2966C16.7334 84.312 20.0636 87.4573 24.0853 87.4573H55.0738C59.0955 87.4573 62.4257 84.312 62.6551 80.2966L65.0074 39.1327H14.1517L16.504 80.2966ZM53.6798 48.7269C53.7189 47.5839 54.6775 46.6888 55.8205 46.7281C56.9637 46.7672 57.8586 47.7258 57.8193 48.869L56.8252 77.8636C56.7861 79.0066 55.8275 79.9017 54.6845 79.8624C53.5413 79.8233 52.6464 78.8647 52.6857 77.7215L53.6798 48.7269ZM42.8989 48.7742C42.912 47.6305 43.8497 46.7138 44.9934 46.7269C46.1371 46.74 47.0538 47.6778 47.0407 48.8215L46.7092 77.816C46.6961 78.9598 45.7584 79.8764 44.6147 79.8633C43.471 79.8502 42.5543 78.9125 42.5674 77.7688L42.8989 48.7742ZM34.1659 46.7269C35.3096 46.7138 36.2476 47.6305 36.2604 48.7742L36.5919 77.7688C36.605 78.9125 35.6883 79.8502 34.5446 79.8633C33.4009 79.8764 32.463 78.9598 32.4501 77.816L32.1187 48.8215C32.1055 47.6778 33.0222 46.74 34.1659 46.7269ZM23.3388 46.7279C24.4819 46.6888 25.4404 47.5837 25.4795 48.7267L26.4736 77.7212C26.5127 78.8645 25.6178 79.8228 24.4748 79.8621C23.3318 79.9012 22.3733 79.0063 22.3342 77.8633L21.3401 48.8688C21.3007 47.7255 22.1956 46.7672 23.3388 46.7279Z" fill="#4A13E7"/>
<path d="M66.2312 15.8834C65.9744 16.14 65.5544 16.14 65.2976 15.8834L61.7042 12.2896C61.4476 12.0328 61.4476 11.6128 61.7042 11.356L67.4536 5.6065C67.7102 5.34992 68.1307 5.34992 68.3872 5.6065L71.9811 9.20014C72.2379 9.45714 72.2379 9.87695 71.9811 10.134L66.2312 15.8834Z" fill="url(#paint0_linear_1425_52966)"/>
<path d="M72.0339 4.19288C71.6131 4.19288 71.1988 4.02197 70.9016 3.72308C70.6028 3.42399 70.4316 3.01166 70.4316 2.59058C70.4316 2.16779 70.6028 1.75546 70.9016 1.45615C71.1988 1.15919 71.6131 0.988281 72.0339 0.988281C72.455 0.988281 72.8693 1.1594 73.1664 1.45615C73.4653 1.75525 73.6362 2.16757 73.6362 2.59058C73.6362 3.01166 73.4653 3.42377 73.1664 3.72308C72.8695 4.02218 72.455 4.19288 72.0339 4.19288Z" fill="url(#paint1_linear_1425_52966)"/>
<path d="M55.6628 13.9507C55.242 13.9507 54.8277 13.7798 54.5306 13.4809C54.2317 13.1818 54.0605 12.7695 54.0605 12.3484C54.0605 11.9256 54.2317 11.5133 54.5306 11.214C54.8277 10.917 55.242 10.7461 55.6628 10.7461C56.0839 10.7461 56.4982 10.9172 56.7954 11.214C57.0942 11.5131 57.2651 11.9254 57.2651 12.3484C57.2651 12.7695 57.0942 13.1816 56.7954 13.4809C56.4984 13.78 56.0839 13.9507 55.6628 13.9507Z" fill="url(#paint2_linear_1425_52966)"/>
<path d="M10.9327 17.9635C10.9327 18.3265 10.6357 18.6239 10.2725 18.6239H2.91817C2.55499 18.6239 2.25781 18.3265 2.25781 17.9635V10.6096C2.25781 10.2466 2.55499 9.94922 2.91817 9.94922H10.2725C10.6357 9.94922 10.9327 10.2466 10.9327 10.6096V17.9635Z" fill="url(#paint3_linear_1425_52966)"/>
<path d="M2.58277 26.0405C2.15976 26.0405 1.74744 25.8696 1.44813 25.5705C1.15117 25.2736 0.980469 24.8593 0.980469 24.4382C0.980469 24.0174 1.15138 23.6029 1.44813 23.3059C1.74722 23.0068 2.15955 22.8359 2.58277 22.8359C3.00364 22.8359 3.41575 23.0068 3.71506 23.3059C4.01416 23.6029 4.18507 24.0174 4.18507 24.4382C4.18507 24.8612 4.01416 25.2736 3.71506 25.5705C3.41596 25.8698 3.00364 26.0405 2.58277 26.0405Z" fill="#FE9244"/>
<path d="M15.1824 10.1421C14.7615 10.1421 14.347 9.97119 14.0501 9.67209C13.751 9.37513 13.5801 8.96067 13.5801 8.5398C13.5801 8.11679 13.751 7.70447 14.0501 7.40751C14.347 7.10841 14.7592 6.9375 15.1824 6.9375C15.6056 6.9375 16.0177 7.10841 16.3147 7.40751C16.6138 7.70447 16.7847 8.11658 16.7847 8.5398C16.7847 8.96067 16.6138 9.373 16.3147 9.67209C16.0177 9.97119 15.6054 10.1421 15.1824 10.1421Z" fill="#FE9244"/>
<defs>
<linearGradient id="paint0_linear_1425_52966" x1="61.5144" y1="10.7424" x2="72.179" y2="10.7424" gradientUnits="userSpaceOnUse">
<stop stop-color="#FF3671"/>
<stop offset="1" stop-color="#FE9841"/>
</linearGradient>
<linearGradient id="paint1_linear_1425_52966" x1="72.0353" y1="1.38725" x2="72.0353" y2="3.02197" gradientUnits="userSpaceOnUse">
<stop offset="5.32779e-09" stop-color="#4A13E7"/>
<stop offset="1" stop-color="#7B18FF"/>
</linearGradient>
<linearGradient id="paint2_linear_1425_52966" x1="55.6642" y1="11.1451" x2="55.6642" y2="12.7798" gradientUnits="userSpaceOnUse">
<stop offset="5.32779e-09" stop-color="#4A13E7"/>
<stop offset="1" stop-color="#7B18FF"/>
</linearGradient>
<linearGradient id="paint3_linear_1425_52966" x1="0.632967" y1="14.2877" x2="10.2336" y2="14.2877" gradientUnits="userSpaceOnUse">
<stop stop-color="#B503FE"/>
<stop offset="1" stop-color="#FF376F"/>
</linearGradient>
</defs>
</svg>
