<svg width="41" height="41" viewBox="0 0 41 41" fill="none" xmlns="http://www.w3.org/2000/svg">
<rect x="0.958984" y="1.27246" width="39.2105" height="39" rx="7.5" fill="white" stroke="#ED2F2F"/>
<path d="M24.507 13.1081H26.7711H26.7712C27.7085 13.1083 28.4984 13.8133 28.6194 14.7531L28.6194 14.7531C28.7368 15.6671 28.1868 16.5306 27.3237 16.8016V28.2666C27.3237 28.9723 27.0686 29.6378 26.6194 30.1172C26.1721 30.5981 25.5492 30.8713 24.8967 30.8725H24.8965H16.1601H16.1599C15.5076 30.8713 14.8847 30.5981 14.4373 30.1172C13.988 29.6378 13.7329 28.9723 13.7329 28.2666V16.8016C12.8698 16.5306 12.3198 15.6671 12.4372 14.7531L12.4372 14.7531C12.5582 13.8133 13.3481 13.1083 14.2855 13.1081H14.2855H16.5496V12.6229V12.6226L24.507 13.1081ZM24.507 13.1081V12.6228M24.507 13.1081V12.6228M24.507 12.6228V12.6226H24.407L24.507 12.6228ZM17.6731 12.6226H17.6731L17.6731 12.6214C17.6704 12.4041 17.7546 12.1952 17.9062 12.0422L17.9063 12.0422C18.0576 11.8893 18.2633 11.8055 18.4765 11.8093L18.4765 11.8093H18.4782H22.5784V11.8093L22.5802 11.8093C22.7933 11.8055 22.999 11.8893 23.1504 12.0422L23.1504 12.0423C23.302 12.195 23.3863 12.4041 23.3835 12.6214L23.3835 12.6214V12.6226V13.1081H17.6731V12.6226ZM23.2524 17.9186C22.9408 17.9186 22.6907 18.1744 22.6907 18.4869V27.3394C22.6907 27.6517 22.9408 27.9078 23.2524 27.9078C23.564 27.9078 23.8142 27.6517 23.8142 27.3394V18.4869C23.8142 18.1744 23.564 17.9186 23.2524 17.9186ZM17.804 17.9186C17.4924 17.9186 17.2422 18.1744 17.2422 18.4869V27.3394C17.2422 27.6517 17.4923 27.9078 17.804 27.9078C18.1156 27.9078 18.3657 27.6517 18.3657 27.3394V18.4869C18.3657 18.1744 18.1156 17.9186 17.804 17.9186ZM24.8965 29.7357H16.1601C15.4361 29.7357 14.8564 29.1034 14.8564 28.2666V16.8678H26.2002V28.2666C26.2002 29.1034 25.6206 29.7357 24.8965 29.7357ZM14.2855 14.2449H26.7711C27.1736 14.2449 27.5023 14.5762 27.5023 14.988C27.5023 15.3997 27.1736 15.7311 26.7711 15.7311H14.2855C13.883 15.7311 13.5543 15.3997 13.5543 14.988C13.5543 14.5762 13.883 14.2449 14.2855 14.2449ZM20.5279 17.9186C20.2162 17.9186 19.9661 18.1744 19.9661 18.4869V27.3394C19.9661 27.6517 20.2162 27.9078 20.5279 27.9078C20.8395 27.9078 21.0896 27.6517 21.0896 27.3394V18.4869C21.0896 18.1744 20.8395 17.9186 20.5279 17.9186Z" fill="#ED2F2F" stroke="#ED2F2F" strokeWidth="0.2"/>
</svg>
