<svg width="132" height="132" viewBox="0 0 132 132" fill="none" xmlns="http://www.w3.org/2000/svg">
<g clipPath="url(#clip0_4083_92994)">
<g clipPath="url(#clip1_4083_92994)">
<path d="M112.715 23.1484H39.4937C33.5214 23.1484 28.6799 27.8627 28.6799 33.6779V120.839C28.6799 126.655 33.5214 131.369 39.4937 131.369H112.715C118.687 131.369 123.529 126.655 123.529 120.839V33.6779C123.529 27.8627 118.687 23.1484 112.715 23.1484Z" fill="#4A13E7"/>
<path fillRule="evenodd" clipRule="evenodd" d="M76.1945 44C77.4534 44 78.4739 45.0205 78.4739 46.2794V68.1292L85.9797 60.6234C86.8699 59.7333 88.3131 59.7333 89.2033 60.6234C90.0935 61.5136 90.0935 62.9568 89.2033 63.847L77.8063 75.244C76.9161 76.1341 75.4729 76.1341 74.5828 75.244L63.1858 63.847C62.2956 62.9568 62.2956 61.5136 63.1858 60.6234C64.0759 59.7333 65.5191 59.7333 66.4093 60.6234L73.9151 68.1292V46.2794C73.9151 45.0205 74.9356 44 76.1945 44ZM57.9593 73.6322C59.2182 73.6322 60.2387 74.6527 60.2387 75.9116V80.4704C60.2387 81.0749 60.4789 81.6547 60.9064 82.0822C61.3338 82.5096 61.9136 82.7498 62.5181 82.7498H89.8709C90.4755 82.7498 91.0552 82.5096 91.4827 82.0822C91.9102 81.6547 92.1503 81.0749 92.1503 80.4704V75.9116C92.1503 74.6527 93.1708 73.6322 94.4297 73.6322C95.6886 73.6322 96.7091 74.6527 96.7091 75.9116V80.4704C96.7091 82.284 95.9887 84.0233 94.7063 85.3057C93.4239 86.5881 91.6845 87.3086 89.8709 87.3086H62.5181C60.7045 87.3086 58.9652 86.5881 57.6828 85.3057C56.4004 84.0233 55.6799 82.284 55.6799 80.4704V75.9116C55.6799 74.6527 56.7005 73.6322 57.9593 73.6322Z" fill="white"/>
<path d="M53.1787 103.608H102.438" stroke="white" stroke-width="3.7932" stroke-miterlimit="10" stroke-linecap="round"/>
<path d="M61.0659 111.679H94.5516" stroke="white" stroke-width="3.7932" stroke-miterlimit="10" stroke-linecap="round"/>
</g>
</g>
<defs>
<clipPath id="clip0_4083_92994">
<rect width="131" height="131.654" fill="white" transform="translate(0.425781 0.1875)"/>
</clipPath>
<clipPath id="clip1_4083_92994">
<rect width="94.849" height="110.017" fill="white" transform="translate(29.0901 23.1484)"/>
</clipPath>
</defs>
</svg>
