<svg width="41" height="41" viewBox="0 0 41 41" fill="none" xmlns="http://www.w3.org/2000/svg">
<rect x="1.03516" y="1.3125" width="39.2105" height="39" rx="7.5" fill="white" stroke="#C7C7C7"/>
<path fill-rule="evenodd" clip-rule="evenodd" d="M20.6406 11.5645C21.1783 11.5645 21.6141 12.0003 21.6141 12.538V21.87L24.8199 18.6643C25.2 18.2841 25.8164 18.2841 26.1966 18.6643C26.5768 19.0444 26.5768 19.6608 26.1966 20.041L21.329 24.9087C20.9488 25.2888 20.3324 25.2888 19.9522 24.9087L15.0846 20.041C14.7044 19.6608 14.7044 19.0444 15.0846 18.6643C15.4648 18.2841 16.0812 18.2841 16.4614 18.6643L19.6671 21.87V12.538C19.6671 12.0003 20.103 11.5645 20.6406 11.5645ZM12.8524 24.2203C13.3901 24.2203 13.826 24.6561 13.826 25.1938V27.1408C13.826 27.399 13.9285 27.6467 14.1111 27.8292C14.2937 28.0118 14.5413 28.1144 14.7995 28.1144H26.4818C26.74 28.1144 26.9876 28.0118 27.1702 27.8292C27.3527 27.6467 27.4553 27.399 27.4553 27.1408V25.1938C27.4553 24.6561 27.8912 24.2203 28.4288 24.2203C28.9665 24.2203 29.4023 24.6561 29.4023 25.1938V27.1408C29.4023 27.9154 29.0946 28.6583 28.5469 29.206C27.9992 29.7537 27.2564 30.0614 26.4818 30.0614H14.7995C14.0249 30.0614 13.282 29.7537 12.7343 29.206C12.1866 28.6583 11.8789 27.9154 11.8789 27.1408V25.1938C11.8789 24.6561 12.3148 24.2203 12.8524 24.2203Z" fill="#4B4B4B"/>
</svg>
