<svg width="42" height="41" viewBox="0 0 42 41" fill="none" xmlns="http://www.w3.org/2000/svg">
<rect x="1.44922" y="1.3125" width="39.2105" height="39" rx="7.5" fill="white" stroke="#C7C7C7"/>
<path fill-rule="evenodd" clip-rule="evenodd" d="M21.0547 11.5645C21.5924 11.5645 22.0282 12.0003 22.0282 12.538V21.87L25.2339 18.6643C25.6141 18.2841 26.2305 18.2841 26.6107 18.6643C26.9909 19.0444 26.9909 19.6608 26.6107 20.041L21.7431 24.9087C21.3629 25.2888 20.7465 25.2888 20.3663 24.9087L15.4987 20.041C15.1185 19.6608 15.1185 19.0444 15.4987 18.6643C15.8789 18.2841 16.4953 18.2841 16.8755 18.6643L20.0812 21.87V12.538C20.0812 12.0003 20.517 11.5645 21.0547 11.5645ZM13.2665 24.2203C13.8042 24.2203 14.24 24.6561 14.24 25.1938V27.1408C14.24 27.399 14.3426 27.6467 14.5252 27.8292C14.7077 28.0118 14.9553 28.1144 15.2135 28.1144H26.8958C27.154 28.1144 27.4016 28.0118 27.5842 27.8292C27.7668 27.6467 27.8694 27.399 27.8694 27.1408V25.1938C27.8694 24.6561 28.3052 24.2203 28.8429 24.2203C29.3805 24.2203 29.8164 24.6561 29.8164 25.1938V27.1408C29.8164 27.9154 29.5087 28.6583 28.961 29.206C28.4133 29.7537 27.6704 30.0614 26.8958 30.0614H15.2135C14.439 30.0614 13.6961 29.7537 13.1484 29.206C12.6007 28.6583 12.293 27.9154 12.293 27.1408V25.1938C12.293 24.6561 12.7288 24.2203 13.2665 24.2203Z" fill="#4B4B4B"/>
</svg>
