<svg width="16" height="16" viewBox="0 0 16 16" fill="none" xmlns="http://www.w3.org/2000/svg">
<g clip-path="url(#clip0_6607_67932)">
<path d="M13.9346 2.54688H1.69631C0.924717 2.54688 0.31543 3.17354 0.31543 3.92775V11.9297C0.31543 12.7013 0.94209 13.3105 1.69631 13.3105H13.9346C14.7061 13.3105 15.3154 12.6839 15.3154 11.9297V3.92775C15.3154 3.15613 14.6888 2.54688 13.9346 2.54688ZM14.4365 11.9297C14.4365 12.2067 14.2122 12.4316 13.9346 12.4316H1.69631C1.41928 12.4316 1.19434 12.2073 1.19434 11.9297V3.92775C1.19434 3.65072 1.41869 3.42578 1.69631 3.42578H13.9346C14.2116 3.42578 14.4365 3.65014 14.4365 3.92775V11.9297Z" fill="#4B4B4B"/>
<path d="M6.19649 9.004C6.45185 8.7181 6.60744 8.34131 6.60744 7.92872C6.60744 7.03754 5.8824 6.3125 4.99122 6.3125C4.10004 6.3125 3.37503 7.03754 3.37503 7.92872C3.37503 8.34131 3.53062 8.7181 3.78595 9.00397C3.11672 9.41196 2.66895 10.1488 2.66895 10.9883C2.66895 11.231 2.8657 11.4277 3.1084 11.4277H6.87401C7.11671 11.4277 7.31347 11.231 7.31347 10.9883C7.31347 10.1488 6.86569 9.41199 6.19649 9.004ZM4.99122 7.19141C5.39777 7.19141 5.72854 7.52217 5.72854 7.92872C5.72854 8.33527 5.39777 8.66604 4.99122 8.66604C4.58467 8.66604 4.25394 8.33527 4.25394 7.92872C4.25394 7.52217 4.58467 7.19141 4.99122 7.19141ZM3.61623 10.5489C3.80256 9.9672 4.34851 9.54494 4.99122 9.54494C5.63394 9.54494 6.17985 9.96717 6.36621 10.5489H3.61623Z" fill="#4B4B4B"/>
<path d="M12.5225 6.7832H9.22754C8.98484 6.7832 8.78809 6.97996 8.78809 7.22266C8.78809 7.46535 8.98484 7.66211 9.22754 7.66211H12.5225C12.7652 7.66211 12.9619 7.46535 12.9619 7.22266C12.9619 6.97996 12.7652 6.7832 12.5225 6.7832Z" fill="#4B4B4B"/>
<path d="M12.5225 4.42966H3.1084C2.8657 4.42966 2.66895 4.62641 2.66895 4.86911C2.66895 5.11181 2.8657 5.30856 3.1084 5.30856H12.5225C12.7652 5.30856 12.9619 5.11181 12.9619 4.86911C12.9619 4.62641 12.7652 4.42966 12.5225 4.42966Z" fill="#4B4B4B"/>
<path d="M12.5225 8.66602H9.22754C8.98484 8.66602 8.78809 8.86277 8.78809 9.10547C8.78809 9.34816 8.98484 9.54492 9.22754 9.54492H12.5225C12.7652 9.54492 12.9619 9.34816 12.9619 9.10547C12.9619 8.86277 12.7652 8.66602 12.5225 8.66602Z" fill="#4B4B4B"/>
<path d="M11.581 10.5489H9.22754C8.98484 10.5489 8.78809 10.7456 8.78809 10.9883C8.78809 11.231 8.98484 11.4278 9.22754 11.4278H11.581C11.8237 11.4278 12.0205 11.231 12.0205 10.9883C12.0205 10.7456 11.8237 10.5489 11.581 10.5489Z" fill="#4B4B4B"/>
</g>
<defs>
<clipPath id="clip0_6607_67932">
<rect width="15" height="15" fill="white" transform="translate(0.31543 0.428711)"/>
</clipPath>
</defs>
</svg>
