<svg width="33" height="33" viewBox="0 0 33 33" fill="none" xmlns="http://www.w3.org/2000/svg">
<rect x="0.929688" y="0.69043" width="31.1684" height="31" rx="7.5" fill="white" stroke="#C7C7C7"/>
<path d="M19.9739 15.499C19.9739 15.1576 19.6972 14.8809 19.3558 14.8809H12.9892C12.6478 14.8809 12.3711 15.1576 12.3711 15.499C12.3711 15.8404 12.6478 16.1171 12.9892 16.1171H19.3558C19.6972 16.1171 19.9739 15.8404 19.9739 15.499Z" fill="#4A13E7"/>
<path d="M12.9892 17.3535C12.6478 17.3535 12.3711 17.6302 12.3711 17.9716C12.3711 18.313 12.6478 18.5897 12.9892 18.5897H16.8559C17.1973 18.5897 17.474 18.313 17.474 17.9716C17.474 17.6302 17.1973 17.3535 16.8559 17.3535H12.9892Z" fill="#4A13E7"/>
<path d="M14.4421 23.2877H12.3748C11.6931 23.2877 11.1386 22.7332 11.1386 22.0515V11.1727C11.1386 10.491 11.6931 9.93643 12.3748 9.93643H19.9742C20.6559 9.93643 21.2104 10.491 21.2104 11.1727V14.9741C21.2104 15.3155 21.4872 15.5922 21.8286 15.5922C22.1699 15.5922 22.4467 15.3155 22.4467 14.9741V11.1727C22.4467 9.80934 21.3375 8.7002 19.9742 8.7002H12.3748C11.0115 8.7002 9.90234 9.80934 9.90234 11.1727V22.0515C9.90234 23.4148 11.0115 24.524 12.3748 24.524H14.4421C14.7835 24.524 15.0602 24.2472 15.0602 23.9059C15.0602 23.5645 14.7835 23.2877 14.4421 23.2877Z" fill="#4A13E7"/>
<path d="M23.5416 17.6498C22.8186 16.9267 21.6422 16.9267 20.9196 17.6493L17.5261 21.0353C17.454 21.1072 17.4008 21.1958 17.3712 21.2932L16.6322 23.7263C16.5667 23.942 16.6237 24.1762 16.7812 24.3376C16.8991 24.4585 17.0593 24.5241 17.2236 24.5241C17.2786 24.5241 17.3341 24.5167 17.3886 24.5016L19.8835 23.8105C19.9862 23.7821 20.0797 23.7276 20.1552 23.6523L23.5416 20.2722C24.2646 19.5492 24.2646 18.3728 23.5416 17.6498ZM19.3968 22.6626L18.1417 23.0102L18.509 21.8009L20.7988 19.5162L21.6731 20.3905L19.3968 22.6626ZM22.6679 19.3977L22.5481 19.5172L21.674 18.6431L21.7933 18.524C22.0343 18.283 22.4265 18.283 22.6675 18.524C22.9085 18.765 22.9085 19.1571 22.6679 19.3977Z" fill="#4A13E7"/>
<path d="M19.3558 12.4092H12.9892C12.6478 12.4092 12.3711 12.6859 12.3711 13.0273C12.3711 13.3687 12.6478 13.6454 12.9892 13.6454H19.3558C19.6972 13.6454 19.9739 13.3687 19.9739 13.0273C19.9739 12.6859 19.6972 12.4092 19.3558 12.4092Z" fill="#4A13E7"/>
</svg>
