<svg width="33" height="33" viewBox="0 0 33 33" fill="none" xmlns="http://www.w3.org/2000/svg">
<rect x="1.26172" y="0.69043" width="31.1684" height="31" rx="7.5" fill="white" stroke="#C7C7C7"/>
<path d="M15.299 22.0518H12.0242C11.0017 22.0518 10.1698 21.2199 10.1698 20.1974V11.7908C10.1698 10.7683 11.0017 9.93645 12.0242 9.93645H20.4308C21.4533 9.93645 22.2852 10.7683 22.2852 11.7908V15.1624C22.2852 15.5038 22.5619 15.7805 22.9033 15.7805C23.2447 15.7805 23.5214 15.5038 23.5214 15.1624V11.7908C23.5214 10.0867 22.135 8.7002 20.4308 8.7002H12.0242C10.32 8.7002 8.93359 10.0867 8.93359 11.7908V20.1974C8.93359 21.9016 10.32 23.288 12.0242 23.288H15.299C15.6403 23.288 15.9171 23.0113 15.9171 22.6699C15.9171 22.3285 15.6403 22.0518 15.299 22.0518Z" fill="#4A13E7"/>
<path d="M24.2135 17.3499C23.4904 16.6269 22.314 16.6269 21.5909 17.3499L18.4563 20.4845C17.5424 21.3984 17.0391 22.6136 17.0391 23.9061C17.0391 24.2475 17.3158 24.5243 17.6572 24.5243C18.9497 24.5243 20.1649 24.0209 21.0789 23.1069L24.2135 19.9724C24.9365 19.2494 24.9365 18.0729 24.2135 17.3499ZM23.3393 18.224C23.5803 18.4651 23.5803 18.8572 23.3393 19.0982L22.9022 19.5353L22.028 18.6611L22.4651 18.224C22.7061 17.983 23.0983 17.983 23.3393 18.224ZM20.2047 22.2328C19.688 22.7495 19.0419 23.09 18.3394 23.2239C18.4733 22.5215 18.8138 21.8754 19.3305 21.3586L21.1538 19.5353L22.028 20.4095L20.2047 22.2328Z" fill="#4A13E7"/>
<path d="M13.1856 14.7004L11.5873 16.2988C11.3459 16.5402 11.3459 16.9316 11.5873 17.173C11.8287 17.4144 12.2201 17.4144 12.4615 17.173L14.0598 15.5746C14.3008 15.3336 14.6929 15.3336 14.934 15.5746L18.087 18.7277C18.3284 18.9691 18.7198 18.9691 18.9612 18.7277C19.2026 18.4863 19.2026 18.0949 18.9612 17.8535L15.8081 14.7004C15.0851 13.9775 13.9087 13.9775 13.1856 14.7004Z" fill="#4A13E7"/>
<path d="M19.1981 14.8806C18.1756 14.8806 17.3438 14.0488 17.3438 13.0263C17.3438 12.0038 18.1756 11.1719 19.1981 11.1719C20.2206 11.1719 21.0525 12.0038 21.0525 13.0263C21.0525 14.0488 20.2206 14.8806 19.1981 14.8806ZM19.1981 12.4081C18.8573 12.4081 18.58 12.6854 18.58 13.0263C18.58 13.3671 18.8573 13.6444 19.1981 13.6444C19.539 13.6444 19.8163 13.3671 19.8163 13.0263C19.8163 12.6854 19.539 12.4081 19.1981 12.4081Z" fill="#4A13E7"/>
</svg>
