<svg width="33" height="33" viewBox="0 0 33 33" fill="none" xmlns="http://www.w3.org/2000/svg">
<path opacity="0.1" d="M1.12891 4.64199C1.12891 2.63057 2.75948 1 4.7709 1H28.4438C30.4552 1 32.0858 2.63057 32.0858 4.64199V28.3149C32.0858 30.3263 30.4552 31.9569 28.4438 31.9569H4.7709C2.75948 31.9569 1.12891 30.3263 1.12891 28.3149V4.64199Z" stroke="#8F8F8F"/>
<path fill-rule="evenodd" clip-rule="evenodd" d="M19.1991 10.0496C19.6719 9.60474 20.3024 9.36328 20.9497 9.36328C21.5969 9.36328 22.2274 9.60474 22.7002 10.0496L22.7003 10.0497L22.841 10.1821L22.8411 10.1822C23.3155 10.6289 23.5927 11.2462 23.5927 11.9018C23.5927 12.5574 23.3155 13.1747 22.8411 13.6214L22.841 13.6215L21.5479 14.8386C21.5445 14.8418 21.5411 14.8449 21.5378 14.8481L13.3617 22.5432C13.2508 22.6475 13.1145 22.7208 12.9663 22.7557L9.69364 23.5257C9.39732 23.5954 9.08614 23.5045 8.87398 23.2862C8.66182 23.0679 8.57981 22.7543 8.65796 22.46L9.47613 19.3799C9.51762 19.2237 9.60198 19.0822 9.71967 18.9714L17.8969 11.2752C17.9003 11.272 17.9037 11.2688 17.9071 11.2656L19.199 10.0497L19.1991 10.0496ZM18.4951 13.0914L11.0872 20.0636L10.7035 21.5082L12.3434 21.1223L19.6857 14.2119L18.4951 13.0914ZM20.9497 13.0223L19.7591 11.9018L20.3864 11.3114C20.3864 11.3114 20.3865 11.3114 20.3865 11.3113C20.5274 11.1788 20.7292 11.0959 20.9497 11.0959C21.1702 11.0959 21.3719 11.1788 21.5128 11.3113C21.5129 11.3114 21.5129 11.3114 21.5129 11.3114L21.6535 11.4437C21.7926 11.5747 21.8601 11.7407 21.8601 11.9018C21.8601 12.0629 21.7926 12.2288 21.6536 12.3598C21.6535 12.3598 21.6535 12.3599 21.6535 12.3599L20.9497 13.0223ZM15.9925 22.6824C15.9925 22.204 16.3803 21.8161 16.8588 21.8161H23.4042C23.8826 21.8161 24.2705 22.204 24.2705 22.6824C24.2705 23.1609 23.8826 23.5487 23.4042 23.5487H16.8588C16.3803 23.5487 15.9925 23.1609 15.9925 22.6824Z" fill="#4A13E7"/>
</svg>
