<svg xmlns="http://www.w3.org/2000/svg" width="21" height="21" viewBox="0 0 21 21" fill="none">
<g clippath="url(#clip0_1241_60323)">
<path d="M16.3313 10.197C15.8705 10.197 15.498 10.5704 15.498 11.0303V17.697C15.498 18.1561 15.1247 18.5303 14.6648 18.5303H2.99805C2.53799 18.5303 2.16476 18.1561 2.16476 17.697V6.03027C2.16476 5.57114 2.53799 5.19699 2.99805 5.19699H9.66476C10.1256 5.19699 10.498 4.82361 10.498 4.36371C10.498 3.90366 10.1256 3.53027 9.66476 3.53027H2.99805C1.61972 3.53027 0.498047 4.65195 0.498047 6.03027V17.697C0.498047 19.0753 1.61972 20.197 2.99805 20.197H14.6648C16.0431 20.197 17.1648 19.0753 17.1648 17.697V11.0303C17.1648 10.5695 16.7921 10.197 16.3313 10.197Z" fill="#4B4B4B" />
<path d="M8.311 9.43707C8.25271 9.49536 8.21349 9.56952 8.19686 9.64948L7.60772 12.5963C7.58025 12.7328 7.62359 12.8737 7.72186 12.9728C7.80105 13.052 7.90771 13.0945 8.01696 13.0945C8.04351 13.0945 8.07113 13.092 8.0986 13.0862L11.0445 12.4971C11.1261 12.4803 11.2002 12.4412 11.2578 12.3828L17.8511 5.78946L14.9052 2.84375L8.311 9.43707Z" fill="#4B4B4B" />
<path d="M19.8882 0.806664C19.0758 -0.005867 17.7541 -0.005867 16.9423 0.806664L15.7891 1.95992L18.7349 4.90578L19.8882 3.75237C20.2816 3.35992 20.4982 2.83654 20.4982 2.2799C20.4982 1.72326 20.2816 1.19988 19.8882 0.806664Z" fill="#4B4B4B" />
</g>
<defs>
<clipPath id="clip0_1241_60323">
<rect width="20" height="20" fill="white" transform="translate(0.498047 0.158203)" />
</clipPath>
</defs>
</svg>