<svg width="21" height="21" viewBox="0 0 21 21" fill="none" xmlns="http://www.w3.org/2000/svg">
<path d="M5.21601 11.0548L4.86247 11.4084L5.21601 11.7619L7.42574 13.9717L7.7793 14.3252L8.13286 13.9717L14.762 7.34235L15.1155 6.9888L14.762 6.63525L12.5523 4.42551L12.1987 4.07194L11.8452 4.42551L5.21601 11.0548ZM3.89758 11.5778L3.61474 11.2949L3.89758 11.5778L14.2095 1.26551C14.2095 1.26551 14.2095 1.2655 14.2095 1.2655C14.9281 0.546914 16.0984 0.546917 16.817 1.26551L17.9219 2.37036C17.9219 2.37037 17.9219 2.37037 17.9219 2.37038C18.6425 3.09115 18.6426 4.25716 17.9219 4.97794L7.60984 15.2902C7.09262 15.8075 6.4071 16.1502 5.68304 16.2537L2.47598 16.7118L2.93415 13.5047C3.03761 12.7806 3.38037 12.095 3.89758 11.5778ZM3.23319 15.3889L3.13891 16.0489L3.79887 15.9546L5.60352 15.6968L5.60354 15.6968C6.10546 15.6251 6.58149 15.4171 6.97526 15.1035L7.41324 14.7547L7.01734 14.3588L4.82898 12.1704L4.43302 11.7744L4.08425 12.2125C3.77075 12.6063 3.56273 13.0824 3.491 13.5843L3.491 13.5843L3.23319 15.3889ZM15.1597 6.23748L15.5133 6.59105L15.8668 6.23748L17.5241 4.58015C18.0246 4.07969 18.0248 3.26885 17.524 2.76817L16.4192 1.66334C16.4192 1.66333 16.4192 1.66333 16.4192 1.66332C15.9194 1.16342 15.1071 1.16343 14.6073 1.66334L12.95 3.32063L12.5965 3.67418L12.95 4.02773L15.1597 6.23748Z" fill="#4B4B4B" stroke="#4A13E7"/>
<path d="M0.871094 19.1641H19.8711V19.7266H0.871094V19.1641Z" fill="#4B4B4B" stroke="#4A13E7"/>
</svg>
