<svg width="42" height="43" viewBox="0 0 42 43" fill="none" xmlns="http://www.w3.org/2000/svg">
<circle cx="21.1172" cy="21.7602" r="20.2759" fill="white" stroke="#EBEBEB"/>
<path fillRule="evenodd" clipRule="evenodd" d="M24.677 13.017C25.3318 12.4008 26.2051 12.0664 27.1016 12.0664C27.998 12.0664 28.8713 12.4008 29.5262 13.017L29.5263 13.0171L29.7212 13.2005L29.7214 13.2007C30.3785 13.8193 30.7623 14.6743 30.7623 15.5824C30.7623 16.4905 30.3785 17.3455 29.7214 17.9641L29.7212 17.9643L27.9301 19.65C27.9255 19.6544 27.9208 19.6588 27.9161 19.6632L16.5918 30.3214C16.4383 30.4659 16.2494 30.5674 16.0442 30.6156L11.5113 31.6822C11.1009 31.7788 10.6699 31.6528 10.3761 31.3505C10.0822 31.0481 9.96862 30.6137 10.0769 30.2062L11.2101 25.9399C11.2675 25.7236 11.3844 25.5276 11.5474 25.3742L22.8733 14.7145C22.878 14.71 22.8827 14.7056 22.8874 14.7012L24.6769 13.0171L24.677 13.017ZM23.7019 17.2301L13.4415 26.887L12.91 28.8878L15.1814 28.3534L25.3509 18.7821L23.7019 17.2301ZM27.1016 17.1343L25.4526 15.5824L26.3214 14.7647C26.3215 14.7647 26.3215 14.7646 26.3216 14.7646C26.5168 14.581 26.7962 14.4662 27.1016 14.4662C27.407 14.4662 27.6864 14.581 27.8816 14.7646C27.8816 14.7646 27.8817 14.7647 27.8817 14.7647L28.0764 14.9479C28.2691 15.1293 28.3626 15.3592 28.3626 15.5824C28.3626 15.8055 28.2691 16.0354 28.0765 16.2168C28.0765 16.2168 28.0764 16.2168 28.0764 16.2169L27.1016 17.1343ZM20.2356 30.5142C20.2356 29.8515 20.7728 29.3143 21.4355 29.3143H30.5012C31.1639 29.3143 31.7011 29.8515 31.7011 30.5142C31.7011 31.1769 31.1639 31.7141 30.5012 31.7141H21.4355C20.7728 31.7141 20.2356 31.1769 20.2356 30.5142Z" fill="#4A13E7"/>
</svg>
