<svg width="25" height="25" viewBox="0 0 25 25" fill="none" xmlns="http://www.w3.org/2000/svg">
<path d="M15.4772 17.1224C15.9123 17.1224 16.265 16.7697 16.265 16.3346C16.265 15.8996 15.9123 15.5469 15.4772 15.5469C15.0421 15.5469 14.6895 15.8996 14.6895 16.3346C14.6895 16.7697 15.0421 17.1224 15.4772 17.1224Z" fill="#4B4B4B"/>
<path d="M11.5383 21.2981H5.31507C4.44634 21.2981 3.73957 20.5913 3.73957 19.7226V13.263C3.73957 12.3942 4.44634 11.6875 5.31507 11.6875H16.6587C17.5275 11.6875 18.2342 12.3942 18.2342 13.263V14.8385C18.2342 15.2736 18.5869 15.6262 19.022 15.6262C19.4571 15.6262 19.8097 15.2736 19.8097 14.8385V13.263C19.8097 11.5255 18.3962 10.1119 16.6587 10.1119H15.712V7.33376C15.712 4.78257 13.5916 2.70703 10.9854 2.70703C8.37924 2.70703 6.25892 4.78257 6.25892 7.33376V10.1119H5.31507C3.57761 10.1119 2.16406 11.5255 2.16406 13.263V19.7226C2.16406 21.46 3.57761 22.8736 5.31507 22.8736H11.5383C11.9734 22.8736 12.3261 22.5209 12.3261 22.0858C12.3261 21.6508 11.9734 21.2981 11.5383 21.2981ZM7.83443 7.33376C7.83443 5.65131 9.24797 4.28254 10.9854 4.28254C12.7229 4.28254 14.1365 5.65131 14.1365 7.33376V10.1119H7.83443V7.33376Z" fill="#4B4B4B"/>
<path d="M22.0002 15.5379C21.6464 15.2846 21.1543 15.3661 20.9011 15.7199L17.0183 21.1436C16.9122 21.2666 16.7793 21.2931 16.7081 21.2979C16.6351 21.3027 16.4945 21.2934 16.3707 21.1773L13.8614 18.7285C13.55 18.4246 13.0513 18.4308 12.7474 18.7421C12.4436 19.0535 12.4496 19.5522 12.761 19.8561L15.2747 22.3092C15.2771 22.3115 15.2794 22.3137 15.2818 22.316C15.6587 22.6748 16.1617 22.8743 16.6792 22.8743C16.7237 22.8743 16.7683 22.8729 16.8129 22.8699C17.3767 22.8323 17.9031 22.5581 18.2571 22.1177C18.2662 22.1063 18.275 22.0947 18.2836 22.0828L22.1822 16.637C22.4354 16.2833 22.354 15.7912 22.0002 15.5379Z" fill="#4B4B4B"/>
<path d="M12.4831 17.1224C12.9181 17.1224 13.2708 16.7697 13.2708 16.3346C13.2708 15.8996 12.9181 15.5469 12.4831 15.5469C12.048 15.5469 11.6953 15.8996 11.6953 16.3346C11.6953 16.7697 12.048 17.1224 12.4831 17.1224Z" fill="#4B4B4B"/>
<path d="M6.57486 17.1224C7.00993 17.1224 7.36262 16.7697 7.36262 16.3346C7.36262 15.8996 7.00993 15.5469 6.57486 15.5469C6.1398 15.5469 5.78711 15.8996 5.78711 16.3346C5.78711 16.7697 6.1398 17.1224 6.57486 17.1224Z" fill="#4B4B4B"/>
<path d="M9.52994 17.1224C9.965 17.1224 10.3177 16.7697 10.3177 16.3346C10.3177 15.8996 9.965 15.5469 9.52994 15.5469C9.09488 15.5469 8.74219 15.8996 8.74219 16.3346C8.74219 16.7697 9.09488 17.1224 9.52994 17.1224Z" fill="#4B4B4B"/>
</svg>
