<svg width="131" height="134" viewBox="0 0 131 134" fill="none" xmlns="http://www.w3.org/2000/svg">
<g id="Layer_1" clip-path="url(#clip0_912_65584)">
<path id="Vector" d="M56.0552 26.3591L21.3917 71.3505C21.2813 71.4945 21.2066 71.6623 21.1743 71.841C21.1421 72.019 21.1531 72.2028 21.2066 72.3757L39.2111 131.17C39.2977 131.453 39.4395 131.716 39.628 131.944C39.8164 132.172 40.0491 132.36 40.3114 132.498C40.5737 132.636 40.8607 132.721 41.1552 132.748C41.4507 132.775 41.7478 132.743 42.0305 132.655L129.278 105.446C129.559 105.358 129.795 105.165 129.937 104.908C130.079 104.649 130.114 104.348 130.037 104.064L113.949 44.6132C113.899 44.4327 113.806 44.2666 113.678 44.1302C113.55 43.9938 113.389 43.8913 113.212 43.832C107.658 41.9806 63.728 27.3029 57.1851 25.9379C56.9763 25.8947 56.759 25.9117 56.5595 25.9862C56.36 26.0608 56.1851 26.1896 56.0552 26.3591Z" fill="#4A13E7"/>
<path id="Vector_2" d="M40.5053 133.193C40.3296 133.193 40.1564 133.147 40.0036 133.06C39.8508 132.973 39.7235 132.848 39.6343 132.696C39.5452 132.546 39.4968 132.374 39.4942 132.198C39.4917 132.022 39.535 131.849 39.6199 131.696C39.6921 131.568 46.819 118.696 54.1811 105.84C69.2262 79.5659 70.548 78.9584 71.1839 78.6652C71.9649 78.3068 73.2698 77.706 101.819 90.7036C115.731 97.0371 129.493 103.606 129.632 103.663C129.755 103.718 129.866 103.798 129.958 103.896C130.05 103.994 130.122 104.11 130.168 104.237C130.214 104.364 130.235 104.498 130.228 104.632C130.223 104.767 130.189 104.899 130.131 105.021C130.072 105.142 129.99 105.251 129.889 105.341C129.788 105.43 129.67 105.498 129.542 105.541C129.414 105.585 129.278 105.602 129.144 105.592C129.009 105.582 128.878 105.546 128.758 105.484C128.625 105.422 115.351 99.0884 101.716 92.8616C78.2073 82.156 73.0796 80.6343 71.9947 80.5538C71.2297 81.2893 68.1353 85.5232 55.6702 107.313C48.4193 119.997 41.4613 132.559 41.3925 132.675C41.3042 132.833 41.176 132.963 41.0198 133.055C40.8636 133.146 40.6862 133.194 40.5053 133.193Z" fill="white"/>
<path id="Vector_3" d="M63.3808 93.0749C63.228 93.0749 63.0777 93.0402 62.941 92.9741L21.3908 72.8737C21.2711 72.8161 21.1641 72.7347 21.0758 72.6356C20.9875 72.5365 20.9196 72.4212 20.8763 72.2958C20.833 72.1704 20.8143 72.0374 20.822 71.9052C20.8296 71.773 20.8636 71.6434 20.9222 71.5239C20.9807 71.4045 21.0614 71.2977 21.1607 71.2096C21.26 71.1215 21.3755 71.0537 21.5011 71.0105C21.6268 70.9673 21.7601 70.9486 21.8925 70.9563C22.0249 70.9647 22.1548 70.9986 22.2745 71.0562L63.8231 91.1566C64.0294 91.2558 64.1958 91.4227 64.2942 91.6286C64.3936 91.8353 64.419 92.0683 64.3681 92.2912C64.3172 92.514 64.1915 92.7131 64.0124 92.8555C63.8333 92.9978 63.6108 93.0749 63.3816 93.0749H63.3808Z" fill="white"/>
<path id="Vector_4" d="M87.1958 86.3147C87.015 86.313 86.8384 86.263 86.6831 86.1698C86.5286 86.0775 86.4021 85.9444 86.3155 85.786C86.2297 85.6275 86.1873 85.4488 86.1941 85.2683C86.2009 85.0887 86.2552 84.9133 86.3528 84.7616L112.287 44.1838C112.441 43.9863 112.664 43.8542 112.912 43.8118C113.16 43.7694 113.414 43.8211 113.626 43.9558C113.838 44.0906 113.992 44.299 114.058 44.5413C114.125 44.7837 114.098 45.0412 113.984 45.2649L88.0524 85.8478C87.9607 85.991 87.8342 86.1096 87.6848 86.1918C87.5346 86.2732 87.3665 86.3164 87.1958 86.3155V86.3147Z" fill="white"/>
<path id="Vector_5" d="M66.2862 72.9596C65.3328 72.9613 64.382 72.8774 63.4439 72.7088C58.3952 71.7836 54.6751 68.5723 52.9891 63.6665C52.9415 63.5402 52.9195 63.4055 52.9245 63.2708C52.9296 63.1361 52.9619 63.0031 53.0196 62.881C53.0774 62.759 53.1589 62.6497 53.259 62.5591C53.3601 62.4693 53.4772 62.3998 53.6054 62.3557C53.7336 62.3117 53.8686 62.2939 54.0036 62.3032C54.1385 62.3125 54.2701 62.3481 54.3907 62.4091C54.5112 62.4701 54.6191 62.5548 54.7065 62.6574C54.7939 62.7607 54.8602 62.8794 54.9001 63.009C56.755 68.3766 60.7672 70.1652 63.8073 70.7219C67.6955 71.4345 71.3765 70.3237 72.3027 69.2078C72.475 69.0045 72.7212 68.8774 72.987 68.8545C73.2527 68.8308 73.5176 68.9138 73.7222 69.0841C73.9276 69.2544 74.0566 69.4993 74.0821 69.7645C74.1076 70.0297 74.0261 70.294 73.8571 70.4999C72.5905 72.0251 69.5131 72.9605 66.2845 72.9605L66.2862 72.9596Z" fill="white"/>
<path id="Vector_6" d="M53.1316 60.2536C52.8727 60.2536 52.6231 60.1553 52.4355 59.9774C52.2478 59.7995 52.1341 59.5571 52.1205 59.2987C52.0101 57.4457 52.2691 55.5893 52.8803 53.837C53.4924 52.084 54.4458 50.4699 55.6852 49.0863C58.2839 46.1868 61.9785 44.3736 66.3701 43.8322C74.0633 42.89 79.1036 47.5349 80.5349 52.2475C80.5731 52.3746 80.5858 52.5076 80.5723 52.6398C80.5587 52.772 80.5196 52.8999 80.456 53.0169C80.3931 53.1338 80.3074 53.2372 80.2047 53.3202C80.1011 53.4041 79.9831 53.4668 79.8557 53.5049C79.7284 53.543 79.5943 53.5557 79.4627 53.5422C79.3302 53.5286 79.202 53.4897 79.0849 53.4261C78.9677 53.3634 78.8642 53.2778 78.781 53.1753C78.6969 53.0728 78.6341 52.9542 78.5959 52.8271C77.415 48.9007 73.1524 45.0379 66.6231 45.8377C58.9062 46.7816 53.7768 52.2738 54.1444 59.1911C54.152 59.3233 54.1325 59.4563 54.0884 59.5817C54.0442 59.7071 53.9763 59.8223 53.8872 59.9206C53.798 60.0189 53.6911 60.0994 53.5705 60.157C53.4508 60.2146 53.3209 60.2477 53.1876 60.2545H53.1324L53.1316 60.2536Z" fill="white"/>
<path id="Vector_7" d="M75.8083 60.6269C70.0754 60.6269 66.441 51.5201 66.2729 51.0888C66.2245 50.9651 66.2008 50.8338 66.2033 50.7008C66.2067 50.5686 66.2356 50.4373 66.2891 50.3161C66.3969 50.0712 66.5981 49.8781 66.8477 49.7815C67.0973 49.684 67.3766 49.69 67.6219 49.7976C67.8673 49.9052 68.0608 50.106 68.1576 50.3551C68.2085 50.483 72.1154 60.2498 77.1607 58.3459C78.4885 57.8409 78.8909 56.6861 78.9979 55.8032C79.0114 55.671 79.0522 55.5422 79.1167 55.4253C79.1804 55.3084 79.2678 55.205 79.3722 55.122C79.4758 55.0389 79.5964 54.9771 79.7246 54.9407C79.8527 54.9042 79.9869 54.8932 80.1202 54.9085C80.2526 54.9237 80.3808 54.9652 80.4971 55.0305C80.6143 55.0957 80.7161 55.183 80.7993 55.288C80.8817 55.3931 80.9428 55.5126 80.9785 55.6414C81.0141 55.7702 81.0243 55.904 81.0073 56.0362C80.7645 58.0714 79.6583 59.5584 77.8764 60.2303C77.2168 60.487 76.5164 60.6218 75.8083 60.6277V60.6269Z" fill="white"/>
<path id="Vector_8" d="M66.3671 63.8866C65.2949 63.8968 64.2439 63.5901 63.3465 63.0046C61.7038 61.9141 60.7988 60.0086 60.7988 57.6378C60.7988 52.9845 67.1354 50.9561 67.4037 50.8722C67.6592 50.7942 67.9351 50.8205 68.1711 50.945C68.4071 51.0696 68.5846 51.2814 68.6644 51.5356C68.7442 51.7898 68.7204 52.0652 68.5973 52.3016C68.4751 52.538 68.2637 52.7167 68.009 52.7981C67.9572 52.815 62.8219 54.4672 62.8219 57.637C62.8219 59.3095 63.4051 60.6195 64.4663 61.321C65.4647 61.9845 66.7746 62.0531 68.0633 61.5142C70.5185 60.4839 70.3563 57.5421 70.3495 57.4158C70.3309 57.1481 70.4191 56.8837 70.5957 56.6804C70.7715 56.4779 71.0219 56.3533 71.2902 56.3338C71.5584 56.3144 71.8233 56.4033 72.0262 56.5787C72.23 56.7549 72.3548 57.004 72.3734 57.2718C72.387 57.4548 72.6621 61.7786 68.8545 63.374C68.0676 63.7079 67.222 63.8815 66.3671 63.8841V63.8866Z" fill="white"/>
<path id="Vector_9" d="M12.8424 27.6199C11.2644 27.6199 8.94469 26.7754 7.13626 25.146C4.78345 23.0248 3.90825 20.1553 4.67492 17.0662C5.43346 14.0078 7.19836 11.6584 9.64694 10.4507C12.1588 9.21175 15.2289 9.25867 18.2933 10.5851C18.4558 10.6616 18.5817 10.7989 18.645 10.9663C18.7082 11.1342 18.7036 11.3196 18.6316 11.4841C18.5602 11.6486 18.4273 11.7783 18.2613 11.8473C18.0954 11.9156 17.9091 11.9168 17.7425 11.8508C15.0624 10.69 12.406 10.6309 10.2644 11.6886C8.18963 12.7138 6.68125 14.7411 6.02312 17.3975C5.20596 20.694 6.68474 22.873 8.06949 24.1213C9.98413 25.8474 12.4919 26.4892 13.3723 26.1729C13.4582 26.1388 13.5505 26.1226 13.6434 26.1255C13.7362 26.1278 13.8273 26.1486 13.9115 26.1868C13.9956 26.2251 14.0717 26.2795 14.1343 26.3479C14.197 26.4156 14.2458 26.4956 14.2765 26.5825C14.3079 26.6694 14.3212 26.762 14.316 26.8541C14.3108 26.9462 14.287 27.0366 14.2464 27.1194C14.2057 27.2023 14.1483 27.2764 14.0786 27.3372C14.0084 27.398 13.9272 27.4438 13.8389 27.4722C13.518 27.5776 13.1808 27.628 12.843 27.6205L12.8424 27.6199Z" fill="#FF376F"/>
<path id="Vector_10" d="M19.7867 23.2478C19.6062 23.2478 19.4263 23.2322 19.2481 23.2015C14.6278 22.4073 15.7897 14.8379 15.846 14.517C15.8837 14.3449 15.9864 14.1943 16.1321 14.0953C16.2778 13.9962 16.456 13.9563 16.6301 13.9841C16.8042 14.0119 16.9609 14.1046 17.0688 14.2436C17.1768 14.3826 17.2273 14.5581 17.2099 14.733C17.1971 14.8135 16.2058 21.2749 19.4808 21.8379C20.605 22.0314 21.2492 21.1324 21.533 20.5793C22.497 18.7025 22.197 15.4901 20.0275 13.3654C19.897 13.2369 19.8221 13.0619 19.8209 12.8789C19.8198 12.6959 19.8906 12.5198 20.0194 12.3889C20.1483 12.2579 20.3235 12.1838 20.5069 12.1826C20.6903 12.1809 20.8668 12.2522 20.9979 12.3807C23.7198 15.0476 23.9398 18.9203 22.7651 21.2089C22.0977 22.518 21.0148 23.2478 19.7867 23.2478Z" fill="#FF376F"/>
<path id="Vector_11" d="M13.8751 22.0715C13.7068 22.0715 13.5391 22.06 13.3725 22.0368C12.0766 21.8619 10.9942 21.1233 10.4765 20.0604C9.92804 18.9327 10.0464 17.597 10.8108 16.2995C12.3093 13.7508 16.4218 14.6724 16.5953 14.7141C16.6876 14.7303 16.7758 14.7651 16.8547 14.816C16.9337 14.867 17.0004 14.9342 17.0526 15.0124C17.1043 15.0906 17.1403 15.1781 17.1571 15.2702C17.1739 15.3623 17.1716 15.4573 17.1507 15.5482C17.1298 15.6397 17.0904 15.7254 17.0347 15.8013C16.9789 15.8772 16.9087 15.9403 16.828 15.9884C16.7474 16.0365 16.6574 16.0666 16.5646 16.0788C16.4717 16.0909 16.3771 16.0834 16.2866 16.0579C16.2541 16.051 12.9802 15.3513 12.0087 17.0003C11.4863 17.8866 11.3848 18.7583 11.7249 19.4569C12.0441 20.1137 12.7138 20.5557 13.5623 20.6698C15.1763 20.887 16.0074 19.2825 16.0422 19.213C16.1252 19.0514 16.2686 18.9292 16.4415 18.8724C16.6145 18.8157 16.8025 18.829 16.965 18.9095C17.1281 18.99 17.2523 19.1313 17.3115 19.3028C17.3707 19.4743 17.3602 19.6619 17.2813 19.8259C17.2285 19.9237 16.1391 22.0715 13.8745 22.0715H13.8751Z" fill="#FF376F"/>
<g id="Group 40055">
<path id="Vector_12" d="M92.5764 24.3663C90.5355 24.3663 88.0787 23.8715 85.986 22.0405C85.8782 21.9558 85.7882 21.8499 85.7228 21.7295C85.6566 21.6092 85.6167 21.4762 85.604 21.3398C85.5912 21.2034 85.6065 21.0653 85.649 20.9348C85.6914 20.8043 85.7602 20.684 85.851 20.5806C85.9418 20.4772 86.0531 20.3942 86.177 20.3349C86.3018 20.2756 86.4368 20.2434 86.5735 20.2383C86.711 20.2332 86.8485 20.2561 86.9767 20.3061C87.1049 20.3561 87.2212 20.4306 87.3197 20.5272C90.1611 23.0132 93.9823 22.3667 95.4934 21.9744C97.89 21.3517 99.306 20.2171 99.5081 19.6486C99.5505 19.5206 99.6176 19.402 99.7059 19.3004C99.7942 19.1987 99.902 19.1156 100.023 19.0563C100.144 18.997 100.276 18.9623 100.411 18.9538C100.546 18.9462 100.68 18.9648 100.808 19.0097C100.934 19.0546 101.051 19.1241 101.152 19.2148C101.251 19.3054 101.332 19.4147 101.389 19.5376C101.445 19.6596 101.477 19.7918 101.481 19.9265C101.486 20.0612 101.464 20.1951 101.416 20.3213C100.891 21.7906 98.7661 23.2064 96.0028 23.9249C94.8838 24.2155 93.7327 24.3638 92.5764 24.3672V24.3663Z" fill="#FE9244"/>
<path id="Vector_13" d="M84.0869 18.7683C83.8942 18.7683 83.7049 18.7132 83.5419 18.6099C83.3789 18.5056 83.249 18.3582 83.1684 18.1828C81.9272 15.5054 81.8763 12.6898 83.0266 10.0386C84.1209 7.51367 86.2305 5.30393 89.139 3.65848C94.0655 0.868332 99.2271 2.89591 101.585 6.22324C103.211 8.51856 103.173 10.9461 101.486 12.4068C97.2168 16.1095 91.1188 9.33875 90.8624 9.0405C90.7741 8.94137 90.7062 8.82529 90.6621 8.69904C90.6188 8.57364 90.6001 8.44061 90.6077 8.30759C90.6162 8.17456 90.6502 8.04493 90.7079 7.92461C90.7665 7.80514 90.8471 7.69754 90.9473 7.60942C91.0466 7.5213 91.163 7.45267 91.2886 7.40945C91.4151 7.36624 91.5484 7.3476 91.6817 7.35523C91.8141 7.36285 91.9448 7.39675 92.0645 7.45521C92.1842 7.51367 92.2921 7.59416 92.3804 7.69415C92.4313 7.75007 97.4392 13.2228 100.166 10.8647C101.192 9.97591 100.721 8.47959 99.9369 7.37387C98.4665 5.29884 94.507 2.92726 90.1425 5.39967C85.003 8.32115 82.9943 12.9999 85.003 17.3338C85.0598 17.4541 85.0921 17.5855 85.0972 17.7185C85.1031 17.8515 85.0828 17.9846 85.0369 18.11C84.9911 18.2354 84.9206 18.3497 84.8298 18.448C84.7389 18.5463 84.6303 18.6251 84.5089 18.6802C84.3764 18.7395 84.2321 18.7691 84.0869 18.7675V18.7683Z" fill="#FE9244"/>
<path id="Vector_14" d="M92.9496 18.1227C92.6338 18.1227 92.3205 18.0854 92.0132 18.0134C90.5241 17.66 89.3559 16.5238 88.7235 14.8157C87.4789 11.4494 91.4503 8.34742 91.6184 8.21693C91.7245 8.13559 91.8442 8.07628 91.9724 8.04154C92.1015 8.0068 92.2347 7.99833 92.3672 8.01528C92.4988 8.03222 92.6261 8.07544 92.7407 8.14152C92.8562 8.20761 92.9572 8.29573 93.0387 8.4008C93.1202 8.50586 93.1796 8.62618 93.2144 8.75412C93.2492 8.88206 93.2577 9.01593 93.2408 9.14726C93.2238 9.2786 93.1813 9.40569 93.1143 9.52092C93.048 9.63615 92.9597 9.73698 92.8545 9.81832C92.8265 9.84035 89.9035 12.1747 90.6226 14.1167C91.0114 15.1715 91.6727 15.8587 92.4775 16.0502C93.234 16.229 94.0574 15.9714 94.7332 15.3435C96.0032 14.1658 95.229 12.356 95.195 12.2789C95.0881 12.0348 95.0813 11.7586 95.1772 11.5104C95.2723 11.2621 95.4625 11.0613 95.7061 10.9512C95.9489 10.8419 96.2257 10.8325 96.4753 10.9257C96.7257 11.0189 96.9286 11.207 97.0407 11.4485C97.0992 11.5782 98.455 14.6462 96.1128 16.8187C95.2613 17.6363 94.1313 18.1023 92.9496 18.1227Z" fill="#FE9244"/>
</g>
<path id="Vector_15" d="M26.8337 110.944C26.6495 110.944 26.4686 110.894 26.3107 110.799C26.1528 110.704 26.0238 110.567 25.938 110.405L17.7949 95.0356C17.6693 94.7992 17.6438 94.5222 17.7227 94.2663C17.8017 94.0104 17.9791 93.796 18.2168 93.6706C18.4537 93.5452 18.7313 93.5198 18.9877 93.5986C19.2441 93.6774 19.4588 93.8545 19.5845 94.0917L27.7276 109.461C27.7896 109.578 27.8278 109.707 27.8405 109.839C27.8533 109.971 27.8388 110.104 27.7998 110.23C27.7607 110.357 27.6971 110.475 27.6122 110.578C27.5273 110.679 27.4237 110.764 27.3057 110.826C27.1605 110.903 26.9984 110.944 26.8337 110.944Z" fill="#FE9244"/>
<path id="Vector_16" d="M28.8808 121.478C28.7085 121.478 28.5395 121.434 28.3884 121.35C28.2382 121.267 28.1117 121.146 28.0208 121L20.7156 109.243C20.5747 109.014 20.5297 108.739 20.5917 108.478C20.6536 108.216 20.8166 107.991 21.0458 107.85C21.2742 107.709 21.5501 107.664 21.8116 107.726C22.0731 107.788 22.2997 107.95 22.4407 108.179L29.7476 119.935C29.8427 120.088 29.8953 120.263 29.9004 120.444C29.9047 120.623 29.8614 120.801 29.7731 120.959C29.6856 121.117 29.5566 121.248 29.4012 121.339C29.2459 121.43 29.0684 121.478 28.8876 121.478H28.8808Z" fill="#FF376F"/>
<path id="Vector_17" d="M124.168 60.7726C123.906 60.7726 123.654 60.6718 123.466 60.4913C123.277 60.3108 123.166 60.0643 123.156 59.8033L122.284 38.343C122.273 38.0753 122.369 37.8143 122.551 37.6169C122.733 37.4195 122.986 37.3034 123.254 37.2924C123.523 37.2813 123.784 37.3771 123.982 37.5593C124.18 37.7414 124.297 37.9931 124.307 38.2608L125.179 59.7211C125.185 59.8542 125.164 59.9863 125.118 60.1109C125.072 60.2354 125.002 60.3498 124.912 60.4473C124.822 60.5447 124.713 60.6235 124.592 60.6794C124.472 60.7353 124.341 60.7667 124.208 60.7718L124.168 60.7735V60.7726Z" fill="#FF376F"/>
<path id="Vector_18" d="M126.929 66.0258H126.871C126.737 66.0182 126.607 65.9852 126.488 65.9267C126.368 65.8691 126.261 65.7886 126.173 65.6895C126.084 65.5903 126.016 65.4751 125.972 65.3497C125.928 65.2243 125.91 65.0913 125.918 64.9591L126.789 49.7484C126.805 49.4807 126.927 49.2299 127.127 49.0511C127.327 48.8723 127.591 48.7808 127.86 48.7961C128.128 48.8113 128.379 48.9325 128.557 49.1324C128.737 49.3324 128.828 49.5959 128.813 49.8637L127.941 65.0752C127.926 65.3327 127.813 65.5742 127.624 65.7513C127.437 65.9284 127.188 66.0267 126.929 66.0258Z" fill="#C50EE0"/>
<path id="Vector_19" d="M47.6553 46.1986C47.4677 46.1986 47.2834 46.1452 47.1238 46.0461C46.9642 45.947 46.8352 45.8055 46.752 45.6377C46.6688 45.4699 46.6331 45.2818 46.651 45.0946C46.6688 44.9082 46.7376 44.7294 46.8513 44.5803L54.7771 34.1458C54.8561 34.0374 54.9563 33.9459 55.0717 33.8772C55.1872 33.8078 55.3145 33.762 55.4478 33.7425C55.5811 33.723 55.7161 33.7307 55.846 33.7637C55.9759 33.7967 56.0981 33.8561 56.2051 33.9374C56.312 34.0187 56.402 34.1196 56.4691 34.2356C56.5362 34.3517 56.5803 34.4797 56.5973 34.6127C56.6143 34.7457 56.6049 34.8804 56.5693 35.0101C56.5336 35.1397 56.4725 35.26 56.3893 35.3659L48.4635 45.8004C48.3692 45.9249 48.247 46.0249 48.1069 46.0944C47.9668 46.1639 47.8123 46.1995 47.6561 46.1995L47.6553 46.1986Z" fill="white"/>
<path id="Vector_20" d="M40.9657 55.1331C40.7772 55.1331 40.593 55.0806 40.4326 54.9806C40.2721 54.8806 40.1439 54.7399 40.0599 54.5713C39.9758 54.4027 39.9419 54.2146 39.9597 54.0274C39.9775 53.8401 40.0471 53.6622 40.1617 53.5122L44.2087 48.1802C44.3742 47.9777 44.6119 47.8472 44.8726 47.8158C45.1332 47.7845 45.3947 47.8557 45.6035 48.0133C45.8124 48.1709 45.9516 48.4039 45.9923 48.6623C46.0331 48.9207 45.9711 49.1842 45.8208 49.3986L41.7739 54.7323C41.6797 54.8569 41.5574 54.9577 41.4173 55.0272C41.2773 55.0967 41.1228 55.1331 40.9665 55.1322L40.9657 55.1331Z" fill="white"/>
<path id="Vector_21" d="M70.7234 91.0424C70.5434 91.0415 70.366 90.9932 70.2115 90.9017C70.0561 90.8111 69.928 90.6797 69.8405 90.523C69.7531 90.3654 69.7089 90.1883 69.7132 90.0078C69.7174 89.8282 69.7701 89.6528 69.8651 89.5003L72.288 85.6028C72.4349 85.3867 72.659 85.235 72.9146 85.1808C73.1701 85.1257 73.4375 85.1723 73.6599 85.3096C73.8815 85.4477 74.042 85.6655 74.1065 85.9179C74.171 86.1713 74.1354 86.439 74.0063 86.6661L71.5834 90.562C71.4926 90.7086 71.3661 90.8297 71.2158 90.9136C71.0656 90.9975 70.8958 91.0415 70.7234 91.0424Z" fill="white"/>
<path id="Vector_22" d="M67.6464 96.3425C67.4681 96.3425 67.2932 96.2942 67.1404 96.2044C66.9086 96.0696 66.7406 95.8485 66.6718 95.5892C66.6039 95.3308 66.6412 95.0554 66.7762 94.8241L67.6863 93.2659C67.7474 93.1414 67.834 93.0312 67.9393 92.9414C68.0454 92.8516 68.1685 92.7847 68.3009 92.7448C68.4334 92.7042 68.5734 92.6923 68.711 92.7076C68.8485 92.7237 68.9818 92.7677 69.1015 92.8372C69.222 92.9067 69.3265 92.9999 69.4088 93.1109C69.4912 93.2227 69.5497 93.3498 69.5803 93.4845C69.6117 93.6193 69.6151 93.7591 69.5896 93.8955C69.5642 94.031 69.5115 94.1607 69.4334 94.2759L68.5251 95.8324C68.4359 95.9875 68.3086 96.1162 68.1541 96.2052C67.9996 96.295 67.8247 96.3425 67.6464 96.3425Z" fill="white"/>
<path id="Vector_23" d="M67.6467 5.34273C67.3784 5.34273 67.1204 5.23597 66.931 5.04703C66.7409 4.85808 66.6348 4.6005 66.6348 4.33276V1.20285C66.6348 0.935102 66.7409 0.678372 66.931 0.488577C67.1204 0.298783 67.3784 0.192871 67.6467 0.192871C67.915 0.192871 68.1722 0.29963 68.3615 0.488577C68.5517 0.677524 68.6578 0.935102 68.6578 1.20285V4.3336C68.6578 4.46663 68.6323 4.59796 68.5814 4.71997C68.5305 4.84283 68.4558 4.95383 68.3615 5.04788C68.2681 5.14192 68.1561 5.21564 68.0338 5.26648C67.9107 5.31732 67.7792 5.34358 67.6467 5.34358V5.34273Z" fill="#FF376F"/>
<path id="Vector_24" d="M69.3415 3.80334H69.3194L65.9295 3.7525C65.7971 3.75081 65.6655 3.722 65.5441 3.66947C65.4219 3.61693 65.3115 3.54068 65.219 3.44578C65.0322 3.25344 64.9295 2.99502 64.9337 2.72727C64.938 2.45953 65.0483 2.20449 65.241 2.01724C65.4338 1.83083 65.6927 1.72831 65.9609 1.73255L69.3508 1.78339C69.6191 1.78508 69.8755 1.89353 70.0639 2.08418C70.2524 2.27482 70.3577 2.5324 70.356 2.80014C70.3534 3.06789 70.2456 3.32377 70.0546 3.51187C69.8636 3.69997 69.6055 3.80419 69.3372 3.80249H69.3423L69.3415 3.80334Z" fill="#FF376F"/>
<path id="Vector_25" d="M23.2834 51.6077C23.0152 51.6077 22.7579 51.501 22.5678 51.312C22.3776 51.1231 22.2715 50.8655 22.2715 50.5978V47.467C22.2715 47.1993 22.3785 46.9425 22.5678 46.7527C22.7571 46.5629 23.0152 46.457 23.2834 46.457C23.5517 46.457 23.8089 46.5638 23.9991 46.7527C24.1893 46.9417 24.2954 47.1993 24.2954 47.467V50.5978C24.2954 50.8655 24.1884 51.1222 23.9991 51.312C23.8098 51.5018 23.5517 51.6077 23.2834 51.6077Z" fill="#C50EE0"/>
<path id="Vector_26" d="M24.9842 50.0673H24.9706L21.5807 50.0165C21.4483 50.0148 21.3167 49.9868 21.1945 49.9335C21.0722 49.8801 20.9619 49.8047 20.8693 49.7098C20.7768 49.6149 20.7038 49.5022 20.6554 49.3785C20.607 49.2548 20.5824 49.1234 20.5841 48.9913C20.5858 48.8582 20.6138 48.7278 20.6673 48.6057C20.7199 48.4837 20.7963 48.3736 20.8914 48.2812C20.9865 48.1889 21.0994 48.116 21.2233 48.0669C21.3464 48.0177 21.4789 47.994 21.6113 47.9957L25.0012 48.0465C25.2694 48.0482 25.5258 48.1567 25.7143 48.3473C25.9027 48.538 26.0072 48.7955 26.0055 49.0633C26.0038 49.331 25.8951 49.5869 25.7041 49.775C25.5131 49.9631 25.255 50.0673 24.9867 50.0656H24.985L24.9842 50.0673Z" fill="#C50EE0"/>
</g>
<defs>
<clipPath id="clip0_912_65584">
<rect width="131" height="133" fill="white" transform="translate(0 0.192871)"/>
</clipPath>
</defs>
</svg>
