<svg width="165" height="165" viewBox="0 0 165 165" fill="none" xmlns="http://www.w3.org/2000/svg">
<rect x="9.47168" y="8.72852" width="144.83" height="144.83" rx="72.4149" fill="white"/>
<mask id="mask0_4110_111542" style="mask-type:luminance" maskUnits="userSpaceOnUse" x="0" y="0" width="165" height="165">
<path d="M164.419 0.820312H0.82959V164.409H164.419V0.820312Z" fill="white"/>
</mask>
<g mask="url(#mask0_4110_111542)">
<path d="M82.6251 147.506C118.762 147.506 148.061 118.207 148.061 82.0704C148.061 45.9336 118.762 16.6348 82.6251 16.6348C46.4882 16.6348 17.1895 45.9336 17.1895 82.0704C17.1895 118.207 46.4882 147.506 82.6251 147.506Z" fill="url(#paint0_linear_4110_111542)"/>
<path d="M108.548 35.4805H58.0861C53.2675 35.4805 49.3613 39.3867 49.3613 44.2052V111.293C49.3613 116.112 53.2675 120.018 58.0861 120.018H108.548C113.366 120.018 117.273 116.112 117.273 111.293V44.2052C117.273 39.3867 113.366 35.4805 108.548 35.4805Z" fill="url(#paint1_linear_4110_111542)"/>
<path d="M79.9532 46.3867H58.0323C56.5566 46.3867 55.3604 47.583 55.3604 49.0587C55.3604 50.5344 56.5566 51.7306 58.0323 51.7306H79.9532C81.4289 51.7306 82.6252 50.5344 82.6252 49.0587C82.6252 47.583 81.4289 46.3867 79.9532 46.3867Z" fill="#8F8F8F"/>
<path d="M107.218 61.5449H58.0323C56.5566 61.5449 55.3604 62.7412 55.3604 64.2169C55.3604 65.6926 56.5566 66.8888 58.0323 66.8888H107.218C108.694 66.8888 109.89 65.6926 109.89 64.2169C109.89 62.7412 108.694 61.5449 107.218 61.5449Z" fill="#D5D5D5"/>
<path d="M107.218 76.7051H58.0323C56.5566 76.7051 55.3604 77.9013 55.3604 79.377C55.3604 80.8527 56.5566 82.049 58.0323 82.049H107.218C108.694 82.049 109.89 80.8527 109.89 79.377C109.89 77.9013 108.694 76.7051 107.218 76.7051Z" fill="#D5D5D5"/>
<path d="M107.218 91.8633H58.0323C56.5566 91.8633 55.3604 93.0596 55.3604 94.5352C55.3604 96.0109 56.5566 97.2072 58.0323 97.2072H107.218C108.694 97.2072 109.89 96.0109 109.89 94.5352C109.89 93.0596 108.694 91.8633 107.218 91.8633Z" fill="#D5D5D5"/>
<path d="M58.0323 107.023H107.218C108.696 107.023 109.89 108.218 109.89 109.695C109.89 111.173 108.696 112.367 107.218 112.367H58.0323C56.5546 112.367 55.3604 111.173 55.3604 109.695C55.3604 108.218 56.5546 107.023 58.0323 107.023Z" fill="#D5D5D5"/>
<path d="M157.957 26.1328H125.196C123.669 26.1328 122.431 27.4361 122.431 29.0392V45.2455C122.431 46.8541 123.669 48.1573 125.196 48.1573H157.957C159.484 48.1573 160.722 46.8541 160.722 45.2455V29.0392C160.722 27.4306 159.484 26.1328 157.957 26.1328Z" fill="white"/>
<path d="M130.61 40.6275C132.415 40.6275 133.882 39.1607 133.882 37.3558C133.882 35.5508 132.415 34.084 130.61 34.084C128.805 34.084 127.338 35.5508 127.338 37.3558C127.338 39.1607 128.805 40.6275 130.61 40.6275Z" fill="#CCC6D9"/>
<path d="M141.516 34.084H152.422C154.227 34.084 155.694 35.5508 155.694 37.3558C155.694 39.1607 154.227 40.6275 152.422 40.6275H141.516C139.711 40.6275 138.245 39.1607 138.245 37.3558C138.245 35.5508 139.711 34.084 141.516 34.084Z" fill="#D5D5D5"/>
<path fillRule="evenodd" clipRule="evenodd" d="M101.77 123.819C108.794 123.819 115.321 121.692 120.747 118.055L142.94 139.24L150.989 129.904L129.575 109.461C133.529 103.894 135.857 97.0883 135.857 89.7432C135.857 70.9195 120.6 55.6621 101.776 55.6621C82.9522 55.6621 67.6948 70.9195 67.6948 89.7432C67.6948 108.567 82.9522 123.824 101.776 123.824L101.77 123.819ZM130.84 89.7377C130.84 105.671 117.922 118.589 101.989 118.589C86.055 118.589 73.1369 105.671 73.1369 89.7377C73.1369 73.8041 86.055 60.8861 101.989 60.8861C117.922 60.8861 130.84 73.8041 130.84 89.7377Z" fill="#CCC6D9"/>
<path opacity="0.29" d="M101.984 119.15C118.397 119.15 131.702 105.965 131.702 89.7038C131.702 73.4431 118.397 60.2578 101.984 60.2578C85.5704 60.2578 72.2651 73.4431 72.2651 89.7038C72.2651 105.965 85.5704 119.15 101.984 119.15Z" fill="white"/>
<path d="M107.119 89.7049L114.312 82.5397C114.988 81.8308 115.353 80.8875 115.342 79.9114C115.331 78.9353 114.933 78.0083 114.241 77.3158C113.548 76.6287 112.61 76.2306 111.629 76.2197C110.647 76.2088 109.698 76.5742 108.984 77.2449L101.775 84.4101L94.5828 77.2449C94.2393 76.8795 93.8194 76.5905 93.3614 76.3888C92.8979 76.187 92.4017 76.0779 91.9 76.0725C91.3983 76.067 90.8966 76.1597 90.4277 76.3451C89.9587 76.536 89.5389 76.8141 89.179 77.1685C88.8245 77.523 88.541 77.9429 88.3501 78.4064C88.1592 78.8699 88.0666 79.3661 88.072 79.8678C88.0775 80.3694 88.1865 80.8602 88.3883 81.3237C88.59 81.7818 88.8845 82.1962 89.2498 82.5397L96.4532 89.7049L89.2498 96.8701C88.8845 97.2136 88.59 97.6281 88.3883 98.0861C88.1865 98.5442 88.0775 99.0404 88.072 99.5421C88.0666 100.044 88.1592 100.54 88.3501 101.003C88.541 101.467 88.8191 101.887 89.179 102.241C89.5334 102.596 89.9587 102.874 90.4277 103.065C90.8966 103.256 91.3929 103.348 91.9 103.337C92.4071 103.326 92.9033 103.223 93.3614 103.021C93.8249 102.819 94.2393 102.53 94.5828 102.165L101.792 94.9997L109 102.165C109.72 102.792 110.653 103.13 111.612 103.097C112.572 103.065 113.483 102.672 114.159 102.001C114.835 101.325 115.228 100.42 115.255 99.4657C115.282 98.5115 114.944 97.5844 114.306 96.8701L107.114 89.7049H107.119Z" fill="#8F8F8F"/>
<path d="M142.934 139.239L150.983 129.898L152.193 131.054C153.371 132.178 154.074 133.743 154.151 135.417C154.227 137.085 153.671 138.721 152.608 139.959C151.539 141.197 150.05 141.939 148.463 142.02C146.877 142.102 145.322 141.519 144.15 140.395L142.94 139.239H142.934Z" fill="#E1DCEB"/>
<path d="M156.24 104.426C158.047 104.426 159.512 102.962 159.512 101.155C159.512 99.3476 158.047 97.8828 156.24 97.8828C154.433 97.8828 152.968 99.3476 152.968 101.155C152.968 102.962 154.433 104.426 156.24 104.426Z" fill="#E3E3E3"/>
<path fillRule="evenodd" clipRule="evenodd" d="M32.6642 123.726C33.2477 123.508 33.8638 123.219 34.3383 122.793C34.8999 122.292 35.1289 121.648 35.2816 120.972C35.4779 120.1 35.5597 119.173 35.7996 118.3C35.8869 117.973 36.0559 117.853 36.1323 117.798C36.3177 117.662 36.5031 117.624 36.6776 117.64C36.8848 117.657 37.1738 117.738 37.3592 118.109C37.3865 118.164 37.4192 118.24 37.4464 118.355C37.4628 118.436 37.4737 118.687 37.4955 118.791C37.5391 119.047 37.5773 119.303 37.6155 119.56C37.7355 120.416 37.8009 121.141 38.1771 121.926C38.6843 122.995 39.1914 123.644 39.8839 123.933C40.5492 124.211 41.3508 124.162 42.3705 123.938C42.4686 123.911 42.5613 123.895 42.6595 123.873C43.1066 123.791 43.5374 124.102 43.6247 124.571C43.7119 125.04 43.4284 125.498 42.9812 125.602C42.8885 125.623 42.7958 125.645 42.7086 125.662C41.329 126.021 39.7367 127.303 38.8097 128.421C38.5261 128.764 38.1063 129.735 37.6809 130.351C37.3647 130.804 37.0102 131.104 36.7157 131.213C36.514 131.284 36.3504 131.273 36.2086 131.235C36.0069 131.18 35.8378 131.065 35.7124 130.886C35.6415 130.787 35.5761 130.651 35.5488 130.482C35.5325 130.4 35.5325 130.193 35.5325 130.095C35.4452 129.779 35.3416 129.473 35.2598 129.157C35.0744 128.399 34.7145 127.919 34.2837 127.287C33.8802 126.692 33.4494 126.321 32.8114 126.021C32.7296 126 32.0644 125.831 31.8299 125.732C31.4864 125.591 31.3228 125.345 31.2628 125.214C31.1592 124.996 31.1537 124.8 31.1701 124.642C31.1973 124.402 31.301 124.2 31.4809 124.037C31.59 123.933 31.759 123.835 31.9826 123.786C32.1571 123.748 32.6097 123.726 32.6751 123.726H32.6642ZM36.574 122.493C36.6067 122.564 36.6394 122.641 36.6721 122.712C37.4137 124.277 38.248 125.149 39.2568 125.569L39.2895 125.585C38.6134 126.114 38.0026 126.703 37.5337 127.27C37.3428 127.505 37.0866 127.99 36.8085 128.486C36.5576 127.63 36.1486 127.025 35.6361 126.267C35.2434 125.689 34.829 125.253 34.3219 124.898C34.7145 124.685 35.0908 124.435 35.4179 124.146C35.9632 123.66 36.3231 123.104 36.5685 122.493H36.574Z" fill="#CCC6D9"/>
</g>
<defs>
<linearGradient id="paint0_linear_4110_111542" x1="82.1179" y1="-4.67543" x2="83.4594" y2="225.129" gradientUnits="userSpaceOnUse">
<stop stop-color="#F2F2F2"/>
<stop offset="1" stop-color="#EFEFEF"/>
</linearGradient>
<linearGradient id="paint1_linear_4110_111542" x1="83.317" y1="35.4805" x2="83.317" y2="120.012" gradientUnits="userSpaceOnUse">
<stop stop-color="white"/>
<stop offset="0.72" stop-color="#FAFAFA"/>
</linearGradient>
</defs>
</svg>
