<svg width="8" height="15" viewBox="0 0 8 15" fill="none" xmlns="http://www.w3.org/2000/svg">
<path d="M0.461667 14.1397C0.291259 13.9567 0.206055 13.7401 0.206055 13.4898C0.206055 13.2395 0.291259 13.0232 0.461667 12.8407L5.45463 7.47989L0.444626 2.10082C0.285579 1.93005 0.206055 1.7166 0.206055 1.46045C0.206055 1.2043 0.291259 0.984748 0.461667 0.801787C0.632076 0.618825 0.833839 0.527344 1.06696 0.527344C1.30008 0.527344 1.50161 0.618825 1.67157 0.801787L7.39729 6.9676C7.46545 7.04079 7.51385 7.12007 7.54247 7.20545C7.5711 7.29083 7.58519 7.38232 7.58474 7.47989C7.58474 7.57747 7.57042 7.66896 7.54179 7.75434C7.51316 7.83972 7.465 7.919 7.39729 7.99219L1.65453 14.158C1.49548 14.3288 1.29939 14.4141 1.06628 14.4141C0.833157 14.4141 0.631621 14.3227 0.461667 14.1397Z" fill="black"/>
</svg>
