<svg width="12" height="13" viewBox="0 0 12 13" fill="none" xmlns="http://www.w3.org/2000/svg">
<path id="Vector" d="M6.17065 8.53403H6.16938C6.1122 8.53403 6.08067 8.52008 6.04242 8.4787C6.0023 8.43529 5.97612 8.38222 5.97633 8.28527V8.28418V2.92273V1.6451L5.10914 2.58336L3.80968 3.98934C3.75467 4.04885 3.72163 4.05366 3.69173 4.05366C3.67361 4.05366 3.63221 4.05255 3.55646 3.97059C3.50755 3.91767 3.48793 3.86713 3.49016 3.79064C3.49303 3.69223 3.52046 3.63898 3.55724 3.5987C3.55739 3.59854 3.55754 3.59837 3.55769 3.59821L6.05143 0.900073C6.07772 0.871628 6.09088 0.867661 6.0885 0.868587C6.10912 0.86069 6.13523 0.85483 6.17072 0.854495C6.20441 0.854639 6.22872 0.860206 6.2478 0.867638C6.24825 0.867815 6.25157 0.869127 6.25791 0.8736C6.26437 0.878162 6.27461 0.886469 6.288 0.90081C6.28815 0.900971 6.28831 0.901132 6.28846 0.901295L8.78229 3.59954C8.83124 3.65251 8.85135 3.70367 8.84926 3.78139C8.84662 3.87968 8.81923 3.9309 8.78352 3.96926L8.78229 3.97059C8.72732 4.03007 8.68573 4.04334 8.63832 4.04495C8.60456 4.0461 8.57747 4.04205 8.5302 3.99056L8.52908 3.98934L7.22961 2.58336L6.36243 1.6451V2.92273V8.28418C6.36243 8.38231 6.33583 8.43596 6.29564 8.47945C6.25744 8.52078 6.22656 8.53417 6.17065 8.53403ZM1.125 10.5343V10.5337V9.03403C1.125 8.93589 1.1516 8.88224 1.19179 8.83875C1.22999 8.79743 1.26087 8.78403 1.31677 8.78418H1.31805C1.37523 8.78418 1.40676 8.79812 1.445 8.83951C1.48513 8.88292 1.51131 8.93598 1.5111 9.03294V9.03403V10.5337V11.0337H2.0111H10.3277H10.8277V10.5337V9.03403C10.8277 8.9359 10.8543 8.88224 10.8944 8.83875C10.9326 8.79743 10.9635 8.78403 11.0194 8.78418H11.0207C11.0779 8.78418 11.1094 8.79812 11.1477 8.83951C11.1878 8.88292 11.214 8.93598 11.2138 9.03294V9.03403V10.5337C11.2138 10.8246 11.1225 11.0554 10.9391 11.2539C10.7567 11.4512 10.5615 11.5337 10.3283 11.5334H10.3277H2.0111C1.77704 11.5334 1.58138 11.4505 1.39901 11.2532C1.21557 11.0547 1.12468 10.8243 1.125 10.5343ZM10.3277 10.5337V10.0337L1.31805 8.28418C1.51441 8.28418 1.67913 8.35616 1.81219 8.50013C1.94526 8.64411 2.01156 8.82207 2.0111 9.03403V10.0337V10.5337H2.5111H9.82766H10.3277Z" fill="#4A13E7" stroke="#4A13E7"/>
</svg>
