<svg width="18" height="18" viewBox="0 0 18 18" fill="none" xmlns="http://www.w3.org/2000/svg">
<g clipPath="url(#clip0_1348_40568)">
<path d="M7.43477 0.367188C6.32977 0.367188 5.39477 1.08119 5.03777 2.06719H0.634766V3.76719H5.03777C5.38627 4.75319 6.32127 5.46719 7.43477 5.46719C8.83727 5.46719 9.98477 4.31969 9.98477 2.91719C9.98477 1.51469 8.83727 0.367188 7.43477 0.367188ZM11.6848 2.06719V3.76719H17.6348V2.06719H11.6848ZM11.6848 6.31719C10.5798 6.31719 9.64477 7.03119 9.28777 8.01719H0.634766V9.71719H9.28777C9.63627 10.7032 10.5713 11.4172 11.6848 11.4172C13.0873 11.4172 14.2348 10.2697 14.2348 8.86719C14.2348 7.46469 13.0873 6.31719 11.6848 6.31719ZM15.9348 8.01719V9.71719H17.6348V8.01719H15.9348ZM4.88477 12.2672C3.77977 12.2672 2.84477 12.9812 2.48777 13.9672H0.634766V15.6672H2.48777C2.83627 16.6532 3.77127 17.3672 4.88477 17.3672C6.28727 17.3672 7.43477 16.2197 7.43477 14.8172C7.43477 13.4147 6.28727 12.2672 4.88477 12.2672ZM9.13477 13.9672V15.6672H17.6348V13.9672H9.13477Z" fill="#404040"/>
</g>
<defs>
<clipPath id="clip0_1348_40568">
<rect width="17" height="17" fill="white" transform="translate(0.634766 0.367188)"/>
</clipPath>
</defs>
</svg>
