<svg width="35" height="35" viewBox="0 0 35 35" fill="none" xmlns="http://www.w3.org/2000/svg">
<path id="Vector" d="M12.6743 9.45996C12.6743 8.72644 13.2689 8.13184 14.0024 8.13184H26.7524C28.5146 8.20196 28.5133 10.7186 26.7524 10.7881H14.0024C13.2689 10.7881 12.6743 10.1935 12.6743 9.45996ZM17.1899 24.5342H14.0024C12.2403 24.6043 12.2416 27.1209 14.0024 27.1904H17.1899C18.9521 27.1203 18.9508 24.6037 17.1899 24.5342ZM14.0024 18.7568H21.1079C22.8701 18.6867 22.8687 16.1701 21.1079 16.1006H14.0024C12.2403 16.1707 12.2416 18.6873 14.0024 18.7568ZM8.68994 16.1006C7.95642 16.1006 7.36182 16.6952 7.36182 17.4287C7.43181 19.1905 9.94841 19.1899 10.0181 17.4287C10.0181 16.6952 9.42346 16.1006 8.68994 16.1006ZM34.7212 29.3267C34.7218 31.3757 33.1468 33.3499 30.9959 33.2998H28.2134C28.1401 35.0622 25.6297 35.0608 25.5571 33.2998H22.7082C20.5571 33.3499 18.9823 31.3754 18.983 29.3267C18.983 28.7548 19.3126 28.2599 19.8542 28.0793C20.0002 28.0196 20.9005 27.6094 20.9005 26.5728V25.2646C20.9005 22.4372 22.8994 20.0415 25.5572 19.4366V18.5576C25.6273 16.7955 28.1439 16.7968 28.2134 18.5576V19.4522C30.838 20.0815 32.8038 22.4608 32.8038 25.2646V26.5728C32.8038 27.6094 33.704 28.0196 33.85 28.0793C34.3916 28.2598 34.7212 28.7548 34.7212 29.3267ZM31.8999 30.0079C31.0208 29.3613 30.1475 28.2412 30.1475 26.5728V25.2646C30.1475 23.4589 28.6804 21.9701 26.8772 21.9459C26.8689 21.9459 26.8604 21.9457 26.8521 21.9454C26.8437 21.9457 26.8353 21.9459 26.8269 21.9459C25.0237 21.9701 23.5566 23.4589 23.5566 25.2646V26.5728C23.5566 28.2412 22.6834 29.3613 21.8042 30.0079C21.9475 30.3293 22.2142 30.6436 22.7082 30.6436H30.9959C31.4899 30.6436 31.7565 30.3293 31.8999 30.0079ZM8.68994 8.13184C7.95642 8.13184 7.36182 8.72644 7.36182 9.45996C7.43181 11.2217 9.94841 11.2212 10.0181 9.45996C10.0181 8.72644 9.42346 8.13184 8.68994 8.13184ZM8.68994 24.5342C7.95642 24.5342 7.36182 25.1288 7.36182 25.8623C7.43181 27.6241 9.94841 27.6235 10.0181 25.8623C10.0181 25.1288 9.42346 24.5342 8.68994 24.5342ZM29.4087 0.62793H6.03369C3.10438 0.62793 0.721191 3.01112 0.721191 5.94043V29.3154C0.721191 32.2447 3.10438 34.6279 6.03369 34.6279H16.1274C17.8896 34.5578 17.8883 32.0412 16.1274 31.9717H6.03369C4.56904 31.9717 3.37744 30.7801 3.37744 29.3154V5.94043C3.37744 4.47577 4.56904 3.28418 6.03369 3.28418H29.4087C30.8733 3.28418 32.0649 4.47577 32.0649 5.94043V17.8936C32.1351 19.6557 34.6517 19.6544 34.7212 17.8936V5.94043C34.7212 3.01112 32.338 0.62793 29.4087 0.62793Z" fill="#4A13E7"/>
</svg>
