<svg width="18" height="18" viewBox="0 0 18 18" fill="none" xmlns="http://www.w3.org/2000/svg">
    <g clip-path="url(#clip0_722_36578)">
        <path
            d="M7.43477 0.234375C6.32977 0.234375 5.39477 0.948375 5.03777 1.93438H0.634766V3.63438H5.03777C5.38627 4.62038 6.32127 5.33438 7.43477 5.33438C8.83727 5.33438 9.98477 4.18688 9.98477 2.78438C9.98477 1.38188 8.83727 0.234375 7.43477 0.234375ZM11.6848 1.93438V3.63438H17.6348V1.93438H11.6848ZM11.6848 6.18438C10.5798 6.18438 9.64477 6.89838 9.28777 7.88438H0.634766V9.58438H9.28777C9.63627 10.5704 10.5713 11.2844 11.6848 11.2844C13.0873 11.2844 14.2348 10.1369 14.2348 8.73438C14.2348 7.33188 13.0873 6.18438 11.6848 6.18438ZM15.9348 7.88438V9.58438H17.6348V7.88438H15.9348ZM4.88477 12.1344C3.77977 12.1344 2.84477 12.8484 2.48777 13.8344H0.634766V15.5344H2.48777C2.83627 16.5204 3.77127 17.2344 4.88477 17.2344C6.28727 17.2344 7.43477 16.0869 7.43477 14.6844C7.43477 13.2819 6.28727 12.1344 4.88477 12.1344ZM9.13477 13.8344V15.5344H17.6348V13.8344H9.13477Z"
            fill="#404040" />
    </g>
    <defs>
        <clipPath id="clip0_722_36578">
            <rect width="17" height="17" fill="white" transform="translate(0.634766 0.234375)" />
        </clipPath>
    </defs>
</svg>