<svg width="74" height="74" viewBox="0 0 74 74" fill="none" xmlns="http://www.w3.org/2000/svg">
<circle opacity="0.2" cx="37.2769" cy="36.7905" r="36.6899" fill="#F44336"/>
<path d="M52.6816 23.5967H22.8193V49.9844H52.6816V23.5967Z" fill="#ECEFF1"/>
<path d="M37.2773 39.5655L50.4712 49.9842V29.415L37.2773 39.5655Z" fill="#CFD8DC"/>
<path d="M51.5707 23.5967H50.4712L37.2773 34.0154L24.0835 23.5967H22.984C21.1633 23.5967 19.6855 25.0744 19.6855 26.8951V46.6859C19.6855 48.5067 21.1633 49.9844 22.984 49.9844H24.0835V29.4152L37.2773 39.5634L50.4712 29.413V49.9844H51.5707C53.3914 49.9844 54.8691 48.5067 54.8691 46.6859V26.8951C54.8691 25.0744 53.3914 23.5967 51.5707 23.5967Z" fill="#F44336"/>
</svg>
