<svg width="25" height="25" viewBox="0 0 25 25" fill="none" xmlns="http://www.w3.org/2000/svg">
<path d="M22.4468 10.9006L13.8922 10.9006C13.5194 10.9006 13.2168 11.1729 13.2168 11.5084C13.2168 11.8439 13.5194 12.1162 13.8922 12.1162L22.4468 12.1162C22.8196 12.1162 23.1221 11.8439 23.1221 11.5084C23.1221 11.1729 22.8196 10.9006 22.4468 10.9006Z" fill="#4A13E7"/>
<path d="M19.0712 7.86079C18.8982 7.86079 18.7254 7.92 18.5939 8.03901C18.33 8.27659 18.33 8.66153 18.5939 8.89896L21.4935 11.5085L18.5939 14.1173C18.33 14.3548 18.33 14.7398 18.5939 14.9772C18.8577 15.2146 19.2854 15.2146 19.5494 14.9772L22.9262 11.9381C23.19 11.7006 23.19 11.3157 22.9262 11.0781L19.5494 8.03901C19.417 7.92 19.244 7.86079 19.0712 7.86079Z" fill="#4A13E7"/>
<path d="M8.71477 22.4482C9.70803 22.4482 10.5156 21.7212 10.5156 20.8273V6.23951C10.5156 5.54665 10.0258 4.92829 9.29648 4.70051L3.88634 3.07722C2.6761 2.74333 1.51087 3.55134 1.51087 4.61874V19.2065C1.51087 19.8986 2.00074 20.5161 2.72919 20.7446L8.14115 22.3688C8.33835 22.4239 8.52104 22.4482 8.71477 22.4482ZM3.31189 4.21348C3.37042 4.21348 3.41989 4.22001 3.47298 4.23455L8.86053 5.85131C9.03712 5.90651 9.1649 6.06693 9.1649 6.23951V20.8273C9.1649 21.1038 8.83184 21.2901 8.55352 21.2115L3.16597 19.5947C2.99037 19.5395 2.8616 19.3791 2.8616 19.2065V4.61874C2.8616 4.39585 3.06325 4.21348 3.31189 4.21348Z" fill="#4A13E7"/>
<path d="M15.2431 7.05026C15.6159 7.05026 15.9185 6.77796 15.9185 6.44243V5.22679C15.9185 3.99734 14.8083 2.99805 13.4422 2.99805H3.31184C2.93904 2.99805 2.63648 3.27035 2.63648 3.60587C2.63648 3.94139 2.93904 4.2137 3.31184 4.2137H13.4422C14.0627 4.2137 14.5677 4.66838 14.5677 5.22679V6.44243C14.5677 6.77796 14.8703 7.05026 15.2431 7.05026Z" fill="#4A13E7"/>
<path d="M9.84021 20.0171H13.4422C14.8083 20.0171 15.9185 19.0178 15.9185 17.7883V16.5727C15.9185 16.2371 15.6159 15.9648 15.2431 15.9648C14.8703 15.9648 14.5677 16.2371 14.5677 16.5727V17.7883C14.5677 18.3467 14.0627 18.8014 13.4422 18.8014H9.84021C9.46741 18.8014 9.16485 19.0737 9.16485 19.4092C9.16485 19.7448 9.46741 20.0171 9.84021 20.0171Z" fill="#4A13E7"/>
</svg>
