<svg width="242" height="242" viewBox="0 0 242 242" fill="none" xmlns="http://www.w3.org/2000/svg">
<path d="M241.022 121.234C241.022 159.452 223.23 193.513 195.479 215.587C174.904 231.957 148.858 241.734 120.522 241.734C92.1863 241.734 66.1391 231.956 45.5653 215.587C17.8118 193.513 0.0214844 159.452 0.0214844 121.234C0.0214844 54.6855 53.9726 0.734375 120.521 0.734375C187.07 0.734375 241.021 54.6855 241.021 121.234H241.022Z" fill="#DADADA"/>
<path d="M120.522 159.64C146.387 159.64 167.354 138.673 167.354 112.808C167.354 86.9439 146.387 65.9766 120.522 65.9766C94.6578 65.9766 73.6904 86.9439 73.6904 112.808C73.6904 138.673 94.6578 159.64 120.522 159.64Z" fill="#B2B2B2"/>
<path d="M195.482 215.587C174.907 231.957 148.861 241.734 120.525 241.734C92.1893 241.734 66.1421 231.956 45.5684 215.587C60.6334 193.455 88.5647 178.59 120.525 178.59C152.486 178.59 180.417 193.455 195.482 215.587Z" fill="#B2B2B2"/>
</svg>
