<svg width="404" height="266" viewBox="0 0 404 266" fill="none" xmlns="http://www.w3.org/2000/svg">
<path d="M0 8C0 3.58172 3.58172 0 8 0H396C400.418 0 404 3.58172 404 8V266H0V8Z" fill="#4A13E7" fill-opacity="0.16"/>
<path d="M0 8C0 3.58172 3.58172 0 8 0H396C400.418 0 404 3.58172 404 8V119H0V8Z" fill="#EC2995" fill-opacity="0.2"/>
<rect x="248" y="27" width="127" height="56" rx="5" fill="white" fill-opacity="0.1" stroke="white" stroke-width="2"/>
<path d="M268.692 60.5781H276.304V63.7177H265V40H268.692V60.5781Z" fill="white"/>
<path d="M287.132 64.0248C285.448 64.0248 283.926 63.6267 282.565 62.8304C281.205 62.0114 280.136 60.8738 279.359 59.4178C278.582 57.939 278.193 56.2327 278.193 54.2989C278.193 52.3878 278.592 50.6929 279.391 49.2141C280.19 47.7353 281.281 46.5977 282.663 45.8014C284.044 45.0052 285.588 44.607 287.294 44.607C289 44.607 290.544 45.0052 291.926 45.8014C293.308 46.5977 294.398 47.7353 295.197 49.2141C295.996 50.6929 296.395 52.3878 296.395 54.2989C296.395 56.2099 295.985 57.9049 295.165 59.3837C294.344 60.8625 293.221 62.0114 291.796 62.8304C290.393 63.6267 288.838 64.0248 287.132 64.0248ZM287.132 60.6463C288.082 60.6463 288.968 60.4074 289.788 59.9297C290.63 59.4519 291.31 58.7353 291.829 57.7797C292.347 56.8242 292.606 55.6639 292.606 54.2989C292.606 52.9338 292.358 51.7849 291.861 50.8521C291.364 49.8966 290.706 49.1799 289.885 48.7022C289.065 48.2244 288.179 47.9855 287.229 47.9855C286.279 47.9855 285.394 48.2244 284.573 48.7022C283.775 49.1799 283.138 49.8966 282.663 50.8521C282.188 51.7849 281.95 52.9338 281.95 54.2989C281.95 56.3237 282.436 57.8935 283.408 59.0083C284.401 60.1003 285.642 60.6463 287.132 60.6463Z" fill="white"/>
<path d="M307.236 44.607C308.617 44.607 309.837 44.9028 310.895 45.4943C311.975 46.0631 312.817 46.7797 313.422 47.6443V44.9142H317.146V64.0248C317.146 65.7539 316.801 67.2896 316.11 68.6319C315.419 69.9969 314.415 71.0662 313.098 71.8397C311.802 72.6132 310.248 73 308.434 73C306.016 73 304.007 72.3971 302.41 71.1913C300.812 70.0083 299.905 68.393 299.689 66.3454H303.349C303.63 67.3237 304.223 68.1086 305.13 68.7001C306.059 69.3144 307.16 69.6215 308.434 69.6215C309.924 69.6215 311.122 69.1437 312.029 68.1882C312.958 67.2327 313.422 65.8449 313.422 64.0248V60.8852C312.796 61.7725 311.943 62.5233 310.863 63.1375C309.805 63.7291 308.596 64.0248 307.236 64.0248C305.681 64.0248 304.256 63.6153 302.96 62.7963C301.686 61.9545 300.671 60.7942 299.916 59.3154C299.182 57.8139 298.815 56.1189 298.815 54.2306C298.815 52.3423 299.182 50.6701 299.916 49.2141C300.671 47.758 301.686 46.6319 302.96 45.8356C304.256 45.0165 305.681 44.607 307.236 44.607ZM313.422 54.2989C313.422 53.0021 313.163 51.8759 312.644 50.9204C312.148 49.9648 311.489 49.2368 310.669 48.7363C309.848 48.2358 308.963 47.9855 308.013 47.9855C307.063 47.9855 306.178 48.2358 305.357 48.7363C304.537 49.2141 303.867 49.9307 303.349 50.8862C302.852 51.819 302.604 52.9338 302.604 54.2306C302.604 55.5274 302.852 56.6649 303.349 57.6432C303.867 58.6215 304.537 59.3723 305.357 59.8956C306.199 60.3961 307.084 60.6463 308.013 60.6463C308.963 60.6463 309.848 60.3961 310.669 59.8956C311.489 59.395 312.148 58.667 312.644 57.7115C313.163 56.7332 313.422 55.5957 313.422 54.2989Z" fill="white"/>
<path d="M329.737 64.0248C328.053 64.0248 326.53 63.6267 325.17 62.8304C323.81 62.0114 322.741 60.8738 321.964 59.4178C321.186 57.939 320.798 56.2327 320.798 54.2989C320.798 52.3878 321.197 50.6929 321.996 49.2141C322.795 47.7353 323.885 46.5977 325.267 45.8014C326.649 45.0052 328.193 44.607 329.899 44.607C331.605 44.607 333.148 45.0052 334.53 45.8014C335.912 46.5977 337.003 47.7353 337.802 49.2141C338.601 50.6929 339 52.3878 339 54.2989C339 56.2099 338.59 57.9049 337.769 59.3837C336.949 60.8625 335.826 62.0114 334.401 62.8304C332.997 63.6267 331.443 64.0248 329.737 64.0248ZM329.737 60.6463C330.687 60.6463 331.572 60.4074 332.393 59.9297C333.235 59.4519 333.915 58.7353 334.433 57.7797C334.951 56.8242 335.211 55.6639 335.211 54.2989C335.211 52.9338 334.962 51.7849 334.466 50.8521C333.969 49.8966 333.31 49.1799 332.49 48.7022C331.669 48.2244 330.784 47.9855 329.834 47.9855C328.884 47.9855 327.999 48.2244 327.178 48.7022C326.379 49.1799 325.742 49.8966 325.267 50.8521C324.792 51.7849 324.555 52.9338 324.555 54.2989C324.555 56.3237 325.041 57.8935 326.012 59.0083C327.005 60.1003 328.247 60.6463 329.737 60.6463Z" fill="white"/>
<rect x="28" y="32" width="151" height="6" rx="3" fill="white"/>
<rect x="28" y="46" width="151" height="6" rx="3" fill="white"/>
<rect x="28" y="60" width="151" height="6" rx="3" fill="white"/>
<rect x="28" y="74" width="86" height="6" rx="3" fill="white"/>
<rect x="34" y="172" width="342" height="8" rx="4" fill="white"/>
<rect x="34" y="156" width="342" height="8" rx="4" fill="white"/>
<rect x="34" y="188" width="342" height="8" rx="4" fill="white"/>
<rect x="34" y="204" width="342" height="8" rx="4" fill="white"/>
<rect x="34" y="220" width="194.781" height="8" rx="4" fill="white"/>
</svg>
