<svg width="45" height="45" viewBox="0 0 45 45" fill="none" xmlns="http://www.w3.org/2000/svg">
<path d="M44.173 22.2326C44.173 29.2122 40.9238 35.4326 35.8558 39.4637C32.0983 42.4533 27.3417 44.2387 22.1669 44.2387C16.9921 44.2387 12.2353 42.4531 8.47802 39.4637C3.40958 35.4326 0.160645 29.2122 0.160645 22.2326C0.160645 10.0793 10.0134 0.226562 22.1667 0.226562C34.32 0.226562 44.1728 10.0793 44.1728 22.2326H44.173Z" fill="#DADADA"/>
<path d="M22.1669 29.2458C26.8903 29.2458 30.7194 25.4167 30.7194 20.6932C30.7194 15.9698 26.8903 12.1406 22.1669 12.1406C17.4434 12.1406 13.6143 15.9698 13.6143 20.6932C13.6143 25.4167 17.4434 29.2458 22.1669 29.2458Z" fill="#B2B2B2"/>
<path d="M35.8563 39.4636C32.0988 42.4532 27.3422 44.2386 22.1674 44.2386C16.9926 44.2386 12.2358 42.453 8.47852 39.4636C11.2297 35.4218 16.3307 32.707 22.1674 32.707C28.0042 32.707 33.1051 35.4218 35.8563 39.4636Z" fill="#B2B2B2"/>
</svg>
