<svg width="404" height="266" viewBox="0 0 404 266" fill="none" xmlns="http://www.w3.org/2000/svg">
<path d="M0 8C0 3.58172 3.58172 0 8 0H396C400.418 0 404 3.58172 404 8V266H0V8Z" fill="#4A13E7" fill-opacity="0.16"/>
<path d="M0 8C0 3.58172 3.58172 0 8 0H396C400.418 0 404 3.58172 404 8V119H0V8Z" fill="#EC2995" fill-opacity="0.2"/>
<rect x="29" y="27" width="127" height="56" rx="5" fill="white" fill-opacity="0.1" stroke="white" stroke-width="2"/>
<path d="M49.6923 60.5781H57.3036V63.7177H46V40H49.6923V60.5781Z" fill="white"/>
<path d="M68.1322 64.0248C66.448 64.0248 64.9257 63.6267 63.5654 62.8304C62.2051 62.0114 61.1363 60.8738 60.359 59.4178C59.5816 57.939 59.193 56.2327 59.193 54.2989C59.193 52.3878 59.5924 50.6929 60.3913 49.2141C61.1903 47.7353 62.2807 46.5977 63.6626 45.8014C65.0445 45.0052 66.5883 44.607 68.2941 44.607C69.9999 44.607 71.5438 45.0052 72.9257 45.8014C74.3076 46.5977 75.398 47.7353 76.1969 49.2141C76.9958 50.6929 77.3953 52.3878 77.3953 54.2989C77.3953 56.2099 76.985 57.9049 76.1645 59.3837C75.344 60.8625 74.2212 62.0114 72.7961 62.8304C71.3926 63.6267 69.838 64.0248 68.1322 64.0248ZM68.1322 60.6463C69.0822 60.6463 69.9675 60.4074 70.788 59.9297C71.6301 59.4519 72.3103 58.7353 72.8285 57.7797C73.3467 56.8242 73.6058 55.6639 73.6058 54.2989C73.6058 52.9338 73.3575 51.7849 72.8609 50.8521C72.3643 49.8966 71.7057 49.1799 70.8852 48.7022C70.0647 48.2244 69.1794 47.9855 68.2294 47.9855C67.2793 47.9855 66.394 48.2244 65.5735 48.7022C64.7746 49.1799 64.1376 49.8966 63.6626 50.8521C63.1876 51.7849 62.95 52.9338 62.95 54.2989C62.95 56.3237 63.4359 57.8935 64.4075 59.0083C65.4008 60.1003 66.6423 60.6463 68.1322 60.6463Z" fill="white"/>
<path d="M88.2355 44.607C89.6174 44.607 90.8374 44.9028 91.8954 45.4943C92.975 46.0631 93.8172 46.7797 94.4217 47.6443V44.9142H98.1464V64.0248C98.1464 65.7539 97.8009 67.2896 97.11 68.6319C96.419 69.9969 95.415 71.0662 94.0979 71.8397C92.8023 72.6132 91.2477 73 89.4339 73C87.0156 73 85.0075 72.3971 83.4097 71.1913C81.8118 70.0083 80.905 68.393 80.689 66.3454H84.3489C84.6296 67.3237 85.2234 68.1086 86.1303 68.7001C87.0588 69.3144 88.16 69.6215 89.4339 69.6215C90.9238 69.6215 92.1222 69.1437 93.029 68.1882C93.9575 67.2327 94.4217 65.8449 94.4217 64.0248V60.8852C93.7956 61.7725 92.9427 62.5233 91.863 63.1375C90.805 63.7291 89.5959 64.0248 88.2355 64.0248C86.6809 64.0248 85.2558 63.6153 83.9603 62.7963C82.6863 61.9545 81.6715 60.7942 80.9158 59.3154C80.1816 57.8139 79.8145 56.1189 79.8145 54.2306C79.8145 52.3423 80.1816 50.6701 80.9158 49.2141C81.6715 47.758 82.6863 46.6319 83.9603 45.8356C85.2558 45.0165 86.6809 44.607 88.2355 44.607ZM94.4217 54.2989C94.4217 53.0021 94.1626 51.8759 93.6444 50.9204C93.1478 49.9648 92.4892 49.2368 91.6687 48.7363C90.8482 48.2358 89.9629 47.9855 89.0129 47.9855C88.0628 47.9855 87.1775 48.2358 86.357 48.7363C85.5365 49.2141 84.8671 49.9307 84.3489 50.8862C83.8523 51.819 83.604 52.9338 83.604 54.2306C83.604 55.5274 83.8523 56.6649 84.3489 57.6432C84.8671 58.6215 85.5365 59.3723 86.357 59.8956C87.1991 60.3961 88.0844 60.6463 89.0129 60.6463C89.9629 60.6463 90.8482 60.3961 91.6687 59.8956C92.4892 59.395 93.1478 58.667 93.6444 57.7115C94.1626 56.7332 94.4217 55.5957 94.4217 54.2989Z" fill="white"/>
<path d="M110.737 64.0248C109.053 64.0248 107.53 63.6267 106.17 62.8304C104.81 62.0114 103.741 60.8738 102.964 59.4178C102.186 57.939 101.798 56.2327 101.798 54.2989C101.798 52.3878 102.197 50.6929 102.996 49.2141C103.795 47.7353 104.885 46.5977 106.267 45.8014C107.649 45.0052 109.193 44.607 110.899 44.607C112.605 44.607 114.148 45.0052 115.53 45.8014C116.912 46.5977 118.003 47.7353 118.802 49.2141C119.601 50.6929 120 52.3878 120 54.2989C120 56.2099 119.59 57.9049 118.769 59.3837C117.949 60.8625 116.826 62.0114 115.401 62.8304C113.997 63.6267 112.443 64.0248 110.737 64.0248ZM110.737 60.6463C111.687 60.6463 112.572 60.4074 113.393 59.9297C114.235 59.4519 114.915 58.7353 115.433 57.7797C115.951 56.8242 116.211 55.6639 116.211 54.2989C116.211 52.9338 115.962 51.7849 115.466 50.8521C114.969 49.8966 114.31 49.1799 113.49 48.7022C112.669 48.2244 111.784 47.9855 110.834 47.9855C109.884 47.9855 108.999 48.2244 108.178 48.7022C107.379 49.1799 106.742 49.8966 106.267 50.8521C105.792 51.7849 105.555 52.9338 105.555 54.2989C105.555 56.3237 106.041 57.8935 107.012 59.0083C108.005 60.1003 109.247 60.6463 110.737 60.6463Z" fill="white"/>
<rect x="225" y="32" width="151" height="6" rx="3" fill="white"/>
<rect x="225" y="46" width="151" height="6" rx="3" fill="white"/>
<rect x="225" y="60" width="151" height="6" rx="3" fill="white"/>
<rect x="225" y="74" width="86" height="6" rx="3" fill="white"/>
<rect x="34" y="172" width="342" height="8" rx="4" fill="white"/>
<rect x="34" y="156" width="342" height="8" rx="4" fill="white"/>
<rect x="34" y="188" width="342" height="8" rx="4" fill="white"/>
<rect x="34" y="204" width="342" height="8" rx="4" fill="white"/>
<rect x="34" y="220" width="194.781" height="8" rx="4" fill="white"/>
</svg>
