<svg width="15" height="13" viewBox="0 0 15 13" fill="none" xmlns="http://www.w3.org/2000/svg">
<path d="M14.5695 6.54009L14.755 6.23622L14.5695 5.93234C14.0176 5.02805 11.2091 1.06487 7.55133 1.06487C6.39061 1.06487 5.28727 1.46278 4.28531 2.08906L2.32143 0.0839844L1.52549 0.896575L3.3497 2.75906C2.24937 3.64793 1.13263 4.94999 0.533095 5.93234L0.347656 6.23622L0.533123 6.54009C1.08502 7.44439 3.89352 11.4076 7.55133 11.4076C8.71205 11.4076 9.8154 11.0097 10.8174 10.3834L12.7813 12.3885L13.5772 11.5759L11.753 9.7134C12.8533 8.8245 13.97 7.52242 14.5695 6.54009ZM7.55133 10.2584C4.71387 10.2584 2.37757 7.22009 1.69531 6.23576C2.07235 5.69035 2.95508 4.51629 4.15058 3.57671L5.20457 4.65281C4.90952 5.10711 4.7374 5.65148 4.7374 6.23622C4.7374 7.82037 5.9997 9.10919 7.55133 9.10919C8.12405 9.10919 8.65724 8.93345 9.1022 8.63222L9.99616 9.54493C9.25176 9.97111 8.42593 10.2584 7.55133 10.2584ZM9.07468 6.97894L6.82387 4.68088C7.04429 4.57297 7.29099 4.51241 7.55133 4.51241C8.48229 4.51241 9.23969 5.2857 9.23969 6.23619C9.23969 6.502 9.18037 6.7539 9.07468 6.97894ZM8.27879 7.79156C8.05837 7.89944 7.81165 7.96 7.55133 7.96C6.62037 7.96 5.86297 7.18671 5.86297 6.23622C5.86297 5.97044 5.92229 5.71854 6.02798 5.4935L8.27879 7.79156ZM10.9521 8.8957L9.8981 7.8196C10.1931 7.36532 10.3653 6.82095 10.3653 6.23622C10.3653 4.65206 9.10296 3.36325 7.55133 3.36325C6.97861 3.36325 6.44543 3.53899 6.00046 3.84022L5.1065 2.92751C5.8509 2.50133 6.67673 2.21406 7.55133 2.21406C10.3886 2.21406 12.7248 5.25191 13.4074 6.23668C13.0303 6.78208 12.1476 7.95615 10.9521 8.8957Z" fill="#8F8F8F"/>
</svg>
