<svg width="33" height="30" viewBox="0 0 33 30" fill="none" xmlns="http://www.w3.org/2000/svg">
<path d="M32.4357 5.5188C30.9533 3.40169 28.0059 2.84376 25.8884 4.32619L15.0006 11.9498L11.0415 9.1773C12.5157 6.63216 11.8223 3.33866 9.36787 1.62025C6.77598 -0.194021 3.2049 0.435592 1.38987 3.02698C-0.424341 5.6185 0.204771 9.19034 2.79672 11.0054C4.57528 12.2507 6.81558 12.344 8.63224 11.4429L13.4814 14.8381L8.63268 18.233C6.81602 17.3323 4.57585 17.4256 2.79716 18.6705C0.205335 20.4855 -0.42384 24.057 1.39031 26.6484C3.20533 29.2403 6.7768 29.8699 9.36825 28.0556C11.8224 26.3372 12.5156 23.0437 11.0419 20.4986L15.001 17.7261L25.8883 25.3492C28.0058 26.8321 30.9532 26.2738 32.4357 24.1566L19.1259 14.8381L32.4357 5.5188ZM6.09492 9.29498C4.45491 9.29498 3.12532 7.96539 3.12532 6.32537C3.12532 4.68536 4.45497 3.35576 6.09492 3.35576C7.73532 3.35576 9.06453 4.68536 9.06453 6.32537C9.06453 7.96539 7.73532 9.29498 6.09492 9.29498ZM6.09492 26.3207C4.45491 26.3207 3.12532 24.9911 3.12532 23.3511C3.12532 21.7111 4.45491 20.3815 6.09492 20.3815C7.73532 20.3815 9.06453 21.7111 9.06453 23.3511C9.06453 24.9911 7.73532 26.3207 6.09492 26.3207Z" fill="#8F8F8F"/>
</svg>
