<svg width="17" height="17" viewBox="0 0 17 17" fill="none" xmlns="http://www.w3.org/2000/svg">
<path d="M7.67642 4.494H7.67692L7.6763 4.48786V1.72222H8.95944V4.494C8.95944 4.84771 8.67158 5.13556 8.31787 5.13556C7.96447 5.13556 7.67672 4.848 7.67642 4.49472V4.494ZM14.2353 3.95203H10.0434V1.18025C10.0434 0.880887 9.80062 0.638281 9.50141 0.638281H7.13433C6.83512 0.638281 6.59236 0.880887 6.59236 1.18025V3.95203H2.40041C1.44893 3.95203 0.674902 4.72605 0.674902 5.67754V14.1987C0.674902 15.1502 1.44893 15.9242 2.40041 15.9242H14.2353C15.1869 15.9242 15.9608 15.1502 15.9608 14.1987V5.67754C15.9608 4.72605 15.1868 3.95203 14.2353 3.95203ZM14.8769 14.1987C14.8769 14.5523 14.589 14.8403 14.2353 14.8403H2.40041C2.0467 14.8403 1.75884 14.5524 1.75884 14.1987V5.67754C1.75884 5.32393 2.04671 5.03597 2.40041 5.03597H6.68008C6.90786 5.72254 7.55543 6.21951 8.31787 6.21951C9.08031 6.21951 9.72788 5.72254 9.95566 5.03597H14.2353C14.589 5.03597 14.8769 5.32393 14.8769 5.67754V14.1987Z" fill="#4B4B4B" stroke="#4B4B4B" strokeWidth="0.2"/>
<path d="M6.70693 9.83044C6.94291 9.53532 7.08433 9.16118 7.08433 8.75466C7.08433 7.80318 6.31043 7.02915 5.35882 7.02915C4.40733 7.02915 3.63343 7.80318 3.63343 8.75466C3.63343 9.16118 3.77485 9.53532 4.01082 9.83044C3.42483 10.251 3.0416 10.9379 3.0416 11.7133V12.3052C3.0416 12.6044 3.28434 12.8471 3.58357 12.8471H7.13407C7.43344 12.8471 7.67604 12.6044 7.67604 12.3052V11.7133C7.67604 10.9379 7.29292 10.251 6.70693 9.83044ZM4.71737 8.75466C4.71737 8.40104 5.00525 8.11309 5.35882 8.11309C5.71252 8.11309 6.00039 8.40105 6.00039 8.75466C6.00039 9.10837 5.71253 9.39623 5.35882 9.39623C5.00525 9.39623 4.71737 9.10827 4.71737 8.75466ZM4.12554 11.7632V11.7134C4.12554 11.0334 4.67892 10.4802 5.35882 10.4802C6.03883 10.4802 6.5921 11.0334 6.5921 11.7134V11.7632H4.12554Z" fill="#4B4B4B" stroke="#4B4B4B" strokeWidth="0.2"/>
<path d="M13.052 11.7633H9.50154C9.20219 11.7633 8.95957 12.0059 8.95957 12.3053C8.95957 12.6046 9.20219 12.8472 9.50154 12.8472H13.052C13.3513 12.8472 13.594 12.6046 13.594 12.3053C13.594 12.0059 13.3513 11.7633 13.052 11.7633Z" fill="#4B4B4B" stroke="#4B4B4B" strokeWidth="0.2"/>
<path d="M13.052 9.39609H9.50154C9.20219 9.39609 8.95957 9.63872 8.95957 9.93806C8.95957 10.2374 9.20219 10.48 9.50154 10.48H13.052C13.3513 10.48 13.594 10.2374 13.594 9.93806C13.594 9.6387 13.3513 9.39609 13.052 9.39609Z" fill="#4B4B4B" stroke="#4B4B4B" strokeWidth="0.2"/>
<path d="M13.052 7.02915H9.50154C9.20218 7.02915 8.95957 7.2719 8.95957 7.57112C8.95957 7.87047 9.20219 8.11309 9.50154 8.11309H13.052C13.3513 8.11309 13.594 7.87049 13.594 7.57112C13.594 7.27189 13.3513 7.02915 13.052 7.02915Z" fill="#4B4B4B" stroke="#4B4B4B" strokeWidth="0.2"/>
</svg>
