<svg width="17" height="16" viewBox="0 0 17 16" fill="none" xmlns="http://www.w3.org/2000/svg">
<path d="M6.97473 6.11737C7.58182 6.11737 8.07396 5.59594 8.07396 4.95273C8.07396 4.30951 7.58182 3.78809 6.97473 3.78809C6.36763 3.78809 5.87549 4.30951 5.87549 4.95273C5.87549 5.59594 6.36763 6.11737 6.97473 6.11737Z" fill="#4A13E7"/>
<path d="M15.9973 9.23935C15.4782 8.72173 14.8217 8.38204 14.1042 8.28499V2.36474C14.1042 1.73389 13.8599 1.16775 13.4782 0.747182C13.0813 0.326618 12.5469 0.0839844 11.9515 0.0839844H3.09652C2.5011 0.0839844 1.96675 0.342793 1.5698 0.747182C1.17286 1.16775 0.943848 1.73389 0.943848 2.36474V9.82167V10.5172V12.0215C0.943848 12.6524 1.18812 13.2185 1.5698 13.6391C1.96675 14.0597 2.5011 14.3023 3.09652 14.3023H11.6614C12.2263 14.7876 12.9286 15.0949 13.7072 15.0949C14.608 15.0949 15.4171 14.7067 15.9973 14.092C16.5774 13.4773 16.9438 12.62 16.9438 11.6657C16.9438 10.7113 16.5774 9.85402 15.9973 9.23935ZM1.75301 2.36474C1.75301 1.97652 1.90568 1.62066 2.14995 1.37803C2.39423 1.11922 2.73011 0.957464 3.09652 0.957464H11.9515C12.3179 0.957464 12.6538 1.11922 12.898 1.37803C13.1423 1.63684 13.295 1.9927 13.295 2.38091V7.42769L11.0354 5.0337C10.8828 4.87195 10.6232 4.85577 10.4553 5.0337L7.05072 8.65703L4.74537 6.19834C4.5927 6.03659 4.33316 6.02041 4.16522 6.19834L1.75301 8.78643V2.36474ZM3.08125 13.4773V13.445C2.71484 13.445 2.37896 13.2832 2.13469 13.0244C1.90568 12.7656 1.75301 12.4098 1.75301 12.0215V10.5172V10.0158L4.4553 7.13653L6.76064 9.57903C6.91331 9.74079 7.17286 9.74079 7.34079 9.57903L10.7454 5.95571L12.9744 8.33352C12.9286 8.34969 12.8828 8.36587 12.837 8.38204C12.7759 8.39822 12.7148 8.41439 12.6385 8.44675C12.5774 8.46292 12.5164 8.49527 12.4553 8.51145C12.4095 8.52762 12.379 8.5438 12.3332 8.57615C12.2721 8.6085 12.2263 8.62468 12.1805 8.65703C12.1042 8.70555 12.0278 8.75408 11.9515 8.80261C11.9057 8.83496 11.8751 8.85113 11.8293 8.88349C11.7988 8.89966 11.7835 8.91584 11.753 8.93201C11.6156 9.02907 11.4935 9.14229 11.3866 9.2717C10.8064 9.88637 10.44 10.7437 10.44 11.698C10.44 11.9407 10.4706 12.1671 10.5164 12.4098C10.5316 12.4745 10.5469 12.523 10.5622 12.5877C10.608 12.7494 10.6538 12.9112 10.7148 13.073V13.0891C10.7759 13.2185 10.837 13.3641 10.9133 13.4773H3.08125ZM15.4019 13.4773C14.9591 13.9464 14.3637 14.2214 13.6919 14.2214C13.0507 14.2214 12.4553 13.9464 12.0278 13.5097C11.9667 13.445 11.9057 13.3641 11.8446 13.2994C11.7988 13.2509 11.753 13.1862 11.7072 13.1377C11.6461 13.0568 11.6003 12.9597 11.5545 12.8627C11.524 12.798 11.4935 12.7494 11.4629 12.6847C11.4324 12.6039 11.4019 12.5068 11.3866 12.4098C11.3713 12.3451 11.3408 12.2642 11.3255 12.1995C11.295 12.0377 11.2797 11.8598 11.2797 11.6819C11.2797 10.9701 11.5545 10.3393 11.982 9.87019C12.4095 9.4011 13.0202 9.12612 13.6919 9.12612C14.3637 9.12612 14.9591 9.41728 15.4019 9.87019C15.8446 10.3393 16.1042 10.9701 16.1042 11.6819C16.1042 12.3774 15.8293 13.0083 15.4019 13.4773Z" fill="#4A13E7"/>
<path d="M13.9835 9.93409C13.953 9.90174 13.9072 9.86939 13.8461 9.83704C13.8003 9.82086 13.7545 9.80469 13.7087 9.80469C13.6934 9.80469 13.6934 9.80469 13.6934 9.80469C13.6782 9.80469 13.6782 9.80469 13.6782 9.80469C13.6324 9.80469 13.5866 9.82086 13.5408 9.83704C13.495 9.85321 13.4492 9.88557 13.4034 9.93409L12.4568 10.937C12.3041 11.0987 12.3041 11.3737 12.4568 11.5516C12.6095 11.7134 12.869 11.7134 13.0369 11.5516L13.2812 11.2928V13.0722C13.2812 13.3148 13.4644 13.5089 13.6934 13.5089C13.9224 13.5089 14.1056 13.3148 14.1056 13.0722V11.2928L14.3499 11.5516C14.5026 11.7134 14.7621 11.7134 14.9301 11.5516C15.0827 11.3899 15.0827 11.1149 14.9301 10.937L13.9835 9.93409Z" fill="#4A13E7"/>
</svg>
