<svg width="17" height="17" viewBox="0 0 17 17" fill="none" xmlns="http://www.w3.org/2000/svg">
<circle opacity="0.8" cx="8.89868" cy="8.50879" r="8" fill="#FF0000"/>
<path d="M11.9069 4.75263H10.5511V4.42337C10.5511 3.94276 10.1601 3.55176 9.67951 3.55176H8.12997C7.64936 3.55176 7.25836 3.94276 7.25836 4.42337V4.75263H5.90253C5.36767 4.75263 4.93408 5.18622 4.93408 5.72108V5.81791C4.93408 5.97836 5.06415 6.10846 5.22463 6.10846H12.5848C12.7453 6.10846 12.8754 5.97839 12.8754 5.81791V5.72108C12.8754 5.18622 12.4418 4.75263 11.9069 4.75263ZM7.83945 4.42337C7.83945 4.26315 7.96979 4.13282 8.13 4.13282H9.67954C9.83976 4.13282 9.97009 4.26315 9.97009 4.42337V4.75263H7.83949L7.83945 4.42337ZM5.66758 12.4642C5.69976 13.0275 6.16694 13.4687 6.73112 13.4687H11.0783C11.6425 13.4687 12.1097 13.0275 12.1419 12.4642L12.4719 6.68952H5.33759L5.66758 12.4642ZM10.8828 8.03544C10.8883 7.87509 11.0227 7.74952 11.1831 7.75504C11.3435 7.76052 11.469 7.89499 11.4635 8.05537L11.324 12.1229C11.3185 12.2832 11.1841 12.4088 11.0237 12.4033C10.8633 12.3978 10.7378 12.2633 10.7433 12.1029L10.8828 8.03544ZM9.37038 8.04207C9.37221 7.88163 9.50376 7.75303 9.66421 7.75487C9.82465 7.75671 9.95324 7.88826 9.9514 8.0487L9.90491 12.1162C9.90307 12.2766 9.77152 12.4052 9.61108 12.4034C9.45063 12.4016 9.32204 12.27 9.32388 12.1096L9.37038 8.04207ZM8.14527 7.75487C8.30571 7.75303 8.4373 7.88163 8.4391 8.04207L8.4856 12.1096C8.48744 12.27 8.35885 12.4016 8.1984 12.4034C8.03796 12.4052 7.90638 12.2766 7.90457 12.1162L7.85807 8.0487C7.85623 7.88826 7.98483 7.75671 8.14527 7.75487ZM6.6264 7.755C6.78675 7.74952 6.92122 7.87506 6.9267 8.0354L7.06616 12.1029C7.07165 12.2633 6.94611 12.3977 6.78576 12.4032C6.62542 12.4087 6.49095 12.2832 6.48546 12.1228L6.346 8.05534C6.34048 7.89496 6.46602 7.76052 6.6264 7.755Z" fill="white"/>
</svg>
