<svg width="52" height="52" viewBox="0 0 52 52" fill="none" xmlns="http://www.w3.org/2000/svg">
<rect x="0.0234375" y="0.627197" width="51" height="51" rx="25.5" fill="#4A13E7"/>
<path d="M25.518 37.6644C24.9543 37.6634 24.4036 37.5005 23.9354 37.1961C23.4671 36.8917 23.1025 36.4596 22.8875 35.9543C22.6724 35.449 22.6167 34.8933 22.7273 34.3573C22.8379 33.8213 23.1098 33.3291 23.5087 32.9429C23.9077 32.5568 24.4157 32.2939 24.9687 32.1876C25.5216 32.0814 26.0946 32.1364 26.6153 32.3458C27.136 32.5552 27.581 32.9096 27.8941 33.3641C28.2071 33.8187 28.3742 34.353 28.3742 34.8996C28.3729 35.6333 28.0714 36.3366 27.5359 36.8549C27.0004 37.3733 26.2746 37.6644 25.518 37.6644ZM28.2835 28.1425C28.2358 28.57 28.0366 28.9682 27.7198 29.2691C27.3991 29.5725 26.9819 29.7618 26.5362 29.8059H26.5227C26.2439 29.8373 25.9634 29.853 25.6827 29.8532C25.346 29.8547 25.0095 29.839 24.6746 29.8059H24.6603C24.2136 29.7625 23.7954 29.5732 23.4741 29.2691C23.1573 28.9686 22.958 28.5706 22.9105 28.1433C22.8416 27.5193 22.8071 23.1864 22.8071 22.2211C22.8071 21.2558 22.8416 16.9107 22.9105 16.2875C22.9581 15.86 23.1574 15.4618 23.4741 15.1609C23.7946 14.8577 24.2115 14.6688 24.6569 14.6249H24.6712C25.0061 14.5925 25.343 14.5827 25.6793 14.5956C25.9597 14.5827 26.2407 14.5925 26.5194 14.6249H26.5328C26.9785 14.6687 27.3957 14.8577 27.7164 15.1609C28.0329 15.462 28.2321 15.8601 28.2801 16.2875C28.3482 16.9107 28.3835 21.2566 28.3835 22.2211C28.3835 23.1856 28.3515 27.5185 28.2835 28.1425Z" fill="white"/>
</svg>
