<svg width="14" height="11" viewBox="0 0 14 11" fill="none" xmlns="http://www.w3.org/2000/svg">
<path d="M12.4318 0.550781H1.33559C0.684487 0.550781 0.152344 1.08058 0.152344 1.73402V8.83348C0.152344 9.48716 0.684829 10.0167 1.33559 10.0167H12.4318C13.0829 10.0167 13.615 9.48692 13.615 8.83348V1.73402C13.615 1.08043 13.0826 0.550781 12.4318 0.550781ZM12.2501 1.33961C11.8675 1.72343 7.37394 6.23166 7.18932 6.41688C7.03514 6.57154 6.7323 6.57165 6.57804 6.41688L1.51728 1.33961H12.2501ZM0.941172 8.68847V1.87904L4.33484 5.28375L0.941172 8.68847ZM1.51728 9.22789L4.89173 5.84245L6.01936 6.97376C6.48146 7.43736 7.28609 7.43718 7.74803 6.97376L8.87566 5.84248L12.2501 9.22789H1.51728ZM12.8262 8.68847L9.43252 5.28375L12.8262 1.87904V8.68847Z" fill="#4A13E7"/>
</svg>
