<svg width="75" height="75" viewBox="0 0 75 75" fill="none" xmlns="http://www.w3.org/2000/svg">
<circle cx="37.3521" cy="37.3579" r="36.6899" fill="#E90069" fill-opacity="0.2"/>
<path d="M50.7409 31.6003C50.6729 30.1137 50.4368 29.0985 50.0916 28.2103C49.741 27.2784 49.1913 26.4344 48.4808 25.7367C47.7833 25.0262 46.939 24.4762 46.0071 24.1254C45.1187 23.7804 44.1037 23.5445 42.6171 23.477C41.1278 23.4088 40.6519 23.3926 36.8592 23.3926C33.0665 23.3926 32.5906 23.4088 31.1013 23.4765C29.6147 23.5445 28.5997 23.7806 27.7113 24.1259C26.7794 24.4764 25.9353 25.0262 25.2376 25.7367C24.5272 26.4341 23.9772 27.2782 23.6264 28.2101C23.2814 29.0985 23.0455 30.1137 22.9779 31.6001C22.9098 33.0897 22.8936 33.5653 22.8936 37.358C22.8936 41.151 22.9098 41.6268 22.9779 43.1162C23.0457 44.6025 23.2818 45.6177 23.627 46.5062C23.9776 47.4378 24.5274 48.2821 25.2379 48.9796C25.9353 49.6901 26.7796 50.2399 27.7115 50.5904C28.5997 50.9358 29.6149 51.1717 31.1015 51.2397C32.5911 51.3077 33.0667 51.3237 36.8594 51.3237C40.6522 51.3237 41.128 51.3077 42.6174 51.2397C44.1039 51.1717 45.1189 50.9358 46.0073 50.5904C47.8833 49.865 49.3662 48.3821 50.0916 46.5062C50.437 45.6177 50.6729 44.6025 50.7409 43.1162C50.8087 41.6266 50.8249 41.151 50.8249 37.3582C50.8249 33.5653 50.8087 33.0897 50.7409 31.6003ZM48.227 43.0017C48.165 44.3634 47.9374 45.1029 47.7462 45.5949C47.2763 46.813 46.3138 47.7756 45.0957 48.2455C44.6037 48.4366 43.8642 48.6642 42.5025 48.7262C41.0302 48.7936 40.5884 48.8076 36.8592 48.8076C33.1298 48.8076 32.6882 48.7936 31.2157 48.7262C29.8542 48.6642 29.1148 48.4366 28.6225 48.2455C28.016 48.0215 27.4673 47.6646 27.0168 47.2006C26.5529 46.7502 26.196 46.2016 25.972 45.5949C25.7808 45.1029 25.5532 44.3634 25.4912 43.0017C25.4241 41.5292 25.4098 41.0875 25.4098 37.3584C25.4098 33.6292 25.4241 33.1877 25.4912 31.7149C25.5535 30.3532 25.7808 29.6138 25.972 29.1217C26.196 28.5151 26.5531 27.9663 27.0168 27.5158C27.4673 27.0519 28.016 26.695 28.6227 26.4712C29.1148 26.2799 29.8542 26.0525 31.2159 25.9903C32.6884 25.9231 33.1302 25.9089 36.8592 25.9089H36.859C40.588 25.9089 41.0298 25.9231 42.5025 25.9905C43.8642 26.0525 44.6034 26.2801 45.0957 26.4712C45.7022 26.6952 46.2509 27.0521 46.7014 27.5158C47.1653 27.9663 47.5223 28.5151 47.746 29.1217C47.9374 29.6138 48.165 30.3532 48.227 31.7149C48.2941 33.1875 48.3084 33.6292 48.3084 37.3582C48.3084 41.0875 48.2943 41.529 48.227 43.0017Z" fill="url(#paint0_linear_1583_28247)"/>
<path d="M36.8599 30.1875C32.8992 30.1875 29.6885 33.3985 29.6885 37.3591C29.6885 41.3198 32.8992 44.5306 36.8599 44.5306C40.8208 44.5306 44.0315 41.3198 44.0315 37.3591C44.0315 33.3985 40.8208 30.1875 36.8599 30.1875ZM36.8599 42.0143C34.2891 42.0141 32.2048 39.93 32.205 37.3589C32.205 34.7881 34.2891 32.7038 36.8601 32.7038C39.4312 32.704 41.5153 34.7881 41.5153 37.3589C41.5153 39.93 39.4309 42.0143 36.8599 42.0143Z" fill="url(#paint1_linear_1583_28247)"/>
<path d="M45.9895 29.9036C45.9895 30.8291 45.2392 31.5794 44.3137 31.5794C43.388 31.5794 42.6377 30.8291 42.6377 29.9036C42.6377 28.9779 43.388 28.2275 44.3137 28.2275C45.2392 28.2275 45.9895 28.9779 45.9895 29.9036Z" fill="url(#paint2_linear_1583_28247)"/>
<defs>
<linearGradient id="paint0_linear_1583_28247" x1="25.2375" y1="48.9797" x2="48.4809" y2="25.7363" gradientUnits="userSpaceOnUse">
<stop stop-color="#FFD600"/>
<stop offset="0.5" stop-color="#FF0100"/>
<stop offset="1" stop-color="#D800B9"/>
</linearGradient>
<linearGradient id="paint1_linear_1583_28247" x1="31.789" y1="42.4301" x2="41.9311" y2="32.288" gradientUnits="userSpaceOnUse">
<stop stop-color="#FF6400"/>
<stop offset="0.5" stop-color="#FF0100"/>
<stop offset="1" stop-color="#FD0056"/>
</linearGradient>
<linearGradient id="paint2_linear_1583_28247" x1="43.1286" y1="31.0885" x2="45.4986" y2="28.7185" gradientUnits="userSpaceOnUse">
<stop stop-color="#F30072"/>
<stop offset="1" stop-color="#E50097"/>
</linearGradient>
</defs>
</svg>
