<svg xmlns="http://www.w3.org/2000/svg" width="41" height="41" viewBox="0 0 41 41" fill="none">
  <rect x="0.993164" y="1.45117" width="39" height="39" rx="7.5" fill="white" stroke="#EFF4FA"/>
  <path d="M24.572 15.6744C23.286 15.6744 22.2436 14.6319 22.2436 13.346C22.2436 12.06 23.286 11.0176 24.572 11.0176C25.8579 11.0176 26.9004 12.06 26.9004 13.346C26.9004 14.6319 25.8579 15.6744 24.572 15.6744Z" fill="url(#paint0_linear_3632_88784)"/>
  <path d="M16.4235 15.6744C15.1376 15.6744 14.0951 14.6319 14.0951 13.346C14.0951 12.06 15.1376 11.0176 16.4235 11.0176C17.7095 11.0176 18.752 12.06 18.752 13.346C18.752 14.6319 17.7095 15.6744 16.4235 15.6744Z" fill="url(#paint1_linear_3632_88784)"/>
  <path d="M12.3437 20.3301H28.6426V21.7973L22.8215 25.872V30.8856L18.1647 29.3331V25.872L12.3437 21.7973V20.3301Z" fill="url(#paint2_linear_3632_88784)"/>
  <path d="M28.0645 19.1665H21.0792C21.0792 17.2405 22.6459 15.6738 24.5718 15.6738C26.4978 15.6738 28.0645 17.2405 28.0645 19.1665Z" fill="url(#paint3_linear_3632_88784)"/>
  <path d="M19.916 19.1665H12.9308C12.9308 17.2405 14.4974 15.6738 16.4234 15.6738C18.3493 15.6738 19.916 17.2405 19.916 19.1665Z" fill="url(#paint4_linear_3632_88784)"/>
  <defs>
    <linearGradient id="paint0_linear_3632_88784" x1="22.1816" y1="13.3462" x2="26.8374" y2="13.3498" gradientUnits="userSpaceOnUse">
      <stop offset="5.32779e-09" stop-color="#4A13E7"/>
      <stop offset="1" stop-color="#7B18FF"/>
    </linearGradient>
    <linearGradient id="paint1_linear_3632_88784" x1="14.0332" y1="13.3462" x2="18.6889" y2="13.3498" gradientUnits="userSpaceOnUse">
      <stop offset="5.32779e-09" stop-color="#4A13E7"/>
      <stop offset="1" stop-color="#7B18FF"/>
    </linearGradient>
    <linearGradient id="paint2_linear_3632_88784" x1="12.1269" y1="25.6082" x2="28.422" y2="25.6277" gradientUnits="userSpaceOnUse">
      <stop offset="5.32779e-09" stop-color="#4A13E7"/>
      <stop offset="1" stop-color="#7B18FF"/>
    </linearGradient>
    <linearGradient id="paint3_linear_3632_88784" x1="20.9863" y1="17.4203" x2="27.9699" y2="17.4311" gradientUnits="userSpaceOnUse">
      <stop offset="5.32779e-09" stop-color="#4A13E7"/>
      <stop offset="1" stop-color="#7B18FF"/>
    </linearGradient>
    <linearGradient id="paint4_linear_3632_88784" x1="12.8379" y1="17.4203" x2="19.8215" y2="17.4311" gradientUnits="userSpaceOnUse">
      <stop offset="5.32779e-09" stop-color="#4A13E7"/>
      <stop offset="1" stop-color="#7B18FF"/>
    </linearGradient>
  </defs>
</svg>