<svg width="75" height="74" viewBox="0 0 75 74" fill="none" xmlns="http://www.w3.org/2000/svg">
<circle opacity="0.2" cx="37.3521" cy="36.813" r="36.6899" fill="#0B69C7"/>
<path d="M52.7104 50.5292V39.2791C52.7104 33.75 51.5201 29.5264 45.0695 29.5264C41.9593 29.5264 39.8859 31.2158 39.0412 32.8285H38.9644V30.0255H32.8594V50.5292H39.2332V40.3542C39.2332 37.6664 39.7323 35.0939 43.0344 35.0939C46.2982 35.0939 46.3365 38.1272 46.3365 40.5078V50.4909H52.7104V50.5292Z" fill="#0B69C7"/>
<path d="M22.4922 30.0264H28.866V50.5301H22.4922V30.0264Z" fill="#0B69C7"/>
<path d="M25.6792 19.8125C23.6442 19.8125 21.9932 21.4635 21.9932 23.4986C21.9932 25.5336 23.6442 27.223 25.6792 27.223C27.7142 27.223 29.3653 25.5336 29.3653 23.4986C29.3653 21.4635 27.7142 19.8125 25.6792 19.8125Z" fill="#0B69C7"/>
</svg>
