<svg width="11" height="15" viewBox="0 0 11 15" fill="none" xmlns="http://www.w3.org/2000/svg">
<g id="Group 40020">
<g id="Group">
<g id="Group_2">
<path id="Vector" d="M5.92529 0.205811C3.18687 0.205811 0.958984 2.4337 0.958984 5.17212C0.958984 6.09734 1.21527 7.00027 1.70032 7.78363L5.6426 14.1366C5.71811 14.2583 5.85116 14.3322 5.99424 14.3322C5.99535 14.3322 5.99642 14.3322 5.99753 14.3322C6.14185 14.3311 6.27517 14.2548 6.34931 14.131L10.1911 7.71652C10.6494 6.94973 10.8916 6.06989 10.8916 5.17212C10.8916 2.4337 8.66372 0.205811 5.92529 0.205811ZM9.48078 7.29157L5.98798 13.1233L2.40382 7.34753C2.00009 6.69551 1.78118 5.94328 1.78118 5.17212C1.78118 2.8901 3.64327 1.02801 5.92529 1.02801C8.20731 1.02801 10.0666 2.8901 10.0666 5.17212C10.0666 5.9204 9.86217 6.6534 9.48078 7.29157Z" fill="#8F8F8F" stroke="#8F8F8F" strokeWidth="0.2"/>
</g>
</g>
<g id="Group_3">
<g id="Group_4">
<path id="Vector_2" d="M5.92456 2.68896C4.55535 2.68896 3.44141 3.80291 3.44141 5.17212C3.44141 6.53258 4.53722 7.65527 5.92456 7.65527C7.32901 7.65527 8.40771 6.51763 8.40771 5.17212C8.40771 3.80291 7.29377 2.68896 5.92456 2.68896ZM5.92456 6.83307C5.00698 6.83307 4.26361 6.08722 4.26361 5.17212C4.26361 4.25931 5.01175 3.51116 5.92456 3.51116C6.83737 3.51116 7.58276 4.25931 7.58276 5.17212C7.58276 6.07386 6.85668 6.83307 5.92456 6.83307Z" fill="#8F8F8F" stroke="#8F8F8F" strokeWidth="0.2"/>
</g>
</g>
</g>
</svg>
