<svg width="24" height="24" viewBox="0 0 24 24" fill="none" xmlns="http://www.w3.org/2000/svg">
<circle cx="11.9991" cy="12.0064" r="11.3565" fill="white"/>
<g clip-path="url(#clip0_1143_32270)">
<path fillRule="evenodd" clipRule="evenodd" d="M11.9996 9.94722C11.3921 9.94722 10.8996 10.4397 10.8996 11.0472C10.8996 11.6547 11.3921 12.1472 11.9996 12.1472C12.6071 12.1472 13.0996 11.6547 13.0996 11.0472C13.0996 10.4397 12.6071 9.94722 11.9996 9.94722ZM9.59961 11.0472C9.59961 9.72173 10.6741 8.64722 11.9996 8.64722C13.3251 8.64722 14.3996 9.72173 14.3996 11.0472C14.3996 12.3727 13.3251 13.4472 11.9996 13.4472C10.6741 13.4472 9.59961 12.3727 9.59961 11.0472Z" fill="url(#paint0_linear_1143_32270)"/>
<path fillRule="evenodd" clipRule="evenodd" d="M8.24081 7.28768C9.23788 6.29062 10.5902 5.73047 12.0003 5.73047C13.4103 5.73047 14.7626 6.29062 15.7597 7.28768C16.7568 8.28475 17.3169 9.63707 17.3169 11.0471C17.3169 11.6449 17.2535 12.1748 17.0866 12.6783C16.9187 13.1848 16.6569 13.6322 16.2991 14.0786C16.2939 14.0851 16.2886 14.0915 16.2831 14.0978L12.4915 18.4728C12.368 18.6153 12.1888 18.6971 12.0003 18.6971C11.8117 18.6971 11.6325 18.6153 11.5091 18.4728L7.7174 14.0978C7.71194 14.0915 7.7066 14.0851 7.70139 14.0786C7.3436 13.6322 7.08179 13.1848 6.91392 12.6783C6.747 12.1748 6.68359 11.6449 6.68359 11.0471C6.68359 9.63707 7.24374 8.28475 8.24081 7.28768ZM12.0003 7.03047C10.935 7.03047 9.91332 7.45365 9.16005 8.20692C8.40678 8.96019 7.98359 9.98185 7.98359 11.0471C7.98359 11.5531 8.03743 11.9361 8.14789 12.2693C8.25641 12.5967 8.42994 12.9073 8.70822 13.2562L12.0003 17.0547L15.2923 13.2562C15.5706 12.9073 15.7441 12.5967 15.8526 12.2693C15.9631 11.9361 16.0169 11.5531 16.0169 11.0471C16.0169 9.98185 15.5937 8.96019 14.8405 8.20692C14.0872 7.45365 13.0655 7.03047 12.0003 7.03047Z" fill="url(#paint1_linear_1143_32270)"/>
</g>
<defs>
<linearGradient id="paint0_linear_1143_32270" x1="8.70054" y1="11.0478" x2="14.0128" y2="11.0478" gradientUnits="userSpaceOnUse">
<stop stop-color="#B503FE"/>
<stop offset="1" stop-color="#FF376F"/>
</linearGradient>
<linearGradient id="paint1_linear_1143_32270" x1="4.69191" y1="12.2155" x2="16.46" y2="12.2155" gradientUnits="userSpaceOnUse">
<stop stop-color="#B503FE"/>
<stop offset="1" stop-color="#FF376F"/>
</linearGradient>
<clipPath id="clip0_1143_32270">
<rect width="14" height="14" fill="white" transform="translate(5 5.21387)"/>
</clipPath>
</defs>
</svg>
