<svg width="133" height="41" viewBox="0 0 133 41" fill="none" xmlns="http://www.w3.org/2000/svg">
<path d="M10.6812 40.9828H7.57469C3.57075 40.9828 0.326172 37.7382 0.326172 33.7343V0.142578H3.43268C7.43663 0.142578 10.6812 3.38716 10.6812 7.3911V40.9828Z" fill="url(#paint0_linear_912_64828)"/>
<path d="M24.9992 40.9831H10.6816V21.2671H24.9992C28.8098 21.2671 31.8887 24.3598 31.8887 28.1566V34.0797C31.9026 37.8904 28.8098 40.9831 24.9992 40.9831Z" fill="url(#paint1_linear_912_64828)"/>
<path d="M17.3501 33.2097H10.6953V14.0874H17.3501C21.0365 14.0874 24.0326 17.0835 24.0326 20.7698V26.5134C24.0326 30.2136 21.0365 33.2097 17.3501 33.2097Z" fill="url(#paint2_linear_912_64828)"/>
<path d="M39.4551 17.7046H47.96C51.5221 17.7046 54.104 19.9689 54.104 23.0754C54.104 25.4916 52.5162 26.8308 51.4945 27.3831C53.3584 27.9768 55.5537 29.6198 55.5537 33.0853C55.5537 37.0892 52.7924 39.7263 47.8358 39.7263H39.4551V17.7046ZM46.8969 25.9334C48.2361 25.9334 48.816 25.2154 48.816 24.1937C48.816 23.0478 48.0981 22.4541 46.7726 22.4541H44.9087V25.9334H46.8969ZM47.4906 34.9906C49.3269 34.9906 50.1277 33.9965 50.1277 32.5054C50.1277 31.1109 49.3545 30.1168 47.4354 30.1168H44.9225V34.9906H47.4906Z" fill="#0E0028"/>
<path d="M57.3477 31.2904V24.249H62.8013V31.318C62.8013 34.4245 64.7204 34.9216 65.9907 34.9216C67.2333 34.9216 69.1524 34.4245 69.1524 31.318V24.249H74.6061V31.2904C74.6061 36.9926 70.7264 40.03 65.9907 40.03C61.2273 40.0438 57.3477 37.0064 57.3477 31.2904ZM59.3358 17.7046H64.2372V22.9511H59.3358V17.7046ZM67.7303 17.7046H72.6317V22.9511H67.7303V17.7046Z" fill="#0E0028"/>
<path d="M84.9472 32.8091H82.8072V39.7263H77.3535V17.7046H85.5685C90.2766 17.7046 93.604 20.6454 93.604 25.4225C93.604 28.46 92.2095 30.6691 89.9452 31.8427L94.8742 39.7263H89.103L84.9472 32.8091ZM85.0439 28.1563C86.7559 28.1563 88.0813 27.604 88.0813 25.4225C88.0813 23.2825 86.7421 22.6888 85.0439 22.6888H82.8072V28.1425H85.0439V28.1563Z" fill="#0E0028"/>
<path d="M95.3984 31.4975C95.3984 26.4167 99.3057 22.9512 104.055 22.9512C108.777 22.9512 112.684 26.4167 112.684 31.4975C112.684 36.5784 108.777 40.0439 104.055 40.0439C99.3057 40.0439 95.3984 36.5784 95.3984 31.4975ZM104.055 36.1366C106.485 36.1366 108.46 34.3417 108.46 31.4975C108.46 28.6671 106.499 26.8585 104.055 26.8585C101.598 26.8585 99.6371 28.6533 99.6371 31.4975C99.6371 34.3279 101.598 36.1366 104.055 36.1366Z" fill="#0E0028"/>
<path d="M113.127 24.594L114.328 23.8761C114.659 24.6907 115.322 25.0773 116.013 25.0773C116.855 25.0773 117.587 24.525 117.587 23.5171C117.587 22.3159 116.482 21.6256 115.129 22.1226L116.648 19.2232H113.61V17.8149H118.981L117.2 21.0181C118.249 21.1976 119.243 22.1779 119.243 23.6414C119.243 25.4086 117.821 26.5132 116.082 26.5132C114.59 26.4856 113.514 25.671 113.127 24.594Z" fill="#7117FA"/>
<path d="M120.1 23.6691C120.1 22.3437 120.818 21.391 121.384 20.6455L123.441 17.8013H125.263L122.833 21.1425C122.999 21.1011 123.179 21.0873 123.358 21.0873C124.711 21.0873 125.871 22.1366 125.871 23.7382C125.871 25.464 124.49 26.4995 122.971 26.4995C121.453 26.4995 120.1 25.4502 120.1 23.6691ZM122.985 25.0774C123.786 25.0774 124.324 24.4975 124.324 23.7658C124.324 23.034 123.786 22.4541 122.985 22.4541C122.184 22.4541 121.632 23.034 121.632 23.7658C121.646 24.4975 122.198 25.0774 122.985 25.0774Z" fill="#7117FA"/>
<path d="M126.686 24.7322L127.928 24.0419C128.066 24.4561 128.632 25.0498 129.474 25.0498C130.234 25.0498 131.048 24.5804 131.048 23.5172C131.048 22.537 130.331 21.9571 129.516 21.9571C128.743 21.9571 128.301 22.4265 128.135 22.675L126.865 22.1228L127.431 17.8013H131.794V19.2096H128.701L128.439 21.0735C128.508 20.9492 129.06 20.6178 129.875 20.6178C131.283 20.6178 132.636 21.6671 132.636 23.5034C132.636 25.395 131.214 26.4995 129.516 26.4995C128.108 26.4857 127.086 25.7401 126.686 24.7322Z" fill="#7117FA"/>
<defs>
<linearGradient id="paint0_linear_912_64828" x1="5.50798" y1="5.22708" x2="5.50798" y2="26.0604" gradientUnits="userSpaceOnUse">
<stop offset="5.32779e-09" stop-color="#4A13E7"/>
<stop offset="1" stop-color="#7B18FF"/>
</linearGradient>
<linearGradient id="paint1_linear_912_64828" x1="10.687" y1="31.1204" x2="31.8994" y2="31.1204" gradientUnits="userSpaceOnUse">
<stop stop-color="#FF3671"/>
<stop offset="1" stop-color="#FE9841"/>
</linearGradient>
<linearGradient id="paint2_linear_912_64828" x1="8.19717" y1="23.651" x2="22.9578" y2="23.651" gradientUnits="userSpaceOnUse">
<stop stop-color="#B503FE"/>
<stop offset="1" stop-color="#FF376F"/>
</linearGradient>
</defs>
</svg>
