<svg width="74" height="75" viewBox="0 0 74 75" fill="none" xmlns="http://www.w3.org/2000/svg">
<circle cx="37.1509" cy="37.3579" r="36.6899" fill="#3CAF41" fill-opacity="0.2"/>
<path d="M36.8205 29.1695C35.9995 29.1849 35.306 29.884 35.3207 30.6812C35.3354 31.5085 36.0156 32.1551 36.8597 32.1453C37.7067 32.1348 38.3483 31.4812 38.3399 30.6371C38.3329 29.8083 37.6555 29.154 36.8205 29.1695ZM47.3571 38.7127C46.7063 38.7085 46.1536 39.2409 46.127 39.8987C46.099 40.602 46.6454 41.1793 47.341 41.1807C48.0142 41.1828 48.5459 40.6742 48.5704 40.0045C48.5963 39.2998 48.0499 38.7176 47.3571 38.7127ZM40.8751 40.0024C40.9018 39.3012 40.3378 38.7127 39.6352 38.7099C38.9396 38.7071 38.3574 39.3033 38.382 39.994C38.4044 40.6546 38.9606 41.1884 39.6261 41.1891C40.2909 41.1898 40.8492 40.6707 40.8751 40.0024ZM48.5697 51.5197C47.5448 51.4125 46.4674 52.0038 45.3949 52.1138C42.1284 52.4479 39.2023 51.5372 36.7897 49.3061C32.2005 45.0616 32.8562 38.553 38.1655 35.0749C42.8842 31.9835 49.8047 33.0139 53.1315 37.3033C56.0352 41.0462 55.6933 46.015 52.1494 49.1596C50.4955 50.6272 51.189 51.0952 51.6184 52.8003C50.6664 52.3765 49.61 51.6283 48.5697 51.5197ZM27.3557 29.1702C26.5186 29.1456 25.8293 29.7852 25.8054 30.6104C25.7802 31.4469 26.4198 32.1173 27.2632 32.1383C28.0997 32.1593 28.8009 31.519 28.831 30.7043C28.8625 29.8924 28.155 29.1933 27.3557 29.1702ZM32.4142 44.1397C31.114 43.9786 29.9294 43.8013 28.7378 43.7012C28.3266 43.6661 27.8384 43.7152 27.4902 43.912C26.3336 44.5649 25.2247 45.3019 23.9105 46.1236C24.1515 45.0322 24.3077 44.0773 24.5837 43.1589C24.7869 42.4836 24.693 42.1075 24.0709 41.6675C16.0072 35.9751 18.5508 25.5029 27.5708 22.5565C34.5991 20.2609 43.4187 24.2994 44.1438 32.0584C37.369 32.4122 31.8068 36.967 32.4142 44.1397Z" fill="#3CAF41"/>
</svg>
