<svg width="11" height="14" viewBox="0 0 11 14" fill="none" xmlns="http://www.w3.org/2000/svg">
<g id="Group 40031">
<g id="Group 40030">
<path id="Vector" d="M5.15555 7.34408L6.98445 5.5759C7.16302 5.40326 7.16302 5.12338 6.98445 4.95076C6.80588 4.77814 6.51637 4.77812 6.33782 4.95076L4.50893 6.71894C4.33036 6.89158 4.33036 7.17147 4.50893 7.34408C4.68747 7.51673 4.97699 7.51673 5.15555 7.34408Z" fill="#8F8F8F"/>
<path id="Vector_2" d="M6.74177 7.64028C7.0166 7.64028 7.2394 7.41748 7.2394 7.14265C7.2394 6.86782 7.0166 6.64502 6.74177 6.64502C6.46694 6.64502 6.24414 6.86782 6.24414 7.14265C6.24414 7.41748 6.46694 7.64028 6.74177 7.64028Z" fill="#8F8F8F"/>
<path id="Vector_3" d="M4.75153 5.64955C5.02637 5.64955 5.24916 5.42676 5.24916 5.15193C5.24916 4.87709 5.02637 4.6543 4.75153 4.6543C4.4767 4.6543 4.25391 4.87709 4.25391 5.15193C4.25391 5.42676 4.4767 5.64955 4.75153 5.64955Z" fill="#8F8F8F"/>
</g>
<g id="Group 40029">
<path id="Vector_4" d="M10.6989 2.9189L8.24346 0.463442C8.08438 0.304361 7.8729 0.216797 7.64804 0.216797H2.08853C1.23953 0.216797 0.548828 0.907502 0.548828 1.7565V11.6603C0.548828 12.5093 1.23953 13.2 2.08853 13.2H9.40586C10.2549 13.2 10.9456 12.5093 10.9456 11.6603V3.51431C10.9456 3.28946 10.858 3.07798 10.6989 2.9189ZM8.21968 1.5155L9.64686 2.94277H8.42185C8.31032 2.94277 8.21958 2.85203 8.21958 2.7405V1.5155H8.21968ZM9.40586 12.4393H2.08853C1.65903 12.4393 1.30956 12.0898 1.30956 11.6603V1.7565C1.30956 1.327 1.65903 0.977533 2.08853 0.977533H7.45895V2.7405C7.45895 3.27143 7.89092 3.7035 8.42185 3.7035H10.1848V11.6603C10.1848 12.0898 9.83536 12.4393 9.40586 12.4393Z" fill="#8F8F8F"/>
<path id="Vector_5" d="M7.49451 9.24805H4.00146C3.79137 9.24805 3.62109 9.41832 3.62109 9.62841C3.62109 9.83841 3.79137 10.0088 4.00146 10.0088H7.49451C7.7046 10.0088 7.87488 9.83841 7.87488 9.62841C7.87488 9.41832 7.7046 9.24805 7.49451 9.24805Z" fill="#8F8F8F"/>
<path id="Vector_6" d="M6.85943 10.5161H4.63427C4.42418 10.5161 4.25391 10.6864 4.25391 10.8965C4.25391 11.1065 4.42418 11.2768 4.63427 11.2768H6.85943C7.06952 11.2768 7.2398 11.1065 7.2398 10.8965C7.2398 10.6864 7.06952 10.5161 6.85943 10.5161Z" fill="#8F8F8F"/>
</g>
</g>
</svg>
