<svg width="45" height="45" viewBox="0 0 45 45" fill="none" xmlns="http://www.w3.org/2000/svg">
<path d="M19.8287 37.3741H19.6144C19.7523 36.9883 19.8248 36.5808 19.8287 36.1695V30.1463C19.8248 28.012 19.1369 25.9394 17.8728 24.2529C16.6086 22.5663 14.8396 21.3611 12.8427 20.826V20.5091C12.8427 19.8702 12.5974 19.2573 12.1607 18.8055C11.724 18.3537 11.1317 18.0999 10.5141 18.0999C9.89647 18.0999 9.30417 18.3537 8.86747 18.8055C8.43076 19.2573 8.18542 19.8702 8.18542 20.5091V20.826C6.18851 21.3611 4.4195 22.5663 3.15538 24.2529C1.89125 25.9394 1.20339 28.012 1.19948 30.1463V36.1695C1.20334 36.5808 1.27582 36.9883 1.41372 37.3741H1.19948C0.890682 37.3741 0.594532 37.5011 0.376179 37.727C0.157826 37.9529 0.0351563 38.2593 0.0351562 38.5788C0.0351563 38.8983 0.157826 39.2047 0.376179 39.4306C0.594532 39.6565 0.890682 39.7834 1.19948 39.7834H19.8287C20.1375 39.7834 20.4336 39.6565 20.652 39.4306C20.8703 39.2047 20.993 38.8983 20.993 38.5788C20.993 38.2593 20.8703 37.9529 20.652 37.727C20.4336 37.5011 20.1375 37.3741 19.8287 37.3741Z" fill="#717579"/>
<path d="M6.5 42.1929C6.90356 42.9248 7.48707 43.5332 8.19132 43.9564C8.89558 44.3796 9.6955 44.6025 10.5099 44.6025C11.3243 44.6025 12.1243 44.3796 12.8285 43.9564C13.5328 43.5332 14.1163 42.9248 14.5198 42.1929H6.5Z" fill="#717579"/>
<rect x="13.0117" y="2.40137" width="29.592" height="30.7206" rx="14.796" fill="#4A13E7" stroke="#FBFBFB" stroke-width="3"/>
</svg>
