<svg width="118" height="127" viewBox="0 0 118 127" fill="none" xmlns="http://www.w3.org/2000/svg">
<g clipPath="url(#clip0_1348_40996)">
<path d="M48.4697 43.0366V34.7228C48.4697 28.4381 53.1939 25.0502 58.9947 25.0502C64.7955 25.0502 69.5198 28.4381 69.5198 34.7228V43.0366H76.1297V34.7228C76.1297 24.4739 68.4417 17.8418 58.9947 17.8418C49.5478 17.8418 41.8613 24.4739 41.8613 34.7228V43.0366H48.4697Z" fill="#B9B9B9"/>
<path d="M43.3568 41.4531H74.635C79.2061 41.4531 82.9168 45.4875 82.9168 50.4573V66.6302H35.0742V50.4573C35.0742 45.4875 38.7849 41.4531 43.356 41.4531H43.3568Z" fill="#4A13E7"/>
<path d="M58.9956 62.3039C61.0308 62.3039 62.6806 60.5102 62.6806 58.2975C62.6806 56.0848 61.0308 54.291 58.9956 54.291C56.9604 54.291 55.3105 56.0848 55.3105 58.2975C55.3105 60.5102 56.9604 62.3039 58.9956 62.3039Z" fill="white"/>
<path d="M61.0072 59.959H56.9825L56.2285 64.9711H61.7619L61.0072 59.959Z" fill="white"/>
<path d="M32.8254 97.9918H42.549V110.445L57.6413 97.9918H85.243C93.5761 97.9918 100.358 90.6042 100.358 81.5156L100.3 81.1556C100.3 72.0931 93.5186 64.7207 85.1761 64.7207L32.7476 64.7832C24.4145 64.7832 17.6328 72.1556 17.6328 81.2164L17.6888 81.6203C17.6888 90.6837 24.4744 97.991 32.8246 97.991L32.8254 97.9918ZM76.6806 79.4071L78.2981 76.3606L81.4064 78.3111V74.4094H84.6422V78.3111L87.7497 76.3606L89.3672 79.4071L86.2604 81.3575L89.3672 83.3079L87.7497 86.3553L84.6422 84.4048V88.3048H81.4064V84.4048L78.2981 86.3553L76.6806 83.3079L79.7873 81.3575L76.6806 79.4071ZM60.6626 79.4071L62.2801 76.3606L65.3876 78.3111V74.4094H68.6226V78.3111L71.7309 76.3606L73.3484 79.4071L70.2417 81.3575L73.3484 83.3079L71.7309 86.3553L68.6226 84.4048V88.3048H65.3876V84.4048L62.2801 86.3553L60.6626 83.3079L63.7693 81.3575L60.6626 79.4071ZM44.6438 79.4071L46.2613 76.3606L49.3696 78.3111V74.4094H52.6054V78.3111L55.7121 76.3606L57.3296 79.4071L54.2229 81.3575L57.3296 83.3079L55.7121 86.3553L52.6054 84.4048V88.3048H49.3696V84.4048L46.2613 86.3553L44.6438 83.3079L47.7505 81.3575L44.6438 79.4071ZM28.6258 79.4071L30.2433 76.3606L33.3508 78.3111V74.4094H36.5866V78.3111L39.6941 76.3606L41.3116 79.4071L38.2049 81.3575L41.3116 83.3079L39.6941 86.3553L36.5866 84.4048V88.3048H33.3508V84.4048L30.2433 86.3553L28.6258 83.3079L31.7325 81.3575L28.6258 79.4071Z" fill="url(#paint0_linear_1348_40996)"/>
<path d="M58.8739 126.863C54.4264 126.863 49.9843 126.31 45.6704 125.218C41.2555 124.101 36.9595 122.416 32.9006 120.209C32.1855 119.815 31.4316 119.38 30.6582 118.915C27.4006 116.93 24.2791 114.569 21.3651 111.886L21.6263 117.431L17.6008 117.655L16.9922 104.725L28.8844 104.063L29.0904 108.44L24.1579 108.715C26.8216 111.144 29.6633 113.285 32.6185 115.087C33.3234 115.512 34.0292 115.919 34.7124 116.295C42.1595 120.344 50.5151 122.484 58.8747 122.484H58.877C74.2942 122.483 89.0243 115.392 99.2905 103.028C115.584 83.4024 117.863 54.1209 104.833 31.8196L104.619 31.4536L108.022 29.1035L108.235 29.4694C122.232 53.4271 119.784 84.883 102.281 105.964C97.062 112.25 90.8314 117.259 83.7614 120.852C76.8576 124.362 69.4922 126.356 61.8695 126.78C60.8754 126.835 59.8665 126.863 58.8716 126.863H58.8739Z" fill="#4A13E7"/>
<path d="M9.75608 97.4949C-4.24102 73.5373 -1.79262 42.0814 15.71 21.0003C26.7371 7.7201 42.5531 0.103516 59.1035 0.103516C63.5518 0.103516 67.9955 0.657879 72.3117 1.7514C76.7281 2.87026 81.0257 4.55786 85.0846 6.76771C85.7662 7.12602 86.5101 7.55109 87.3542 8.06404C90.6048 10.0449 93.7201 12.4009 96.6286 15.0772L96.3682 9.55136L100.394 9.32742L101.002 22.2569L89.1101 22.9186L88.9041 18.542L93.8553 18.2665C91.1908 15.8344 88.346 13.6913 85.3869 11.888C84.6151 11.419 83.9342 11.0302 83.3046 10.699C75.8374 6.63334 67.4669 4.48603 59.0934 4.48603C43.6879 4.48603 28.9656 11.5753 18.7025 23.9369C2.40853 43.5611 0.128798 72.8435 13.1582 95.1456L13.3719 95.5115L9.96906 97.8608L9.75531 97.4949H9.75608Z" fill="#4A13E7"/>
</g>
<defs>
<linearGradient id="paint0_linear_1348_40996" x1="2.13797" y1="87.5886" x2="93.6914" y2="87.5886" gradientUnits="userSpaceOnUse">
<stop stop-color="#B503FE"/>
<stop offset="1" stop-color="#FF376F"/>
</linearGradient>
<clipPath id="clip0_1348_40996">
<rect width="116.571" height="126.76" fill="white" transform="translate(0.710938 0.103516)"/>
</clipPath>
</defs>
</svg>
