<svg width="41" height="41" viewBox="0 0 41 41" fill="none" xmlns="http://www.w3.org/2000/svg">
<rect x="1.27344" y="1.3125" width="39.2105" height="39" rx="7.5" fill="white" stroke="#C7C7C7"/>
<path d="M25.6059 24.4189H24.4154C23.977 24.4189 23.6217 24.7743 23.6217 25.2126V29.9748C23.6217 30.4132 23.977 30.7685 24.4154 30.7685H25.6059C26.9189 30.7685 27.987 29.7004 27.987 28.3874V26.8C27.987 25.4871 26.9189 24.4189 25.6059 24.4189ZM26.3996 28.3874C26.3996 28.8251 26.0436 29.1811 25.6059 29.1811H25.2091V26.0063H25.6059C26.0436 26.0063 26.3996 26.3624 26.3996 26.8V28.3874Z" fill="#4B4B4B"/>
<path d="M31.9579 24.4189H29.5768C29.1384 24.4189 28.7831 24.7743 28.7831 25.2126V29.9748C28.7831 30.4132 29.1384 30.7685 29.5768 30.7685C30.0151 30.7685 30.3705 30.4132 30.3705 29.9748V28.3874H31.1642C31.6025 28.3874 31.9579 28.0321 31.9579 27.5937C31.9579 27.1554 31.6025 26.8 31.1642 26.8H30.3705V26.0063H31.9579C32.3962 26.0063 32.7516 25.651 32.7516 25.2126C32.7516 24.7743 32.3962 24.4189 31.9579 24.4189Z" fill="#4B4B4B"/>
<path d="M20.8457 24.4189H19.2583C18.8199 24.4189 18.4646 24.7743 18.4646 25.2126V29.9748C18.4646 30.4132 18.8199 30.7685 19.2583 30.7685C19.6967 30.7685 20.052 30.4132 20.052 29.9748V28.3874H20.8457C21.9398 28.3874 22.8299 27.4973 22.8299 26.4032C22.8299 25.3091 21.9398 24.4189 20.8457 24.4189ZM20.8457 26.8H20.052V26.0063H20.8457C21.0645 26.0063 21.2425 26.1844 21.2425 26.4032C21.2425 26.622 21.0645 26.8 20.8457 26.8Z" fill="#4B4B4B"/>
<path d="M28.0732 15.4444L23.3115 10.6827C23.3027 10.6769 23.0956 10.4502 22.7502 10.4502H14.8132C13.5003 10.4502 12.4321 11.5184 12.4321 12.8313V28.3877C12.4321 29.7007 13.5003 30.7688 14.8132 30.7688H16.4006C16.839 30.7688 17.1943 30.4135 17.1943 29.9751C17.1943 29.5368 16.839 29.1814 16.4006 29.1814H14.8132C14.3756 29.1814 14.0195 28.8254 14.0195 28.3877V12.8313C14.0195 12.3936 14.3756 12.0376 14.8132 12.0376H21.9565V14.4187C21.9565 15.7316 23.0246 16.7998 24.3376 16.7998H26.7187V22.3556C26.7187 22.794 27.074 23.1493 27.5124 23.1493C27.9507 23.1493 28.306 22.794 28.306 22.3556V16.006C28.306 15.7977 28.2209 15.5916 28.0732 15.4444ZM24.3376 15.2124C23.8999 15.2124 23.5439 14.8563 23.5439 14.4187V13.16L25.5962 15.2124H24.3376Z" fill="#4B4B4B"/>
<path d="M23.4047 20.6125H22.2304L20.9346 18.3683L21.5218 17.3513C21.7621 16.9351 21.7621 16.4382 21.5218 16.022C21.2815 15.6059 20.8512 15.3574 20.3707 15.3574C19.8901 15.3574 19.4598 15.6059 19.2195 16.022C18.9792 16.4382 18.9793 16.9351 19.2195 17.3513L19.8067 18.3683L18.511 20.6125H17.3367C16.8562 20.6125 16.4258 20.8609 16.1856 21.2771C15.9453 21.6932 15.9453 22.1901 16.1856 22.6063C16.4258 23.0224 16.8561 23.2709 17.3367 23.2709H17.3367C17.8172 23.2709 18.2476 23.0224 18.4878 22.6063L19.075 21.5893H21.6664L22.2535 22.6063C22.4938 23.0225 22.9242 23.2709 23.4047 23.2709C23.8852 23.2709 24.3155 23.0224 24.5558 22.6063C24.796 22.1901 24.7961 21.6932 24.5558 21.2771C24.3155 20.8609 23.8852 20.6125 23.4047 20.6125ZM17.6419 22.1179C17.5501 22.2769 17.3979 22.2941 17.3367 22.2941C17.2755 22.2941 17.1233 22.2769 17.0315 22.1179C16.9397 21.9589 17.001 21.8185 17.0315 21.7655C17.0621 21.7125 17.1531 21.5893 17.3367 21.5893H17.9471L17.6419 22.1179ZM20.0655 16.5105C20.0961 16.4575 20.1871 16.3342 20.3707 16.3342C20.5543 16.3342 20.6453 16.4574 20.6759 16.5105C20.7065 16.5634 20.7677 16.7038 20.6759 16.8629L20.3707 17.3915L20.0655 16.8629C19.9737 16.7038 20.0349 16.5634 20.0655 16.5105ZM19.639 20.6125L20.3707 19.3451L21.1024 20.6125H19.639ZM23.7099 22.1179C23.6181 22.2769 23.4659 22.2941 23.4047 22.2941C23.3435 22.2941 23.1913 22.2769 23.0995 22.1179L22.7943 21.5893H23.4047C23.5883 21.5893 23.6793 21.7125 23.7099 21.7655C23.7404 21.8185 23.8017 21.9589 23.7099 22.1179Z" fill="#4B4B4B"/>
</svg>
