<svg width="41" height="41" viewBox="0 0 41 41" fill="none" xmlns="http://www.w3.org/2000/svg">
<rect x="0.710938" y="1.3125" width="39.2105" height="39" rx="7.5" fill="white" stroke="#C7C7C7"/>
<path d="M25.0428 24.4199H23.8523C23.4139 24.4199 23.0586 24.7753 23.0586 25.2136V29.9758C23.0586 30.4142 23.4139 30.7695 23.8523 30.7695H25.0428C26.3558 30.7695 27.4239 29.7013 27.4239 28.3884V26.801C27.4239 25.4881 26.3558 24.4199 25.0428 24.4199ZM25.8365 28.3884C25.8365 28.826 25.4805 29.1821 25.0428 29.1821H24.646V26.0073H25.0428C25.4805 26.0073 25.8365 26.3634 25.8365 26.801V28.3884Z" fill="#4B4B4B"/>
<path d="M31.3955 24.4199H29.0144C28.576 24.4199 28.2207 24.7753 28.2207 25.2136V29.9758C28.2207 30.4142 28.576 30.7695 29.0144 30.7695C29.4528 30.7695 29.8081 30.4142 29.8081 29.9758V28.3884H30.6018C31.0401 28.3884 31.3955 28.0331 31.3955 27.5947C31.3955 27.1563 31.0401 26.801 30.6018 26.801H29.8081V26.0073H31.3955C31.8338 26.0073 32.1892 25.652 32.1892 25.2136C32.1892 24.7753 31.8338 24.4199 31.3955 24.4199Z" fill="#4B4B4B"/>
<path d="M20.2834 24.4199H18.696C18.2577 24.4199 17.9023 24.7753 17.9023 25.2136V29.9758C17.9023 30.4142 18.2577 30.7695 18.696 30.7695C19.1344 30.7695 19.4897 30.4142 19.4897 29.9758V28.3884H20.2834C21.3775 28.3884 22.2677 27.4983 22.2677 26.4042C22.2677 25.3101 21.3775 24.4199 20.2834 24.4199ZM20.2834 26.801H19.4897V26.0073H20.2834C20.5023 26.0073 20.6803 26.1853 20.6803 26.4042C20.6803 26.623 20.5023 26.801 20.2834 26.801Z" fill="#4B4B4B"/>
<path d="M27.5102 15.4454L22.7485 10.6837C22.7397 10.6779 22.5326 10.4512 22.1872 10.4512H14.2502C12.9373 10.4512 11.8691 11.5193 11.8691 12.8323V28.3887C11.8691 29.7016 12.9373 30.7698 14.2502 30.7698H15.8376C16.276 30.7698 16.6313 30.4145 16.6313 29.9761C16.6313 29.5377 16.276 29.1824 15.8376 29.1824H14.2502C13.8126 29.1824 13.4565 28.8263 13.4565 28.3887V12.8323C13.4565 12.3946 13.8126 12.0386 14.2502 12.0386H21.3935V14.4197C21.3935 15.7326 22.4616 16.8007 23.7746 16.8007H26.1557V22.3566C26.1557 22.795 26.511 23.1503 26.9494 23.1503C27.3877 23.1503 27.7431 22.795 27.7431 22.3566V16.007C27.7431 15.7987 27.6579 15.5926 27.5102 15.4454ZM23.7746 15.2133C23.3369 15.2133 22.9809 14.8573 22.9809 14.4197V13.161L25.0332 15.2133H23.7746Z" fill="#4B4B4B"/>
<path d="M22.8407 20.6125H21.6664L20.3707 18.3683L20.9578 17.3513C21.1981 16.9351 21.1981 16.4382 20.9578 16.022C20.7176 15.6059 20.2873 15.3574 19.8067 15.3574C19.3261 15.3574 18.8958 15.6059 18.6556 16.022C18.4153 16.4382 18.4153 16.9351 18.6556 17.3513L19.2427 18.3683L17.947 20.6125H16.7727C16.2922 20.6125 15.8619 20.8609 15.6216 21.2771C15.3813 21.6932 15.3814 22.1901 15.6216 22.6063C15.8618 23.0224 16.2922 23.2709 16.7727 23.2709H16.7727C17.2533 23.2709 17.6836 23.0224 17.9239 22.6063L18.511 21.5893H21.1024L21.6896 22.6063C21.9299 23.0225 22.3602 23.2709 22.8407 23.2709C23.3213 23.2709 23.7516 23.0224 23.9918 22.6063C24.2321 22.1901 24.2321 21.6932 23.9918 21.2771C23.7515 20.8609 23.3213 20.6125 22.8407 20.6125ZM17.0779 22.1179C16.9861 22.2769 16.8339 22.2941 16.7727 22.2941C16.7116 22.2941 16.5594 22.2769 16.4676 22.1179C16.3758 21.9589 16.437 21.8185 16.4676 21.7655C16.4981 21.7125 16.5891 21.5893 16.7727 21.5893H17.3831L17.0779 22.1179ZM19.5015 16.5105C19.5321 16.4575 19.6231 16.3342 19.8067 16.3342C19.9904 16.3342 20.0813 16.4574 20.1119 16.5105C20.1425 16.5634 20.2037 16.7038 20.1119 16.8629L19.8067 17.3915L19.5015 16.8629C19.4097 16.7038 19.471 16.5634 19.5015 16.5105ZM19.075 20.6125L19.8067 19.3451L20.5385 20.6125H19.075ZM23.1459 22.1179C23.0541 22.2769 22.9019 22.2941 22.8407 22.2941C22.7795 22.2941 22.6274 22.2769 22.5355 22.1179L22.2303 21.5893H22.8407C23.0244 21.5893 23.1153 21.7125 23.1459 21.7655C23.1765 21.8185 23.2377 21.9589 23.1459 22.1179Z" fill="#4B4B4B"/>
</svg>
