<svg width="17" height="16" viewBox="0 0 17 16" fill="none" xmlns="http://www.w3.org/2000/svg">
<path d="M14.4393 4.23301C15.1468 3.51615 15.1467 2.356 14.4393 1.6392L13.5859 0.774615C12.8801 0.0595033 11.7317 0.0595033 11.0259 0.774615L3.06129 8.84421C2.60273 9.30882 2.29967 9.92293 2.20795 10.5734L1.78125 13.5995L4.768 13.1672C5.40997 13.0743 6.01609 12.7672 6.47465 12.3026L14.4393 4.23301ZM4.62575 8.98831L9.74585 3.80071L11.4525 5.52989L6.33246 10.7175L4.62575 8.98831ZM3.20351 12.1585L3.40264 10.7463C3.44817 10.4235 3.58065 10.1158 3.78068 9.86128L5.47088 11.5737C5.21965 11.7764 4.91596 11.9107 4.59736 11.9568L3.20351 12.1585ZM13.5859 3.36839L12.3059 4.6653L10.5992 2.93612L11.8792 1.63924C12.1145 1.40087 12.4973 1.40087 12.7325 1.63924L13.5859 2.50383C13.8218 2.74281 13.8217 3.12956 13.5859 3.36839Z" fill="#4B4B4B"/>
<path d="M0.609375 14.666H16.0566V15.8887H0.609375V14.666Z" fill="#4B4B4B"/>
</svg>
