<svg xmlns="http://www.w3.org/2000/svg" width="41" height="41" viewBox="0 0 41 41" fill="none">
  <rect x="0.754883" y="1.45312" width="39" height="39" rx="7.5" fill="white" stroke="#EFF4FA"/>
  <path d="M23.5104 12H14.1161C12.8744 12 11.8696 13.0048 11.8696 14.2465V26.9083C11.8696 28.15 12.8744 29.1548 14.1161 29.1548H20.1448L20.3245 28.15C20.4062 27.6926 20.6186 27.2841 20.9453 26.9492L25.7569 22.1458V14.2465C25.7569 13.0048 24.7521 12 23.5104 12ZM15.1372 15.2676H18.4048C18.8541 15.2676 19.2217 15.6352 19.2217 16.0845C19.2217 16.5338 18.8541 16.9014 18.4048 16.9014H15.1372C14.6879 16.9014 14.3203 16.5338 14.3203 16.0845C14.3203 15.6352 14.6879 15.2676 15.1372 15.2676ZM19.2217 23.4365H15.1372C14.6879 23.4365 14.3203 23.0689 14.3203 22.6196C14.3203 22.1704 14.6879 21.8027 15.1372 21.8027H19.2217C19.671 21.8027 20.0386 22.1704 20.0386 22.6196C20.0386 23.0689 19.671 23.4365 19.2217 23.4365ZM22.4893 20.169H15.1372C14.6879 20.169 14.3203 19.8014 14.3203 19.3521C14.3203 18.9028 14.6879 18.5352 15.1372 18.5352H22.4893C22.9386 18.5352 23.3062 18.9028 23.3062 19.3521C23.3062 19.8014 22.9386 20.169 22.4893 20.169Z" fill="url(#paint0_linear_3632_88785)"/>
  <path d="M22.1031 31.6056C21.9421 31.6056 21.7853 31.5419 21.6701 31.4259C21.5288 31.2846 21.4651 31.0836 21.5002 30.8859L21.9332 28.4312C21.9544 28.3078 22.0149 28.1934 22.1031 28.1044L28.1685 22.0398C28.9135 21.2931 29.6455 21.4949 30.0458 21.8952L31.0563 22.9057C31.6142 23.4628 31.6142 24.3696 31.0563 24.9275L24.9908 30.9929C24.9026 31.082 24.7882 31.1416 24.664 31.1629L22.2093 31.5958C22.1741 31.6023 22.1382 31.6056 22.1031 31.6056Z" fill="url(#paint1_linear_3632_88785)"/>
  <defs>
    <linearGradient id="paint0_linear_3632_88785" x1="9.26848" y1="20.5796" x2="24.6378" y2="20.5796" gradientUnits="userSpaceOnUse">
      <stop stop-color="#B503FE"/>
      <stop offset="1" stop-color="#FF376F"/>
    </linearGradient>
    <linearGradient id="paint1_linear_3632_88785" x1="19.6207" y1="26.5727" x2="30.6702" y2="26.5727" gradientUnits="userSpaceOnUse">
      <stop stop-color="#B503FE"/>
      <stop offset="1" stop-color="#FF376F"/>
    </linearGradient>
  </defs>
</svg>