<svg width="13" height="13" viewBox="0 0 13 13" fill="none" xmlns="http://www.w3.org/2000/svg">
<path id="Vector" d="M0.74349 2.07338C0.7418 1.72463 0.870315 1.38449 1.10546 1.12419C1.3683 0.833139 1.74409 0.665159 2.13617 0.663259L4.01507 0.654153C4.72811 0.650698 5.32841 1.17993 5.41131 1.88518C5.46015 2.30023 5.54767 2.71226 5.67139 3.11C5.82629 3.6078 5.69655 4.14545 5.33271 4.5129L4.57515 5.27792C5.3799 6.73208 6.60159 7.94199 8.06319 8.73254L8.82083 7.96744C9.18474 7.60006 9.7211 7.46511 10.2205 7.61525C10.6194 7.73512 11.0322 7.81864 11.4477 7.86345C12.1538 7.93944 12.6888 8.53458 12.6922 9.24763L12.7013 11.1265C12.7032 11.5186 12.5389 11.896 12.2504 12.1617C11.9608 12.4285 11.5693 12.5618 11.1764 12.5275C9.82767 12.41 8.52426 12.059 7.3023 11.4842C6.1143 10.9255 5.03735 10.1721 4.10113 9.24491C3.16498 8.31779 2.40107 7.24811 1.83091 6.06559C1.24437 4.84918 0.880661 3.54923 0.750003 2.20169C0.745796 2.15888 0.743697 2.11613 0.74349 2.07338ZM4.80474 3.52847C4.80451 3.48135 4.79723 3.43347 4.78268 3.38663C4.64189 2.93429 4.54239 2.46575 4.48688 1.99386C4.45934 1.75963 4.25845 1.58375 4.01958 1.58491L2.14068 1.59402C2.00761 1.59466 1.88528 1.64943 1.79617 1.74817C1.70583 1.84802 1.66333 1.97722 1.67649 2.11183C2.16661 7.16861 6.19608 11.1591 11.2573 11.6003C11.392 11.6121 11.5208 11.5683 11.6198 11.4771C11.7177 11.3869 11.7712 11.264 11.7706 11.131L11.7615 9.25214C11.7603 9.01327 11.5826 8.81409 11.348 8.78875C10.8756 8.73789 10.4061 8.64294 9.95245 8.50661C9.7835 8.4558 9.6033 8.50009 9.48216 8.6224L8.24859 9.86799L7.94821 9.72038C6.07557 8.79998 4.52726 7.26639 3.58854 5.4024L3.43788 5.10346L4.67145 3.85795C4.75879 3.76975 4.80534 3.65114 4.80474 3.52847Z" fill="#8F8F8F"/>
</svg>
