<svg width="14" height="14" viewBox="0 0 14 14" fill="none" xmlns="http://www.w3.org/2000/svg">
<path d="M12.2995 8.15349H7.57342V12.8796C7.57342 13.3994 7.14807 13.8248 6.6282 13.8248C6.10834 13.8248 5.68299 13.3994 5.68299 12.8796V8.15349H0.956931C0.437064 8.15349 0.0117188 7.72815 0.0117188 7.20828C0.0117188 6.68842 0.437064 6.26307 0.956931 6.26307H5.68299V1.53701C5.68299 1.01714 6.10834 0.591797 6.6282 0.591797C7.14807 0.591797 7.57342 1.01714 7.57342 1.53701V6.26307H12.2995C12.8193 6.26307 13.2447 6.68842 13.2447 7.20828C13.2447 7.72815 12.8193 8.15349 12.2995 8.15349Z" fill="white"/>
</svg>
