<svg width="14" height="13" viewBox="0 0 14 13" fill="none" xmlns="http://www.w3.org/2000/svg">
<g id="Group 39914">
<g id="Group 39913">
<path id="Ellipse 55 (Stroke)" fill-rule="evenodd" clip-rule="evenodd" d="M6.81357 5.76428C8.06971 5.76428 9.08801 4.74598 9.08801 3.48984C9.08801 2.23371 8.06971 1.21541 6.81357 1.21541C5.55744 1.21541 4.53914 2.23371 4.53914 3.48984C4.53914 4.74598 5.55744 5.76428 6.81357 5.76428ZM6.81357 6.43818C8.4419 6.43818 9.76191 5.11817 9.76191 3.48984C9.76191 1.86152 8.4419 0.541504 6.81357 0.541504C5.18525 0.541504 3.86523 1.86152 3.86523 3.48984C3.86523 5.11817 5.18525 6.43818 6.81357 6.43818Z" fill="#8F8F8F"/>
<g id="ZIP">
<path d="M5.5137 4.05234H6.2769V4.40614H5.02344V4.07761L5.78158 2.98588H5.02344V2.63208H6.2769V2.96061L5.5137 4.05234Z" fill="#8F8F8F"/>
<path d="M7.06715 2.63208V4.40614H6.63501V2.63208H7.06715Z" fill="#8F8F8F"/>
<path d="M8.80816 3.20322C8.80816 3.30599 8.78457 3.40033 8.7374 3.48626C8.69022 3.57049 8.61778 3.63873 8.52006 3.69096C8.42235 3.74318 8.30104 3.7693 8.15615 3.7693H7.88828V4.40614H7.45613V2.63208H8.15615C8.29767 2.63208 8.41729 2.65651 8.51501 2.70537C8.61273 2.75423 8.68601 2.82162 8.73487 2.90754C8.78373 2.99346 8.80816 3.09202 8.80816 3.20322ZM8.1233 3.4256C8.20585 3.4256 8.26735 3.40623 8.30778 3.36748C8.34822 3.32873 8.36843 3.27398 8.36843 3.20322C8.36843 3.13246 8.34822 3.0777 8.30778 3.03895C8.26735 3.0002 8.20585 2.98083 8.1233 2.98083H7.88828V3.4256H8.1233Z" fill="#8F8F8F"/>
</g>
</g>
<path id="Subtract" fill-rule="evenodd" clip-rule="evenodd" d="M4.05648 3.0686H1.44377C1.19106 3.0686 0.969934 3.16337 0.780398 3.35291C0.590862 3.54244 0.496094 3.76357 0.496094 4.01628V11.3636C0.496094 11.6163 0.590862 11.8375 0.780398 12.027C0.969934 12.2165 1.19106 12.3113 1.44377 12.3113H12.1842C12.4369 12.3113 12.658 12.2165 12.8475 12.027C13.0371 11.8375 13.1318 11.6163 13.1318 11.3636V4.01628C13.1318 3.76357 13.0371 3.54244 12.8475 3.35291C12.658 3.16337 12.4369 3.0686 12.1842 3.0686H9.50235V4.01628H12.121L6.81397 8.54409L1.52275 4.01628H4.05648V3.0686ZM1.44377 4.88499L6.81397 9.49177L12.1842 4.88499V11.3636H1.44377V4.88499Z" fill="#8F8F8F"/>
</g>
</svg>
