<svg width="18" height="18" viewBox="0 0 18 18" fill="none" xmlns="http://www.w3.org/2000/svg">
<g clipPath="url(#clip0_1267_29226)">
<path d="M7.17466 12.3437L9.52245 5.30021C9.60941 5.03927 9.46839 4.75721 9.20745 4.67021C8.94654 4.58326 8.66445 4.72427 8.57746 4.98521L6.22966 12.0287C6.1427 12.2896 6.28372 12.5717 6.54466 12.6587C6.59689 12.6761 6.65001 12.6844 6.70221 12.6844C6.91072 12.6844 7.10506 12.5524 7.17466 12.3437Z" fill="#4B4B4B"/>
<path d="M10.6935 10.1592C11.5174 10.1592 12.1876 9.48891 12.1876 8.66504C12.1876 7.84117 11.5174 7.1709 10.6935 7.1709C9.86961 7.1709 9.19934 7.84117 9.19934 8.66504C9.19934 9.48891 9.86961 10.1592 10.6935 10.1592ZM10.6935 8.16699C10.9681 8.16699 11.1915 8.39042 11.1915 8.66504C11.1915 8.93966 10.9681 9.16309 10.6935 9.16309C10.4189 9.16309 10.1954 8.93966 10.1954 8.66504C10.1954 8.39042 10.4189 8.16699 10.6935 8.16699Z" fill="#4B4B4B"/>
<path d="M5.05872 7.1709C4.23485 7.1709 3.56458 7.84117 3.56458 8.66504C3.56458 9.48891 4.23485 10.1592 5.05872 10.1592C5.88258 10.1592 6.55286 9.48891 6.55286 8.66504C6.55286 7.84117 5.88262 7.1709 5.05872 7.1709ZM5.05872 9.16309C4.78409 9.16309 4.56067 8.93966 4.56067 8.66504C4.56067 8.39042 4.78409 8.16699 5.05872 8.16699C5.33334 8.16699 5.55676 8.39042 5.55676 8.66504C5.55676 8.93966 5.33337 9.16309 5.05872 9.16309Z" fill="#4B4B4B"/>
<path d="M17.3166 7.06445L15.5799 4.74876L15.6477 4.27452C15.6698 4.11933 15.6176 3.96274 15.5068 3.85191L14.4502 2.79539L15.5067 1.73886C15.7012 1.54439 15.7012 1.22903 15.5067 1.03452C15.3123 0.840054 14.9969 0.840054 14.8024 1.03452L13.7459 2.09105L12.6894 1.03452C12.5786 0.92366 12.422 0.871664 12.2668 0.893644L7.33635 1.59798C7.22967 1.61322 7.13082 1.66266 7.05462 1.73886L0.950291 7.84319C0.23825 8.5552 0.23825 9.71379 0.950291 10.4258L6.11547 15.591C6.22112 15.6967 6.3368 15.7863 6.45922 15.8606V16.0625C6.45922 17.0694 7.27844 17.8887 8.28539 17.8887H15.5901C16.597 17.8887 17.4163 17.0694 17.4163 16.0625V7.36327C17.4163 7.25553 17.3813 7.15064 17.3166 7.06445ZM1.65463 9.72146C1.33096 9.39779 1.33096 8.87119 1.65463 8.54753L7.64155 2.56061L12.1611 1.91497L13.0415 2.79542L12.3372 3.49976L11.985 3.14757C11.7905 2.9531 11.4752 2.9531 11.2807 3.14757C11.0862 3.34204 11.0862 3.65741 11.2807 3.85191L12.6894 5.26062C12.7866 5.35787 12.9141 5.40651 13.0415 5.40651C13.169 5.40651 13.2965 5.35787 13.3937 5.26062C13.5882 5.06615 13.5882 4.75078 13.3937 4.55628L13.0415 4.2041L13.7458 3.49976L14.6263 4.3802L13.9806 8.89975L7.99374 14.8867C7.83695 15.0435 7.6285 15.1298 7.40677 15.1298C7.18504 15.1298 6.97659 15.0434 6.81981 14.8867L1.65463 9.72146ZM16.4202 16.0625C16.4202 16.5202 16.0478 16.8926 15.5901 16.8926H8.28539C7.84831 16.8926 7.48931 16.553 7.4578 16.1238C7.90827 16.1113 8.35502 15.9341 8.69804 15.591L14.8024 9.48668C14.8786 9.41048 14.928 9.31163 14.9432 9.20495L15.3806 6.14329L16.4202 7.52929V16.0625Z" fill="#4B4B4B"/>
</g>
<defs>
<clipPath id="clip0_1267_29226">
<rect width="17" height="17" fill="white" transform="translate(0.416016 0.888672)"/>
</clipPath>
</defs>
</svg>
