<svg width="34" height="34" viewBox="0 0 34 34" fill="none" xmlns="http://www.w3.org/2000/svg">
<rect x="1.38281" y="1.26367" width="31.4496" height="31.2797" rx="7.5" fill="white" stroke="#C7C7C7"/>
<path d="M20.9196 19.8145H19.9589C19.6051 19.8145 19.3184 20.1012 19.3184 20.455V24.298C19.3184 24.6518 19.6051 24.9385 19.9589 24.9385H20.9196C21.9792 24.9385 22.8412 24.0765 22.8412 23.017V21.736C22.8412 20.6764 21.9792 19.8145 20.9196 19.8145ZM21.5601 23.017C21.5601 23.3702 21.2728 23.6575 20.9196 23.6575H20.5994V21.0955H20.9196C21.2728 21.0955 21.5601 21.3828 21.5601 21.736V23.017Z" fill="#4A13E7"/>
<path d="M26.0464 19.8145H24.1249C23.7711 19.8145 23.4844 20.1012 23.4844 20.455V24.298C23.4844 24.6518 23.7711 24.9385 24.1249 24.9385C24.4786 24.9385 24.7654 24.6518 24.7654 24.298V23.017H25.4059C25.7596 23.017 26.0464 22.7302 26.0464 22.3765C26.0464 22.0227 25.7596 21.736 25.4059 21.736H24.7654V21.0955H26.0464C26.4002 21.0955 26.6869 20.8087 26.6869 20.455C26.6869 20.1012 26.4002 19.8145 26.0464 19.8145Z" fill="#4A13E7"/>
<path d="M17.0797 19.8145H15.7987C15.445 19.8145 15.1582 20.1012 15.1582 20.455V24.298C15.1582 24.6518 15.445 24.9385 15.7987 24.9385C16.1525 24.9385 16.4392 24.6518 16.4392 24.298V23.017H17.0797C17.9627 23.017 18.681 22.2987 18.681 21.4157C18.681 20.5328 17.9627 19.8145 17.0797 19.8145ZM17.0797 21.736H16.4392V21.0955H17.0797C17.2563 21.0955 17.4 21.2391 17.4 21.4157C17.4 21.5923 17.2563 21.736 17.0797 21.736Z" fill="#4A13E7"/>
<path d="M22.9113 12.5713L19.0686 8.72868C19.0615 8.72394 18.8944 8.54102 18.6157 8.54102H12.2106C11.1511 8.54102 10.2891 9.40301 10.2891 10.4625V23.0165C10.2891 24.076 11.1511 24.938 12.2106 24.938H13.4916C13.8454 24.938 14.1321 24.6513 14.1321 24.2975C14.1321 23.9437 13.8454 23.657 13.4916 23.657H12.2106C11.8574 23.657 11.5701 23.3697 11.5701 23.0165V10.4625C11.5701 10.1094 11.8574 9.82203 12.2106 9.82203H17.9752V11.7436C17.9752 12.8031 18.8371 13.6651 19.8967 13.6651H21.8182V18.1486C21.8182 18.5024 22.105 18.7891 22.4587 18.7891C22.8125 18.7891 23.0992 18.5024 23.0992 18.1486V13.0245C23.0992 12.8564 23.0305 12.6901 22.9113 12.5713ZM19.8967 12.3841C19.5435 12.3841 19.2562 12.0967 19.2562 11.7436V10.7278L20.9124 12.3841H19.8967Z" fill="#4A13E7"/>
<path d="M19.1431 16.7408H18.1954L17.1498 14.9297L17.6236 14.109C17.8175 13.7732 17.8175 13.3722 17.6236 13.0364C17.4297 12.7005 17.0824 12.5 16.6946 12.5C16.3068 12.5 15.9596 12.7005 15.7657 13.0364C15.5718 13.3722 15.5718 13.7732 15.7657 14.109L16.2395 14.9297L15.1939 16.7408H14.2462C13.8585 16.7408 13.5112 16.9413 13.3173 17.2771C13.1234 17.613 13.1234 18.014 13.3173 18.3498C13.5112 18.6856 13.8584 18.8861 14.2462 18.8861H14.2462C14.634 18.8861 14.9813 18.6856 15.1752 18.3498L15.6491 17.5291H17.7403L18.2141 18.3498C18.408 18.6856 18.7553 18.8861 19.1431 18.8861C19.5309 18.8861 19.8781 18.6856 20.072 18.3498C20.2659 18.014 20.2659 17.613 20.072 17.2771C19.8781 16.9413 19.5309 16.7408 19.1431 16.7408ZM14.4925 17.9556C14.4184 18.084 14.2956 18.0978 14.2462 18.0978C14.1969 18.0978 14.0741 18.084 14 17.9556C13.9259 17.8273 13.9753 17.714 14 17.6713C14.0247 17.6285 14.098 17.5291 14.2462 17.5291H14.7388L14.4925 17.9556ZM16.4484 13.4305C16.4731 13.3877 16.5465 13.2883 16.6947 13.2883C16.8429 13.2883 16.9163 13.3877 16.941 13.4305C16.9656 13.4732 17.015 13.5865 16.941 13.7149L16.6947 14.1414L16.4484 13.7149C16.3743 13.5865 16.4237 13.4732 16.4484 13.4305ZM16.1042 16.7408L16.6947 15.718L17.2852 16.7408H16.1042ZM19.3893 17.9556C19.3153 18.084 19.1925 18.0978 19.1431 18.0978C19.0937 18.0978 18.9709 18.084 18.8968 17.9556L18.6505 17.5291H19.1431C19.2913 17.5291 19.3647 17.6285 19.3893 17.6713C19.414 17.714 19.4634 17.8273 19.3893 17.9556Z" fill="#4A13E7"/>
</svg>
