<svg width="41" height="41" viewBox="0 0 41 41" fill="none" xmlns="http://www.w3.org/2000/svg">
<rect x="0.632812" y="1.27246" width="39.2105" height="39" rx="7.5" fill="white" stroke="#C7C7C7"/>
<path d="M26.5784 26.084H27.7881C29.1704 26.084 30.2908 24.9695 30.2908 23.5944V18.6151C30.2908 17.24 29.1704 16.1255 27.7881 16.1255H12.6883C11.3059 16.1255 10.1855 17.24 10.1855 18.6151V23.5944C10.1855 24.9695 11.3059 26.084 12.6883 26.084H13.8979" stroke="#4B4B4B" stroke-width="1.4" stroke-miterlimit="10" stroke-linecap="round" stroke-linejoin="round"/>
<path d="M27.5811 22.7637H12.8984" stroke="#4B4B4B" stroke-width="1.4" stroke-miterlimit="10" stroke-linecap="round" stroke-linejoin="round"/>
<path d="M15.1498 30.7725H25.3276C26.0187 30.7725 26.5789 30.2151 26.5789 29.5276V22.7642H13.8984V29.5276C13.8984 30.2151 14.4587 30.7725 15.1498 30.7725Z" stroke="#4B4B4B" stroke-width="1.4" stroke-miterlimit="10" stroke-linecap="round" stroke-linejoin="round"/>
<path d="M21.9053 25.4199H18.5684" stroke="#4B4B4B" stroke-width="1.4" stroke-miterlimit="10" stroke-linecap="round" stroke-linejoin="round"/>
<path d="M21.9053 28.0752H18.5684" stroke="#4B4B4B" stroke-width="1.4" stroke-miterlimit="10" stroke-linecap="round" stroke-linejoin="round"/>
<path d="M14.9006 18.7803H12.8984" stroke="#4B4B4B" stroke-width="1.4" stroke-miterlimit="10" stroke-linecap="round" stroke-linejoin="round"/>
<path d="M16.4012 10.7723H24.0762C25.4584 10.7723 26.5789 11.887 26.5789 13.2619V16.125H13.8984V13.2619C13.8984 11.887 15.019 10.7723 16.4012 10.7723Z" stroke="#4B4B4B" stroke-width="1.4" stroke-miterlimit="10" stroke-linecap="round" stroke-linejoin="round"/>
</svg>
