<svg width="13" height="13" viewBox="0 0 13 13" fill="none" xmlns="http://www.w3.org/2000/svg">
<path d="M11.9486 5.98397L11.9344 5.98634C11.5409 6.05034 11.1664 5.78723 11.0953 5.39612C10.6496 2.96174 8.31482 1.34988 5.88044 1.79551C4.7877 1.99462 3.80873 2.59433 3.13317 3.47374L4.0434 4.38396C4.18088 4.52145 4.18088 4.74426 4.0434 4.88174C3.99125 4.93626 3.92014 4.96945 3.84666 4.9813L0.836278 5.43641C0.644278 5.46723 0.464129 5.33449 0.435684 5.14011C0.430944 5.10693 0.430944 5.07137 0.435684 5.03582L0.881315 2.01833C0.90976 1.82633 1.08754 1.69359 1.28191 1.72203C1.35776 1.73388 1.4265 1.76707 1.47865 1.82159L2.07362 2.41655C2.19213 2.27433 2.31776 2.13448 2.45051 2.00174C3.56932 0.875806 5.09348 0.245286 6.67926 0.250027C9.55453 0.250027 12.0221 2.29566 12.5554 5.12115C12.6313 5.52175 12.3682 5.90575 11.9676 5.9816C11.9605 5.9816 11.9557 5.98397 11.9486 5.98397Z" fill="white"/>
<path d="M12.3927 7.97438L11.9375 10.9871C11.9091 11.1791 11.7289 11.3119 11.5369 11.2834C11.4635 11.2716 11.3947 11.2384 11.3402 11.1839L10.7571 10.6008C8.32034 12.8265 4.53959 12.6535 2.31144 10.2168C1.65958 9.50091 1.18788 8.63809 0.943728 7.69942C0.841802 7.30594 1.07647 6.90297 1.46995 6.80105C1.51025 6.79157 1.55054 6.78446 1.59084 6.77971C1.61217 6.77734 1.63588 6.77734 1.65721 6.77734C1.99381 6.77734 2.2901 7.00727 2.3707 7.33438C2.56033 8.08816 2.95618 8.76846 3.5464 9.36105C5.227 11.0393 7.92449 11.1199 9.70464 9.54831L8.77545 8.61676C8.63797 8.47927 8.63797 8.25646 8.77545 8.11898C8.82997 8.06446 8.89871 8.03127 8.9722 8.01942L11.9921 7.57379C12.1841 7.54535 12.3642 7.67809 12.3903 7.87246C12.3974 7.90564 12.3974 7.93883 12.3927 7.97438Z" fill="white"/>
</svg>
