<svg xmlns="http://www.w3.org/2000/svg" width="34" height="35" viewBox="0 0 34 35" fill="none">
  <rect x="0.679688" y="1.26758" width="32.2438" height="32.2438" rx="7.5" fill="white" stroke="#EFF4FA"/>
  <path d="M21.9765 12.0698C21.9765 11.1962 21.2686 10.4883 20.395 10.4883H13.2065C12.3329 10.4883 11.625 11.1962 11.625 12.0698V22.7088C11.625 23.5824 12.3329 24.2903 13.2065 24.2903H20.395C21.2686 24.2903 21.9765 23.5824 21.9765 22.7088V12.0698ZM15.0065 15.8078H14.5694C13.8972 15.8078 13.3503 15.2609 13.3503 14.5886C13.3503 13.9842 13.7862 13.4868 14.3566 13.3856V12.9324C14.3566 12.6943 14.5499 12.5011 14.788 12.5011C15.026 12.5011 15.2193 12.6943 15.2193 12.9324V13.3637H15.7944C16.0324 13.3637 16.2257 13.5569 16.2257 13.795C16.2257 14.0331 16.0324 14.2263 15.7944 14.2263H14.5694C14.3728 14.2263 14.2129 14.3862 14.2129 14.5829C14.2129 14.7853 14.3728 14.9452 14.5694 14.9452H15.0065C15.6788 14.9452 16.2257 15.4921 16.2257 16.1644C16.2257 16.7688 15.7898 17.2662 15.2193 17.3674V17.82C15.2193 18.0581 15.026 18.2513 14.788 18.2513C14.5499 18.2513 14.3566 18.0581 14.3566 17.82V17.3893H13.7816C13.5435 17.3893 13.3503 17.1961 13.3503 16.958C13.3503 16.7199 13.5435 16.5267 13.7816 16.5267H15.0065C15.2032 16.5267 15.363 16.3668 15.363 16.1701C15.363 15.9677 15.2032 15.8078 15.0065 15.8078ZM19.8199 22.565H13.7816C13.5435 22.565 13.3503 22.3718 13.3503 22.1337C13.3503 21.8956 13.5435 21.7024 13.7816 21.7024H19.8199C20.058 21.7024 20.2513 21.8956 20.2513 22.1337C20.2513 22.3718 20.058 22.565 19.8199 22.565ZM19.8199 20.2647H13.7816C13.5435 20.2647 13.3503 20.0715 13.3503 19.8334C13.3503 19.5953 13.5435 19.4021 13.7816 19.4021H19.8199C20.058 19.4021 20.2513 19.5953 20.2513 19.8334C20.2513 20.0715 20.058 20.2647 19.8199 20.2647ZM19.8199 17.9644H17.8072C17.5691 17.9644 17.3758 17.7711 17.3758 17.5331C17.3758 17.295 17.5691 17.1017 17.8072 17.1017H19.8199C20.058 17.1017 20.2513 17.295 20.2513 17.5331C20.2513 17.7711 20.058 17.9644 19.8199 17.9644ZM19.8199 15.664H17.8072C17.5691 15.664 17.3758 15.4708 17.3758 15.2327C17.3758 14.9946 17.5691 14.8014 17.8072 14.8014H19.8199C20.058 14.8014 20.2513 14.9946 20.2513 15.2327C20.2513 15.4708 20.058 15.664 19.8199 15.664Z" fill="url(#paint0_linear_2051_43567)"/>
  <defs>
    <linearGradient id="paint0_linear_2051_43567" x1="22.1142" y1="17.3898" x2="11.765" y2="17.3958" gradientUnits="userSpaceOnUse">
      <stop offset="5.32779e-09" stop-color="#4A13E7"/>
      <stop offset="1" stop-color="#7B18FF"/>
    </linearGradient>
  </defs>
</svg>