<svg width="132" height="134" viewBox="0 0 132 134" fill="none" xmlns="http://www.w3.org/2000/svg">
<g clip-path="url(#clip0_1348_41329)">
<path d="M56.94 27.0402L22.2764 72.0316C22.1661 72.1756 22.0913 72.3434 22.0591 72.5222C22.0268 72.7001 22.0379 72.884 22.0913 73.0568L40.0959 131.852C40.1825 132.135 40.3243 132.397 40.5127 132.625C40.7012 132.853 40.9338 133.041 41.1962 133.179C41.4585 133.317 41.7454 133.402 42.04 133.429C42.3354 133.456 42.6326 133.424 42.9153 133.336L130.163 106.127C130.444 106.039 130.68 105.846 130.822 105.589C130.963 105.33 130.999 105.029 130.922 104.745L114.833 45.2943C114.784 45.1139 114.691 44.9478 114.563 44.8114C114.434 44.675 114.274 44.5724 114.096 44.5131C108.543 42.6618 64.6128 27.9841 58.0699 26.6191C57.8611 26.5759 57.6437 26.5928 57.4442 26.6674C57.2447 26.742 57.0698 26.8707 56.94 27.0402Z" fill="#4A13E7"/>
<path d="M41.3901 133.873C41.2144 133.873 41.0412 133.827 40.8884 133.74C40.7356 133.654 40.6082 133.528 40.5191 133.377C40.4299 133.226 40.3816 133.054 40.379 132.878C40.3765 132.702 40.4198 132.529 40.5047 132.376C40.5768 132.248 47.7038 119.376 55.0659 106.521C70.111 80.246 71.4328 79.6385 72.0687 79.3454C72.8497 78.987 74.1545 78.3862 102.704 91.3837C116.616 97.7173 130.378 104.286 130.516 104.343C130.64 104.398 130.751 104.478 130.842 104.576C130.935 104.674 131.006 104.79 131.053 104.917C131.099 105.044 131.12 105.178 131.113 105.312C131.107 105.447 131.073 105.579 131.016 105.701C130.957 105.822 130.875 105.931 130.774 106.021C130.673 106.11 130.555 106.178 130.426 106.222C130.299 106.265 130.163 106.282 130.029 106.272C129.894 106.262 129.763 106.226 129.643 106.164C129.51 106.102 116.236 99.7686 102.601 93.5418C79.092 82.8362 73.9644 81.3145 72.8794 81.234C72.1145 81.9694 69.0201 86.2034 56.5549 107.993C49.304 120.677 42.346 133.239 42.2773 133.355C42.189 133.513 42.0608 133.643 41.9046 133.735C41.7484 133.826 41.5709 133.874 41.3901 133.873Z" fill="white"/>
<path d="M64.2655 93.7551C64.1127 93.7551 63.9625 93.7203 63.8258 93.6543L22.2755 73.5539C22.1558 73.4962 22.0489 73.4149 21.9606 73.3158C21.8723 73.2166 21.8044 73.1014 21.7611 72.976C21.7178 72.8506 21.6991 72.7176 21.7067 72.5854C21.7144 72.4532 21.7483 72.3236 21.8069 72.2041C21.8655 72.0847 21.9462 71.9779 22.0455 71.8898C22.1448 71.8017 22.2603 71.7339 22.3859 71.6907C22.5116 71.6474 22.6448 71.6288 22.7773 71.6364C22.9097 71.6449 23.0396 71.6788 23.1593 71.7364L64.7078 91.8368C64.9141 91.9359 65.0805 92.1029 65.179 92.3088C65.2783 92.5155 65.3038 92.7485 65.2529 92.9713C65.2019 93.1942 65.0763 93.3933 64.8972 93.5356C64.718 93.678 64.4956 93.7551 64.2664 93.7551H64.2655Z" fill="white"/>
<path d="M88.0806 86.9939C87.8998 86.9922 87.7232 86.9422 87.5678 86.849C87.4133 86.7567 87.2868 86.6236 87.2002 86.4652C87.1145 86.3067 87.072 86.128 87.0788 85.9475C87.0856 85.7679 87.14 85.5925 87.2376 85.4408L113.171 44.863C113.326 44.6655 113.549 44.5334 113.797 44.491C114.045 44.4486 114.299 44.5003 114.511 44.635C114.722 44.7698 114.877 44.9782 114.943 45.2205C115.009 45.4629 114.983 45.7204 114.869 45.9441L88.9372 86.527C88.8455 86.6702 88.719 86.7888 88.5696 86.871C88.4193 86.9524 88.2512 86.9956 88.0806 86.9947V86.9939Z" fill="white"/>
<path d="M67.171 73.6393C66.2176 73.641 65.2668 73.5571 64.3287 73.3885C59.28 72.4633 55.5598 69.252 53.8738 64.3462C53.8263 64.2199 53.8042 64.0852 53.8093 63.9505C53.8144 63.8158 53.8467 63.6827 53.9044 63.5607C53.9621 63.4387 54.0436 63.3294 54.1438 63.2388C54.2448 63.1489 54.362 63.0795 54.4902 63.0354C54.6184 62.9913 54.7533 62.9736 54.8883 62.9829C55.0233 62.9922 55.1549 63.0278 55.2754 63.0888C55.396 63.1498 55.5038 63.2345 55.5913 63.337C55.6787 63.4404 55.7449 63.559 55.7848 63.6887C57.6398 69.0563 61.6519 70.8449 64.692 71.4016C68.5802 72.1142 72.2613 71.0034 73.1875 69.8875C73.3598 69.6841 73.606 69.557 73.8717 69.5342C74.1374 69.5104 74.4023 69.5935 74.6069 69.7638C74.8124 69.9341 74.9414 70.179 74.9669 70.4442C74.9923 70.7094 74.9108 70.9737 74.7419 71.1796C73.4753 72.7048 70.3978 73.6402 67.1693 73.6402L67.171 73.6393Z" fill="white"/>
<path d="M54.0164 60.9328C53.7574 60.9328 53.5078 60.8345 53.3202 60.6566C53.1326 60.4787 53.0188 60.2363 53.0053 59.9779C52.8949 58.1249 53.1538 56.2684 53.7651 54.5162C54.3772 52.7632 55.3305 51.1491 56.57 49.7655C59.1686 46.866 62.8633 45.0528 67.2549 44.5114C74.9481 43.5692 79.9883 48.2141 81.4197 52.9267C81.4579 53.0538 81.4706 53.1868 81.457 53.319C81.4434 53.4512 81.4044 53.5791 81.3407 53.6961C81.2779 53.813 81.1922 53.9164 81.0894 53.9994C80.9859 54.0833 80.8679 54.146 80.7405 54.1841C80.6132 54.2222 80.479 54.2349 80.3474 54.2214C80.215 54.2078 80.0868 54.1689 79.9697 54.1053C79.8525 54.0426 79.7489 53.957 79.6657 53.8545C79.5817 53.752 79.5189 53.6334 79.4807 53.5063C78.2998 49.5799 74.0372 45.7171 67.5079 46.5169C59.7909 47.4608 54.6616 52.953 55.0292 59.8703C55.0368 60.0025 55.0173 60.1355 54.9731 60.2609C54.929 60.3863 54.8611 60.5015 54.7719 60.5998C54.6828 60.6981 54.5758 60.7786 54.4553 60.8362C54.3356 60.8938 54.2057 60.9269 54.0724 60.9337H54.0172L54.0164 60.9328Z" fill="white"/>
<path d="M76.6931 61.307C70.9601 61.307 67.3258 52.2003 67.1577 51.769C67.1093 51.6453 67.0855 51.514 67.0881 51.381C67.0915 51.2488 67.1203 51.1174 67.1738 50.9963C67.2816 50.7514 67.4828 50.5582 67.7324 50.4616C67.982 50.3642 68.2613 50.3701 68.5067 50.4777C68.752 50.5853 68.9456 50.7862 69.0424 51.0353C69.0933 51.1632 73.0002 60.93 78.0455 59.0261C79.3733 58.5211 79.7757 57.3663 79.8826 56.4834C79.8962 56.3512 79.937 56.2224 80.0015 56.1055C80.0651 55.9886 80.1526 55.8852 80.257 55.8021C80.3606 55.7191 80.4811 55.6573 80.6093 55.6208C80.7375 55.5844 80.8717 55.5734 81.0049 55.5886C81.1374 55.6039 81.2656 55.6454 81.3819 55.7106C81.499 55.7759 81.6009 55.8632 81.6841 55.9682C81.7664 56.0733 81.8276 56.1927 81.8632 56.3215C81.8989 56.4503 81.9091 56.5842 81.8921 56.7164C81.6493 58.7516 80.5431 60.2386 78.7612 60.9105C78.1015 61.1672 77.4011 61.3019 76.6931 61.3079V61.307Z" fill="white"/>
<path d="M67.2519 64.5663C66.1796 64.5765 65.1286 64.2698 64.2313 63.6843C62.5886 62.5938 61.6836 60.6882 61.6836 58.3175C61.6836 53.6642 68.0202 51.6357 68.2884 51.5519C68.544 51.4739 68.8199 51.5002 69.0559 51.6247C69.2919 51.7493 69.4693 51.9611 69.5491 52.2153C69.6289 52.4695 69.6052 52.7448 69.4821 52.9812C69.3598 53.2176 69.1484 53.3964 68.8937 53.4778C68.842 53.4947 63.7066 55.1469 63.7066 58.3167C63.7066 59.9892 64.2899 61.2991 65.3511 62.0007C66.3494 62.6641 67.6594 62.7328 68.9481 62.1939C71.4032 61.1636 71.2411 58.2218 71.2343 58.0955C71.2156 57.8278 71.3039 57.5634 71.4805 57.3601C71.6562 57.1576 71.9067 57.033 72.1749 57.0135C72.4432 56.994 72.7081 57.083 72.911 57.2584C73.1147 57.4346 73.2395 57.6837 73.2582 57.9515C73.2718 58.1345 73.5468 62.4582 69.7393 64.0537C68.9523 64.3875 68.1068 64.5612 67.2519 64.5638V64.5663Z" fill="white"/>
<path d="M13.7272 28.2996C12.1492 28.2996 9.82946 27.455 8.02103 25.8256C5.66821 23.7045 4.79302 20.8349 5.55969 17.7459C6.31823 14.6875 8.08313 12.3381 10.5317 11.1304C13.0435 9.89144 16.1137 9.93836 19.178 11.2648C19.3405 11.3413 19.4665 11.4785 19.5297 11.6459C19.593 11.8139 19.5883 11.9993 19.5164 12.1638C19.445 12.3283 19.3121 12.458 19.1461 12.527C18.9801 12.5953 18.7938 12.5965 18.6273 12.5304C15.9471 11.3696 13.2908 11.3106 11.1492 12.3683C9.0744 13.3935 7.56602 15.4208 6.90788 18.0772C6.09072 21.3736 7.5695 23.5527 8.95426 24.801C10.8689 26.5271 13.3767 27.1689 14.2571 26.8526C14.343 26.8185 14.4353 26.8022 14.5281 26.8051C14.621 26.8075 14.7121 26.8283 14.7962 26.8665C14.8804 26.9048 14.9564 26.9592 15.0191 27.0276C15.0818 27.0953 15.1305 27.1753 15.1613 27.2622C15.1926 27.349 15.206 27.4417 15.2008 27.5338C15.1955 27.6259 15.1717 27.7163 15.1311 27.7991C15.0905 27.8819 15.033 27.9561 14.9634 28.0169C14.8932 28.0777 14.8119 28.1235 14.7237 28.1519C14.4028 28.2573 14.0656 28.3077 13.7278 28.3001L13.7272 28.2996Z" fill="#FF376F"/>
<path d="M20.6715 23.9285C20.491 23.9285 20.311 23.9128 20.1329 23.8821C15.5126 23.088 16.6745 15.5185 16.7308 15.1976C16.7685 15.0256 16.8712 14.875 17.0169 14.776C17.1626 14.6769 17.3407 14.6369 17.5148 14.6647C17.6889 14.6925 17.8456 14.7852 17.9536 14.9242C18.0615 15.0633 18.112 15.2388 18.0946 15.4137C18.0819 15.4942 17.0906 21.9556 20.3656 22.5186C21.4898 22.7121 22.134 21.8131 22.4178 21.2599C23.3818 19.3832 23.0817 16.1708 20.9123 14.0461C20.7817 13.9175 20.7069 13.7426 20.7057 13.5596C20.7045 13.3765 20.7753 13.2004 20.9042 13.0695C21.033 12.9386 21.2083 12.8645 21.3917 12.8633C21.5751 12.8616 21.7515 12.9328 21.8827 13.0614C24.6046 15.7282 24.8246 19.601 23.6499 21.8896C22.9825 23.1986 21.8995 23.9285 20.6715 23.9285Z" fill="#FF376F"/>
<path d="M14.7599 22.7527C14.5916 22.7527 14.4239 22.7411 14.2573 22.7179C12.9613 22.543 11.8789 21.8045 11.3613 20.7416C10.8128 19.6138 10.9312 18.2781 11.6955 16.9806C13.1941 14.432 17.3065 15.3535 17.4801 15.3952C17.5724 15.4115 17.6606 15.4462 17.7395 15.4972C17.8184 15.5482 17.8852 15.6154 17.9374 15.6935C17.9891 15.7717 18.025 15.8592 18.0419 15.9513C18.0587 16.0434 18.0564 16.1384 18.0355 16.2293C18.0146 16.3209 17.9751 16.4066 17.9194 16.4825C17.8637 16.5583 17.7935 16.6215 17.7128 16.6696C17.6321 16.7176 17.5422 16.7478 17.4493 16.7599C17.3565 16.7721 17.2619 16.7646 17.1713 16.7391C17.1388 16.7321 13.865 16.0324 12.8934 17.6815C12.3711 18.5677 12.2695 19.4395 12.6096 20.138C12.9288 20.7949 13.5986 21.2368 14.4471 21.351C16.0611 21.5682 16.8922 19.9637 16.927 19.8942C17.01 19.7326 17.1533 19.6103 17.3263 19.5536C17.4992 19.4968 17.6873 19.5101 17.8498 19.5907C18.0129 19.6712 18.1371 19.8125 18.1963 19.984C18.2555 20.1554 18.245 20.3431 18.1661 20.507C18.1133 20.6049 17.0239 22.7527 14.7593 22.7527H14.7599Z" fill="#FF376F"/>
<path d="M93.4612 25.047C91.4203 25.047 88.9634 24.5522 86.8708 22.7212C86.7629 22.6364 86.673 22.5305 86.6076 22.4102C86.5414 22.2899 86.5015 22.1569 86.4887 22.0205C86.476 21.884 86.4913 21.7459 86.5337 21.6155C86.5762 21.485 86.6449 21.3647 86.7358 21.2613C86.8266 21.1579 86.9378 21.0749 87.0618 21.0156C87.1866 20.9563 87.3216 20.9241 87.4582 20.919C87.5958 20.9139 87.7333 20.9368 87.8615 20.9868C87.9897 21.0367 88.106 21.1113 88.2045 21.2079C91.0459 23.6939 94.867 23.0474 96.3782 22.6551C98.7748 22.0323 100.191 20.8978 100.393 20.3293C100.435 20.2013 100.502 20.0827 100.591 19.981C100.679 19.8793 100.787 19.7963 100.908 19.737C101.029 19.6777 101.161 19.6429 101.295 19.6345C101.43 19.6268 101.565 19.6455 101.693 19.6904C101.819 19.7353 101.936 19.8048 102.036 19.8954C102.136 19.9861 102.216 20.0954 102.273 20.2183C102.33 20.3403 102.362 20.4724 102.366 20.6072C102.371 20.7419 102.349 20.8758 102.3 21.002C101.776 22.4712 99.6509 23.887 96.8875 24.6056C95.7686 24.8962 94.6174 25.0445 93.4612 25.0478V25.047Z" fill="#FE9244"/>
<path d="M84.9717 19.448C84.779 19.448 84.5897 19.3929 84.4267 19.2895C84.2637 19.1853 84.1338 19.0379 84.0531 18.8625C82.812 16.1851 82.761 13.3695 83.9114 10.7183C85.0057 8.19336 87.1153 5.98361 90.0238 4.33816C94.9503 1.54802 100.112 3.5756 102.469 6.90293C104.096 9.19825 104.058 11.6258 102.371 13.0865C98.1016 16.7892 92.0036 10.0184 91.7472 9.72019C91.6589 9.62105 91.591 9.50497 91.5468 9.37873C91.5035 9.25333 91.4849 9.1203 91.4925 8.98728C91.501 8.85425 91.5349 8.72461 91.5927 8.6043C91.6513 8.48483 91.7319 8.37722 91.8321 8.2891C91.9314 8.20098 92.0477 8.13235 92.1734 8.08914C92.2999 8.04593 92.4331 8.02729 92.5664 8.03491C92.6989 8.04254 92.8296 8.07643 92.9493 8.1349C93.069 8.19336 93.1768 8.27385 93.2651 8.37383C93.3161 8.42975 98.324 13.9024 101.051 11.5444C102.076 10.6556 101.606 9.15928 100.822 8.05356C99.3512 5.97853 95.3917 3.60695 91.0273 6.07936C85.8877 9.00083 83.8791 13.6796 85.8877 18.0135C85.9446 18.1338 85.9769 18.2652 85.982 18.3982C85.9879 18.5312 85.9675 18.6642 85.9217 18.7896C85.8758 18.915 85.8054 19.0294 85.7145 19.1277C85.6237 19.226 85.515 19.3048 85.3936 19.3599C85.2612 19.4192 85.1169 19.4488 84.9717 19.4471V19.448Z" fill="#FE9244"/>
<path d="M93.8343 18.8014C93.5185 18.8014 93.2053 18.7641 92.8979 18.6921C91.4089 18.3388 90.2407 17.2025 89.6082 15.4944C88.3637 12.1281 92.3351 9.02613 92.5032 8.89564C92.6093 8.8143 92.729 8.75499 92.8572 8.72025C92.9862 8.68552 93.1195 8.67704 93.2519 8.69399C93.3835 8.71093 93.5109 8.75415 93.6255 8.82024C93.7409 8.88632 93.842 8.97444 93.9235 9.07951C94.005 9.18457 94.0644 9.30489 94.0992 9.43283C94.134 9.56077 94.1425 9.69465 94.1255 9.82598C94.1085 9.95731 94.0661 10.0844 93.999 10.1996C93.9328 10.3149 93.8445 10.4157 93.7392 10.497C93.7112 10.5191 90.7883 12.8534 91.5073 14.7954C91.8962 15.8502 92.5575 16.5374 93.3623 16.7289C94.1187 16.9077 94.9422 16.6501 95.618 16.0222C96.888 14.8445 96.1138 13.0347 96.0798 12.9576C95.9728 12.7136 95.966 12.4373 96.062 12.1891C96.1571 11.9408 96.3472 11.74 96.5909 11.6299C96.8337 11.5206 97.1104 11.5112 97.36 11.6044C97.6105 11.6977 97.8134 11.8858 97.9254 12.1272C97.984 12.2569 99.3398 15.3249 96.9975 17.4974C96.146 18.315 95.0161 18.781 93.8343 18.8014Z" fill="#FE9244"/>
<path d="M27.7185 111.624C27.5342 111.624 27.3534 111.574 27.1955 111.479C27.0376 111.384 26.9086 111.248 26.8228 111.085L18.6797 95.7163C18.554 95.4799 18.5286 95.2028 18.6075 94.947C18.6865 94.6911 18.8639 94.4767 19.1016 94.3513C19.3385 94.2259 19.6161 94.2005 19.8724 94.2793C20.1288 94.3581 20.3436 94.5352 20.4693 94.7724L28.6124 110.142C28.6744 110.258 28.7126 110.387 28.7253 110.519C28.738 110.652 28.7236 110.785 28.6846 110.911C28.6455 111.038 28.5818 111.156 28.4969 111.258C28.412 111.36 28.3085 111.445 28.1905 111.507C28.0453 111.584 27.8831 111.624 27.7185 111.624Z" fill="#FE9244"/>
<path d="M29.7656 122.159C29.5932 122.159 29.4243 122.114 29.2732 122.031C29.1229 121.947 28.9964 121.826 28.9056 121.68L21.6004 109.923C21.4594 109.694 21.4144 109.419 21.4764 109.158C21.5384 108.897 21.7014 108.671 21.9306 108.53C22.159 108.389 22.4349 108.344 22.6964 108.406C22.9578 108.468 23.1845 108.631 23.3254 108.859L30.6324 120.615C30.7274 120.768 30.7801 120.943 30.7852 121.124C30.7894 121.304 30.7461 121.482 30.6578 121.639C30.5704 121.797 30.4413 121.928 30.286 122.019C30.1306 122.11 29.9532 122.159 29.7724 122.159H29.7656Z" fill="#FF376F"/>
<path d="M125.053 61.4538C124.791 61.4538 124.539 61.3529 124.351 61.1725C124.162 60.992 124.051 60.7454 124.041 60.4845L123.169 39.0242C123.158 38.7564 123.254 38.4954 123.435 38.298C123.618 38.1006 123.871 37.9845 124.139 37.9735C124.407 37.9625 124.669 38.0582 124.867 38.2404C125.065 38.4226 125.182 38.6742 125.192 38.942L126.064 60.4023C126.07 60.5353 126.048 60.6675 126.003 60.792C125.957 60.9166 125.887 61.031 125.796 61.1284C125.706 61.2258 125.598 61.3046 125.477 61.3606C125.357 61.4165 125.226 61.4478 125.093 61.4529L125.053 61.4546V61.4538Z" fill="#FF376F"/>
<path d="M127.814 66.706H127.755C127.622 66.6984 127.492 66.6653 127.372 66.6069C127.253 66.5493 127.146 66.4688 127.057 66.3696C126.968 66.2705 126.9 66.1553 126.857 66.0299C126.813 65.9045 126.794 65.7714 126.803 65.6393L127.674 50.4286C127.69 50.1609 127.811 49.9101 128.012 49.7313C128.212 49.5525 128.476 49.461 128.744 49.4763C129.013 49.4915 129.264 49.6127 129.442 49.8126C129.621 50.0126 129.713 50.2761 129.698 50.5438L128.826 65.7553C128.811 66.0129 128.698 66.2544 128.509 66.4315C128.322 66.6086 128.073 66.7069 127.814 66.706Z" fill="#C50EE0"/>
<path d="M48.54 46.8788C48.3524 46.8788 48.1682 46.8254 48.0086 46.7263C47.849 46.6271 47.72 46.4856 47.6368 46.3179C47.5536 46.1501 47.5179 45.962 47.5357 45.7748C47.5536 45.5884 47.6223 45.4096 47.7361 45.2605L55.6619 34.826C55.7408 34.7176 55.841 34.626 55.9565 34.5574C56.0719 34.4879 56.1993 34.4422 56.3326 34.4227C56.4659 34.4032 56.6008 34.4108 56.7307 34.4439C56.8606 34.4769 56.9829 34.5362 57.0898 34.6176C57.1968 34.6989 57.2868 34.7997 57.3539 34.9158C57.4209 35.0319 57.4651 35.1598 57.482 35.2929C57.499 35.4259 57.4897 35.5606 57.454 35.6903C57.4184 35.8199 57.3573 35.9402 57.2741 36.0461L49.3482 46.4806C49.254 46.6051 49.1318 46.7051 48.9917 46.7746C48.8516 46.844 48.6971 46.8796 48.5409 46.8796L48.54 46.8788Z" fill="white"/>
<path d="M41.8505 55.8128C41.662 55.8128 41.4778 55.7602 41.3173 55.6603C41.1569 55.5603 41.0287 55.4196 40.9446 55.251C40.8606 55.0824 40.8266 54.8943 40.8445 54.7071C40.8623 54.5198 40.9319 54.3419 41.0465 54.1919L45.0935 48.8599C45.259 48.6574 45.4967 48.5269 45.7573 48.4955C46.018 48.4642 46.2794 48.5354 46.4883 48.693C46.6971 48.8505 46.8364 49.0836 46.8771 49.342C46.9179 49.6004 46.8559 49.8639 46.7056 50.0783L42.6587 55.412C42.5644 55.5366 42.4422 55.6374 42.3021 55.7069C42.162 55.7763 42.0075 55.8128 41.8513 55.8119L41.8505 55.8128Z" fill="white"/>
<path d="M71.6082 91.7221C71.4282 91.7212 71.2508 91.6729 71.0963 91.5814C70.9409 91.4908 70.8127 91.3594 70.7253 91.2027C70.6378 91.0451 70.5937 90.868 70.5979 90.6875C70.6022 90.5079 70.6548 90.3325 70.7499 90.18L73.1728 86.2824C73.3197 86.0664 73.5438 85.9147 73.7993 85.8605C74.0549 85.8054 74.3223 85.852 74.5447 85.9893C74.7663 86.1274 74.9267 86.3451 74.9913 86.5976C75.0558 86.851 75.0201 87.1187 74.8911 87.3458L72.4682 91.2417C72.3773 91.3883 72.2508 91.5094 72.1006 91.5933C71.9503 91.6772 71.7805 91.7212 71.6082 91.7221Z" fill="white"/>
<path d="M68.5312 97.0222C68.3529 97.0222 68.178 96.9739 68.0252 96.884C67.7934 96.7493 67.6253 96.5282 67.5566 96.2689C67.4886 96.0105 67.526 95.7351 67.661 95.5038L68.5711 93.9456C68.6322 93.8211 68.7188 93.7109 68.824 93.6211C68.9302 93.5313 69.0533 93.4644 69.1857 93.4245C69.3181 93.3839 69.4582 93.372 69.5957 93.3873C69.7333 93.4034 69.8666 93.4474 69.9863 93.5169C70.1068 93.5864 70.2112 93.6796 70.2936 93.7906C70.3759 93.9024 70.4345 94.0295 70.4651 94.1642C70.4965 94.299 70.4999 94.4388 70.4744 94.5752C70.4489 94.7107 70.3963 94.8404 70.3182 94.9556L69.4098 96.5121C69.3207 96.6671 69.1933 96.7959 69.0388 96.8849C68.8843 96.9747 68.7094 97.0222 68.5312 97.0222Z" fill="white"/>
<path d="M68.5315 6.02291C68.2632 6.02291 68.0051 5.91615 67.8158 5.7272C67.6256 5.53826 67.5195 5.28068 67.5195 5.01293V1.88302C67.5195 1.61528 67.6256 1.35855 67.8158 1.16875C68.0051 0.978959 68.2632 0.873047 68.5315 0.873047C68.7997 0.873047 69.057 0.979806 69.2463 1.16875C69.4365 1.3577 69.5426 1.61528 69.5426 1.88302V5.01378C69.5426 5.14681 69.5171 5.27814 69.4662 5.40015C69.4152 5.52301 69.3405 5.634 69.2463 5.72805C69.1529 5.8221 69.0409 5.89582 68.9186 5.94665C68.7955 5.99749 68.6639 6.02376 68.5315 6.02376V6.02291Z" fill="#FF376F"/>
<path d="M70.2262 4.48303H70.2042L66.8143 4.43219C66.6819 4.43049 66.5503 4.40169 66.4289 4.34915C66.3066 4.29662 66.1963 4.22036 66.1037 4.12547C65.917 3.93313 65.8142 3.67471 65.8185 3.40696C65.8227 3.13922 65.9331 2.88418 66.1258 2.69693C66.3185 2.51052 66.5774 2.408 66.8457 2.41224L70.2356 2.46307C70.5038 2.46477 70.7602 2.57322 70.9487 2.76386C71.1372 2.9545 71.2424 3.21208 71.2407 3.47983C71.2382 3.74757 71.1304 4.00346 70.9394 4.19156C70.7483 4.37966 70.4903 4.48387 70.222 4.48218H70.2271L70.2262 4.48303Z" fill="#FF376F"/>
<path d="M24.1682 52.2874C23.8999 52.2874 23.6427 52.1807 23.4525 51.9917C23.2624 51.8028 23.1562 51.5452 23.1562 51.2775V48.1467C23.1562 47.8789 23.2632 47.6222 23.4525 47.4324C23.6418 47.2426 23.8999 47.1367 24.1682 47.1367C24.4365 47.1367 24.6937 47.2435 24.8839 47.4324C25.074 47.6214 25.1802 47.8789 25.1802 48.1467V51.2775C25.1802 51.5452 25.0732 51.8019 24.8839 51.9917C24.6946 52.1815 24.4365 52.2874 24.1682 52.2874Z" fill="#C50EE0"/>
<path d="M25.8689 50.7475H25.8554L22.4655 50.6967C22.3331 50.695 22.2015 50.667 22.0792 50.6136C21.957 50.5603 21.8466 50.4848 21.7541 50.3899C21.6615 50.295 21.5885 50.1824 21.5401 50.0587C21.4918 49.9349 21.4671 49.8036 21.4688 49.6714C21.4705 49.5384 21.4985 49.4079 21.552 49.2859C21.6047 49.1639 21.6811 49.0538 21.7762 48.9614C21.8712 48.869 21.9841 48.7962 22.1081 48.747C22.2312 48.6979 22.3636 48.6742 22.4961 48.6759L25.8859 48.7267C26.1542 48.7284 26.4106 48.8369 26.599 49.0275C26.7875 49.2181 26.8919 49.4757 26.8902 49.7435C26.8885 50.0112 26.7799 50.2671 26.5889 50.4552C26.3978 50.6433 26.1398 50.7475 25.8715 50.7458H25.8698L25.8689 50.7475Z" fill="#C50EE0"/>
</g>
<defs>
<clipPath id="clip0_1348_41329">
<rect width="131" height="133" fill="white" transform="translate(0.884766 0.873047)"/>
</clipPath>
</defs>
</svg>
