<svg width="25" height="25" viewBox="0 0 25 25" fill="none" xmlns="http://www.w3.org/2000/svg">
<path d="M21.4384 13.08C21.3551 12.9096 21.3551 12.7142 21.4384 12.5439L22.2102 10.965C22.6399 10.0859 22.2994 9.03803 21.4351 8.57941L19.8826 7.75569C19.7151 7.66685 19.6003 7.50874 19.5675 7.32205L19.2639 5.59099C19.0948 4.62719 18.2033 3.97954 17.2346 4.11659L15.4945 4.36274C15.3067 4.38925 15.121 4.32887 14.9847 4.19706L13.7216 2.97515C13.0183 2.29476 11.9165 2.29472 11.2132 2.97515L9.95011 4.19719C9.81382 4.32903 9.6281 4.38929 9.44032 4.36286L7.70021 4.11671C6.7312 3.97958 5.83998 4.62731 5.67092 5.59112L5.3673 7.32209C5.33452 7.50882 5.21969 7.66689 5.05224 7.75577L3.49979 8.57949C2.63542 9.03807 2.29494 10.086 2.72466 10.9651L3.49644 12.544C3.5797 12.7143 3.5797 12.9097 3.49644 13.08L2.72462 14.6589C2.2949 15.5381 2.63538 16.5859 3.49975 17.0445L5.0522 17.8682C5.21969 17.9571 5.33452 18.1152 5.3673 18.3019L5.67092 20.0329C5.82483 20.9103 6.57716 21.5256 7.44182 21.5256C7.52698 21.5256 7.6134 21.5196 7.70025 21.5073L9.44036 21.2611C9.62802 21.2345 9.81386 21.295 9.95015 21.4268L11.2132 22.6487C11.565 22.989 12.0161 23.159 12.4674 23.159C12.9186 23.159 13.37 22.9889 13.7216 22.6487L14.9847 21.4268C15.121 21.295 15.3068 21.2348 15.4945 21.2611L17.2346 21.5073C18.2037 21.6444 19.0948 20.9967 19.2639 20.0329L19.5676 18.3019C19.6003 18.1152 19.7152 17.9571 19.8826 17.8682L21.4351 17.0445C22.2994 16.5859 22.6399 15.538 22.2102 14.6589L21.4384 13.08ZM10.0803 7.441C11.2868 7.441 12.2685 8.42263 12.2685 9.62918C12.2685 10.8357 11.2868 11.8174 10.0803 11.8174C8.87374 11.8174 7.89212 10.8357 7.89212 9.62918C7.89212 8.42263 8.87374 7.441 10.0803 7.441ZM8.95086 17.1724C8.83434 17.2889 8.6816 17.3472 8.5289 17.3472C8.3762 17.3472 8.22342 17.289 8.10694 17.1724C7.87389 16.9393 7.87389 16.5615 8.10694 16.3284L15.9839 8.45144C16.2169 8.21839 16.5948 8.21839 16.8279 8.45144C17.0609 8.68449 17.0609 9.06236 16.8279 9.29541L8.95086 17.1724ZM14.8544 18.1829C13.6479 18.1829 12.6663 17.2013 12.6663 15.9947C12.6663 14.7882 13.6479 13.8066 14.8544 13.8066C16.061 13.8066 17.0426 14.7882 17.0426 15.9947C17.0426 17.2013 16.061 18.1829 14.8544 18.1829Z" fill="#4A13E7"/>
<path d="M14.854 15C14.3056 15 13.8594 15.4462 13.8594 15.9946C13.8594 16.543 14.3055 16.9892 14.854 16.9892C15.4024 16.9892 15.8486 16.543 15.8486 15.9946C15.8486 15.4462 15.4024 15 14.854 15Z" fill="#4A13E7"/>
<path d="M10.0805 8.63477C9.53211 8.63477 9.08594 9.08094 9.08594 9.62937C9.08594 10.1778 9.53211 10.624 10.0805 10.624C10.629 10.624 11.0752 10.1778 11.0752 9.62937C11.0751 9.08098 10.629 8.63477 10.0805 8.63477Z" fill="#4A13E7"/>
</svg>
