<svg width="27" height="28" viewBox="0 0 27 28" fill="none" xmlns="http://www.w3.org/2000/svg">
<rect x="0.776855" y="1.37012" width="25.2778" height="25.1402" rx="5.5" fill="white" stroke="#C7C7C7"/>
<path d="M17.5884 11.2868C16.8521 11.2868 16.1887 10.9688 15.7283 10.463L11.5869 13.0279C11.6975 13.311 11.7588 13.6184 11.7588 13.94C11.7588 14.2617 11.6975 14.5692 11.5869 14.8521L15.7283 17.4171C16.1887 16.9113 16.8521 16.5932 17.5884 16.5932C18.9755 16.5932 20.1039 17.7216 20.1039 19.1087C20.1039 20.4957 18.9755 21.624 17.5884 21.624C16.2014 21.624 15.073 20.4956 15.073 19.1086C15.073 18.7869 15.1344 18.4795 15.2449 18.1965L11.1036 15.6315C10.6432 16.1374 9.97981 16.4555 9.24349 16.4555C7.85643 16.4555 6.72803 15.3269 6.72803 13.94C6.72803 12.5529 7.85643 11.4245 9.24349 11.4245C9.97981 11.4245 10.6432 11.7425 11.1036 12.2484L15.2449 9.6835C15.1344 9.40047 15.073 9.09304 15.073 8.77131C15.073 7.38437 16.2014 6.25596 17.5884 6.25596C18.9755 6.25596 20.1039 7.38437 20.1039 8.77131C20.1039 10.1584 18.9755 11.2868 17.5884 11.2868ZM15.9902 19.1086C15.9902 19.9898 16.7072 20.7068 17.5884 20.7068C18.4697 20.7068 19.1867 19.9898 19.1867 19.1086C19.1867 18.2273 18.4697 17.5103 17.5884 17.5103C16.7072 17.5103 15.9902 18.2273 15.9902 19.1086ZM9.24349 12.3418C8.36213 12.3418 7.64515 13.0588 7.64515 13.94C7.64515 14.8212 8.36213 15.5382 9.24349 15.5382C10.1247 15.5382 10.8416 14.8212 10.8416 13.94C10.8416 13.0588 10.1247 12.3418 9.24349 12.3418ZM15.9902 8.77142C15.9902 9.65267 16.7072 10.3696 17.5884 10.3696C18.4697 10.3696 19.1867 9.65267 19.1867 8.77142C19.1867 7.89018 18.4697 7.1732 17.5884 7.1732C16.7072 7.1732 15.9902 7.89018 15.9902 8.77142Z" fill="#4A13E7"/>
</svg>
