<svg width="15" height="11" viewBox="0 0 15 11" fill="none" xmlns="http://www.w3.org/2000/svg">
<path d="M7.69216 7.18917C8.45521 7.18917 9.07378 6.51023 9.07378 5.67271C9.07378 4.83519 8.45521 4.15625 7.69216 4.15625C6.92912 4.15625 6.31055 4.83519 6.31055 5.67271C6.31055 6.51023 6.92912 7.18917 7.69216 7.18917Z" fill="#BFBFBF"/>
<path d="M0.876135 6.15321C1.7857 7.40429 4.49137 10.7405 7.69211 10.7405C10.8929 10.7405 13.5985 7.40441 14.5081 6.15321C14.7037 5.87519 14.7037 5.48344 14.5081 5.21818C13.5985 3.96711 10.8929 0.630895 7.69211 0.630895C4.49137 0.618258 1.7857 3.95447 0.876135 5.20555C0.668892 5.48356 0.668892 5.87519 0.876135 6.15321ZM7.69211 2.6402C9.2234 2.6402 10.4553 3.99238 10.4553 5.67312C10.4553 7.35386 9.2234 8.70604 7.69211 8.70604C6.16082 8.70604 4.92888 7.35386 4.92888 5.67312C4.92888 3.99238 6.16082 2.6402 7.69211 2.6402Z" fill="#BFBFBF"/>
</svg>
