<svg width="28" height="28" viewBox="0 0 28 28" fill="none" xmlns="http://www.w3.org/2000/svg">
<circle opacity="0.85" cx="14.0648" cy="14.0121" r="13.5172" transform="rotate(-180 14.0648 14.0121)" fill="#393939"/>
<path d="M10.6306 20.6807C10.4602 20.4978 10.375 20.2811 10.375 20.0308C10.375 19.7806 10.4602 19.5642 10.6306 19.3817L15.6236 14.0209L10.6136 8.64183C10.4545 8.47107 10.375 8.25761 10.375 8.00146C10.375 7.74532 10.4602 7.52576 10.6306 7.3428C10.801 7.15984 11.0028 7.06836 11.2359 7.06836C11.469 7.06836 11.6706 7.15984 11.8405 7.3428L17.5662 13.5086C17.6344 13.5818 17.6828 13.6611 17.7114 13.7465C17.74 13.8319 17.7541 13.9233 17.7537 14.0209C17.7537 14.1185 17.7394 14.21 17.7107 14.2954C17.6821 14.3807 17.6339 14.46 17.5662 14.5332L11.8235 20.699C11.6644 20.8698 11.4683 20.9552 11.2352 20.9552C11.0021 20.9552 10.8006 20.8637 10.6306 20.6807Z" fill="white"/>
</svg>
