<svg width="28" height="28" viewBox="0 0 28 28" fill="none" xmlns="http://www.w3.org/2000/svg">
<circle opacity="0.85" cx="13.5368" cy="14.0114" r="13.5172" fill="#393939"/>
<path d="M16.971 7.34272C17.1414 7.52568 17.2266 7.7423 17.2266 7.9926C17.2266 8.24289 17.1414 8.45927 16.971 8.64174L11.978 14.0025L16.988 19.3816C17.147 19.5524 17.2266 19.7658 17.2266 20.022C17.2266 20.2781 17.1414 20.4977 16.971 20.6806C16.8005 20.8636 16.5988 20.9551 16.3657 20.9551C16.1325 20.9551 15.931 20.8636 15.7611 20.6806L10.0353 14.5148C9.96717 14.4416 9.91877 14.3624 9.89014 14.277C9.86151 14.1916 9.84743 14.1001 9.84788 14.0025C9.84788 13.9049 9.8622 13.8135 9.89082 13.7281C9.91945 13.6427 9.96762 13.5634 10.0353 13.4902L15.7781 7.32442C15.9371 7.15365 16.1332 7.06827 16.3663 7.06827C16.5995 7.06827 16.801 7.15975 16.971 7.34272Z" fill="white"/>
</svg>
