<svg width="21" height="22" viewBox="0 0 21 22" fill="none" xmlns="http://www.w3.org/2000/svg">
<path fill-rule="evenodd" clip-rule="evenodd" d="M9.74429 0.0769231C9.99045 -0.025641 10.2674 -0.025641 10.5135 0.0769231L19.5135 3.82692C19.8862 3.98219 20.1289 4.3463 20.1289 4.75V12.25C20.1289 14.2736 19.2209 16.0939 17.576 17.6931C15.9476 19.2763 13.5673 20.6769 10.5067 21.9259C10.2641 22.0249 9.99226 22.0247 9.74975 21.9253C6.68948 20.6714 4.30974 19.2683 2.68183 17.6856C1.03757 16.087 0.128906 14.2694 0.128906 12.25V4.75C0.128906 4.3463 0.371644 3.98219 0.744291 3.82692L9.74429 0.0769231ZM2.12891 5.41667V12.25C2.12891 13.6054 2.72024 14.9335 4.07598 16.2516C5.38849 17.5276 7.38558 18.7584 10.1297 19.9173C12.8733 18.7631 14.8698 17.5347 16.1818 16.2592C17.5369 14.9418 18.1289 13.6112 18.1289 12.25V5.41667L10.1289 2.08333L2.12891 5.41667Z" fill="url(#paint0_linear_2358_83665)"/>
<path fill-rule="evenodd" clip-rule="evenodd" d="M10.1289 9C9.02434 9 8.12891 9.89543 8.12891 11C8.12891 12.1046 9.02434 13 10.1289 13C11.2335 13 12.1289 12.1046 12.1289 11C12.1289 9.89543 11.2335 9 10.1289 9ZM6.12891 11C6.12891 8.79086 7.91977 7 10.1289 7C12.338 7 14.1289 8.79086 14.1289 11C14.1289 13.2091 12.338 15 10.1289 15C7.91977 15 6.12891 13.2091 6.12891 11Z" fill="url(#paint1_linear_2358_83665)"/>
<defs>
<linearGradient id="paint0_linear_2358_83665" x1="-3.6172" y1="11.0028" x2="18.5172" y2="11.0028" gradientUnits="userSpaceOnUse">
<stop stop-color="#B503FE"/>
<stop offset="1" stop-color="#FF376F"/>
</linearGradient>
<linearGradient id="paint1_linear_2358_83665" x1="4.63046" y1="11.001" x2="13.4842" y2="11.001" gradientUnits="userSpaceOnUse">
<stop stop-color="#B503FE"/>
<stop offset="1" stop-color="#FF376F"/>
</linearGradient>
</defs>
</svg>
