<svg width="75" height="74" viewBox="0 0 75 74" fill="none" xmlns="http://www.w3.org/2000/svg">
<circle cx="37.5024" cy="36.7905" r="36.6899" fill="#27A6E6" fill-opacity="0.2"/>
<path fill-rule="evenodd" clip-rule="evenodd" d="M19.0731 34.9582C27.3814 31.3383 32.9216 28.9519 35.6936 27.799C43.6083 24.507 45.253 23.9351 46.3249 23.9162C46.5606 23.9121 47.0878 23.9705 47.4292 24.2476C47.9358 24.6587 47.9387 25.5508 47.8824 26.1413C47.4535 30.6479 45.5977 41.584 44.6535 46.6314C44.2539 48.7671 43.4673 49.4833 42.7058 49.5533C41.0508 49.7056 39.794 48.4595 38.191 47.4088C35.6827 45.7645 34.2656 44.7409 31.8307 43.1365C29.0169 41.2822 30.841 40.2631 32.4446 38.5975C32.8643 38.1617 40.1564 31.5288 40.2975 30.9271C40.3152 30.8518 40.3316 30.5713 40.165 30.4232C39.9983 30.2752 39.7524 30.3257 39.5749 30.366C39.3233 30.4231 35.3162 33.0717 27.5535 38.3117C26.416 39.0928 25.3858 39.4733 24.4628 39.4534C23.4451 39.4315 21.4878 38.878 20.0326 38.405C18.2478 37.8249 16.8292 37.5181 16.9528 36.5328C17.0172 36.0195 17.7239 35.4947 19.0731 34.9582Z" fill="#27A6E6"/>
</svg>
