<svg width="16" height="16" viewBox="0 0 16 16" fill="none" xmlns="http://www.w3.org/2000/svg">
<path d="M8.40723 0.701172C4.27166 0.701172 0.907227 4.0656 0.907227 8.20117C0.907227 12.3368 4.27166 15.7012 8.40723 15.7012C12.5428 15.7012 15.9072 12.3367 15.9072 8.20117C15.9072 4.0656 12.5428 0.701172 8.40723 0.701172ZM8.40723 14.0618C5.17558 14.0618 2.54657 11.4328 2.54657 8.20117C2.54657 4.96968 5.17558 2.34052 8.40723 2.34052C11.6389 2.34052 14.2679 4.96968 14.2679 8.20117C14.2679 11.4328 11.6389 14.0618 8.40723 14.0618Z" fill="#4B4B4B"/>
<path d="M9.05632 8.20997V5.06656C9.05632 4.71557 8.7719 4.43115 8.42105 4.43115C8.07009 4.43115 7.78564 4.71557 7.78564 5.06656V8.41296C7.78564 8.42296 7.78811 8.43233 7.78859 8.44232C7.78023 8.6151 7.83975 8.79052 7.9717 8.9225L10.3381 11.2887C10.5863 11.5369 10.9886 11.5369 11.2366 11.2887C11.4847 11.0405 11.4848 10.6382 11.2366 10.3902L9.05632 8.20997Z" fill="#4B4B4B"/>
</svg>
