<svg width="11" height="6" viewBox="0 0 11 6" fill="none" xmlns="http://www.w3.org/2000/svg">
<path d="M1.08163 0.672254C1.20772 0.554814 1.35702 0.496093 1.52951 0.496093C1.702 0.496093 1.85113 0.554814 1.97688 0.672254L5.67139 4.11327L9.3785 0.660511C9.49618 0.550899 9.64329 0.496094 9.81982 0.496094C9.99635 0.496094 10.1477 0.554814 10.2738 0.672255C10.3998 0.789695 10.4629 0.928745 10.4629 1.0894C10.4629 1.25006 10.3998 1.38896 10.2738 1.50608L6.02444 5.45209C5.97401 5.49907 5.91937 5.53242 5.86052 5.55215C5.80168 5.57188 5.73864 5.58159 5.67139 5.58128C5.60414 5.58128 5.54109 5.57141 5.48225 5.55168C5.4234 5.53195 5.36877 5.49875 5.31833 5.45209L1.06902 1.49434C0.951335 1.38473 0.892491 1.24959 0.892491 1.08893C0.892491 0.928275 0.955538 0.789382 1.08163 0.672254Z" fill="white"/>
</svg>
