<svg width="74" height="75" viewBox="0 0 74 75" fill="none" xmlns="http://www.w3.org/2000/svg">
<circle cx="37.2769" cy="37.3579" r="36.6899" fill="#03A9F4" fill-opacity="0.2"/>
<path d="M49.998 29.4688C49.0519 29.8839 48.0437 30.159 46.9925 30.2925C48.0739 29.6469 48.8992 28.6324 49.2872 27.4095C48.279 28.0106 47.1659 28.4352 45.9796 28.6721C45.0223 27.6528 43.6579 27.0215 42.1694 27.0215C39.2816 27.0215 36.9567 29.3655 36.9567 32.239C36.9567 32.6524 36.9917 33.05 37.0776 33.4284C32.7411 33.2169 28.9039 31.1385 26.3262 27.9724C25.8762 28.7532 25.6122 29.6469 25.6122 30.609C25.6122 32.4155 26.5424 34.0168 27.9291 34.9439C27.0911 34.928 26.2689 34.6847 25.5724 34.3015C25.5724 34.3174 25.5724 34.338 25.5724 34.3587C25.5724 36.8935 27.3805 38.9989 29.7515 39.484C29.3269 39.6 28.8642 39.6557 28.3839 39.6557C28.05 39.6557 27.7128 39.6366 27.3964 39.5667C28.0722 41.6323 29.99 43.151 32.2704 43.2003C30.4957 44.5885 28.2424 45.425 25.803 45.425C25.3752 45.425 24.965 45.4059 24.5547 45.3534C26.8653 46.8435 29.6036 47.6942 32.5566 47.6942C42.1551 47.6942 47.4028 39.7432 47.4028 32.8512C47.4028 32.6206 47.3949 32.398 47.3837 32.1769C48.419 31.4423 49.2888 30.5247 49.998 29.4688Z" fill="#03A9F4"/>
</svg>
