<svg width="20" height="20" viewBox="0 0 20 20" fill="none" xmlns="http://www.w3.org/2000/svg">
<path d="M16.6463 0.0664062H3.65054C1.99512 0.0664062 0.648438 1.41308 0.648438 3.06851V16.0643C0.648438 17.7197 1.99512 19.0664 3.65054 19.0664H16.6463C18.3018 19.0664 19.6484 17.7197 19.6484 16.0643V3.06851C19.6484 1.41308 18.3018 0.0664062 16.6463 0.0664062ZM17.647 16.0643C17.647 16.616 17.1981 17.065 16.6464 17.065H3.65054C3.0988 17.065 2.64993 16.616 2.64993 16.0643V3.06851C2.64993 2.51677 3.09886 2.0679 3.65054 2.0679H16.6463C17.1981 2.0679 17.6469 2.51683 17.6469 3.06851V16.0643H17.647Z" fill="#4A13E7"/>
</svg>
