<svg width="13" height="12" viewBox="0 0 13 12" fill="none" xmlns="http://www.w3.org/2000/svg">
<path d="M10.5071 1.60352H9.30908V1.05933C9.30908 0.914999 9.24596 0.776582 9.13363 0.674526C9.02129 0.572471 8.86892 0.515137 8.71005 0.515137C8.55118 0.515137 8.39882 0.572471 8.28648 0.674526C8.17414 0.776582 8.11103 0.914999 8.11103 1.05933V1.60352H4.51689V1.05933C4.51689 0.914999 4.45378 0.776582 4.34144 0.674526C4.2291 0.572471 4.07674 0.515137 3.91787 0.515137C3.759 0.515137 3.60663 0.572471 3.4943 0.674526C3.38196 0.776582 3.31885 0.914999 3.31885 1.05933V1.60352H2.1208C1.64419 1.60352 1.1871 1.77552 0.85008 2.08169C0.513064 2.38785 0.32373 2.8031 0.32373 3.23609V9.76638C0.32373 10.1994 0.513064 10.6146 0.85008 10.9208C1.1871 11.2269 1.64419 11.3989 2.1208 11.3989H10.5071C10.9837 11.3989 11.4408 11.2269 11.7778 10.9208C12.1149 10.6146 12.3042 10.1994 12.3042 9.76638V3.23609C12.3042 2.8031 12.1149 2.38785 11.7778 2.08169C11.4408 1.77552 10.9837 1.60352 10.5071 1.60352ZM11.1061 9.76638C11.1061 9.9107 11.043 10.0491 10.9307 10.1512C10.8184 10.2532 10.666 10.3106 10.5071 10.3106H2.1208C1.96193 10.3106 1.80956 10.2532 1.69723 10.1512C1.58489 10.0491 1.52178 9.9107 1.52178 9.76638V5.95704H11.1061V9.76638ZM11.1061 4.86866H1.52178V3.23609C1.52178 3.09176 1.58489 2.95334 1.69723 2.85129C1.80956 2.74923 1.96193 2.6919 2.1208 2.6919H3.31885V3.23609C3.31885 3.38042 3.38196 3.51883 3.4943 3.62089C3.60663 3.72295 3.759 3.78028 3.91787 3.78028C4.07674 3.78028 4.2291 3.72295 4.34144 3.62089C4.45378 3.51883 4.51689 3.38042 4.51689 3.23609V2.6919H8.11103V3.23609C8.11103 3.38042 8.17414 3.51883 8.28648 3.62089C8.39882 3.72295 8.55118 3.78028 8.71005 3.78028C8.86892 3.78028 9.02129 3.72295 9.13363 3.62089C9.24596 3.51883 9.30908 3.38042 9.30908 3.23609V2.6919H10.5071C10.666 2.6919 10.8184 2.74923 10.9307 2.85129C11.043 2.95334 11.1061 3.09176 11.1061 3.23609V4.86866Z" fill="#4B4B4B"/>
</svg>
