<svg width="12" height="14" viewBox="0 0 12 14" fill="none" xmlns="http://www.w3.org/2000/svg">
<path d="M8.85506 1.91857H10.2883H10.2883C10.9143 1.9187 11.4411 2.3894 11.5218 3.01605L11.5218 3.01607C11.599 3.61669 11.2438 4.18518 10.6818 4.37462V11.7845C10.6818 12.2505 10.5134 12.6908 10.2156 13.0086C9.91896 13.3276 9.50568 13.5089 9.07271 13.5097L9.07253 13.5097H3.40663H3.40646C2.97359 13.5089 2.56032 13.3276 2.26357 13.0086C1.96575 12.6908 1.79739 12.2505 1.79739 11.7845V4.37462C1.23533 4.18518 0.880188 3.61669 0.957378 3.01607L0.957381 3.01605C1.03806 2.3894 1.56491 1.9187 2.19087 1.91857H2.19089H3.62411V1.63915V1.63887L8.85506 1.91857ZM8.85506 1.91857V1.63915V1.63887V1.91857ZM4.91043 0.339005H4.91002V0.439005L4.91043 0.339005ZM4.91043 0.339005H7.56874H4.91043ZM4.42303 1.63887H4.42304L4.42302 1.63761C4.42137 1.50604 4.47237 1.37968 4.56403 1.2872L4.56406 1.28716C4.65551 1.19479 4.77968 1.14427 4.90827 1.14651L4.90827 1.14653H4.91002H7.56915V1.14655L7.57089 1.14651C7.69949 1.14427 7.82366 1.19479 7.9151 1.28716L7.91518 1.28723C8.00678 1.37956 8.0578 1.50601 8.05614 1.63761L8.05614 1.63761V1.63887V1.91857H4.42303V1.63887ZM8.00625 5.03831C7.78428 5.03831 7.60679 5.22041 7.60679 5.44207V11.1832C7.60679 11.4047 7.78425 11.587 8.00625 11.587C8.22825 11.587 8.40571 11.4047 8.40571 11.1832V5.44207C8.40571 5.22041 8.22823 5.03831 8.00625 5.03831ZM4.47275 5.03831C4.25078 5.03831 4.07329 5.22041 4.07329 5.44207V11.1832C4.07329 11.4047 4.25075 11.587 4.47275 11.587C4.69475 11.587 4.87221 11.4047 4.87221 11.1832V5.44207C4.87221 5.22041 4.69472 5.03831 4.47275 5.03831ZM9.07253 12.7021H3.40663C2.96009 12.7021 2.59632 12.3116 2.59632 11.7845V4.42717H9.88285V11.7845C9.88285 12.3116 9.51907 12.7021 9.07253 12.7021ZM2.19089 2.7261H10.2883C10.5294 2.7261 10.7273 2.92476 10.7273 3.17287C10.7273 3.42097 10.5294 3.61964 10.2883 3.61964H2.19089C1.94975 3.61964 1.75186 3.42097 1.75186 3.17287C1.75186 2.92476 1.94975 2.7261 2.19089 2.7261ZM6.23929 5.03831C6.01732 5.03831 5.83983 5.22041 5.83983 5.44207V11.1832C5.83983 11.4047 6.01729 11.587 6.23929 11.587C6.46129 11.587 6.63875 11.4047 6.63875 11.1832V5.44207C6.63875 5.22041 6.46127 5.03831 6.23929 5.03831Z" fill="#ED2F2F" stroke="#ED2F2F" stroke-width="0.2"/>
</svg>
