<svg width="19" height="18" viewBox="0 0 19 18" fill="none" xmlns="http://www.w3.org/2000/svg">
<path d="M17.3723 8.19773H10.0498V0.875271C10.0498 0.500809 9.74629 0.197266 9.37183 0.197266C8.99736 0.197266 8.69382 0.500809 8.69382 0.875271V8.19773H1.37136C0.996902 8.19773 0.693359 8.50127 0.693359 8.87573C0.693359 9.25019 0.996902 9.55374 1.37136 9.55374H8.69382V16.8762C8.69382 17.2507 8.99736 17.5542 9.37183 17.5542C9.74629 17.5542 10.0498 17.2507 10.0498 16.8762V9.55374H17.3723C17.7467 9.55374 18.0503 9.25019 18.0503 8.87573C18.0503 8.50127 17.7467 8.19773 17.3723 8.19773Z" fill="#4B4B4B"/>
</svg>
