<svg width="29" height="33" viewBox="0 0 29 33" fill="none" xmlns="http://www.w3.org/2000/svg">
<path d="M24.0437 32.9963C26.1608 31.5139 26.7187 28.5664 25.2363 26.4489L17.6127 15.5612L20.3852 11.6021C22.9303 13.0762 26.2238 12.3828 27.9422 9.92842C29.7565 7.33653 29.1269 3.76544 26.5355 1.95042C23.944 0.136205 20.3722 0.765317 18.5571 3.35727C17.3118 5.13583 17.2185 7.37613 18.1196 9.19279L14.7244 14.042L11.3295 9.19322C12.2302 7.37657 12.1369 5.13639 10.892 3.35771C9.07697 0.765881 5.50551 0.136706 2.91406 1.95085C0.322227 3.76588 -0.307385 7.33734 1.50689 9.9288C3.22529 12.3829 6.51879 13.0762 9.06394 11.6025L11.8364 15.5615L4.21326 26.4489C2.7304 28.5664 3.2887 31.5138 5.40588 32.9962L14.7244 19.6865L24.0437 32.9963ZM20.2675 6.65547C20.2675 5.01546 21.5971 3.68586 23.2371 3.68586C24.8771 3.68586 26.2067 5.01552 26.2067 6.65547C26.2067 8.29586 24.8771 9.62508 23.2371 9.62508C21.5971 9.62508 20.2675 8.29586 20.2675 6.65547ZM3.24177 6.65547C3.24177 5.01546 4.57137 3.68586 6.21138 3.68586C7.8514 3.68586 9.18099 5.01546 9.18099 6.65547C9.18099 8.29586 7.8514 9.62508 6.21138 9.62508C4.57143 9.62508 3.24177 8.29586 3.24177 6.65547Z" fill="#8F8F8F"/>
</svg>
