<svg width="105" height="94" viewBox="0 0 105 94" fill="none" xmlns="http://www.w3.org/2000/svg">
<path d="M44.6298 4.77766L1.34794 79.7386C0.56612 81.0923 0.154442 82.6279 0.154297 84.1911C0.154152 85.7544 0.565546 87.2901 1.34712 88.6439C2.12869 89.9978 3.2529 91.122 4.60672 91.9036C5.96054 92.6852 7.49626 93.0966 9.0595 93.0964H95.6162C97.1795 93.0966 98.7152 92.6852 100.069 91.9036C101.423 91.122 102.547 89.9978 103.329 88.6439C104.11 87.2901 104.522 85.7544 104.521 84.1911C104.521 82.6279 104.11 81.0923 103.328 79.7386L60.0506 4.77766C59.2691 3.42423 58.1452 2.30034 56.7918 1.51894C55.4383 0.737543 53.903 0.326172 52.3402 0.326172C50.7774 0.326172 49.2421 0.737543 47.8886 1.51894C46.5352 2.30034 45.4112 3.42423 44.6298 4.77766Z" fill="#FF0000"/>
<path d="M52.9057 27.8965H51.7767C48.997 27.8965 46.7437 30.1498 46.7437 32.9295V56.9865C46.7437 59.7661 48.997 62.0195 51.7767 62.0195H52.9057C55.6854 62.0195 57.9387 59.7661 57.9387 56.9865V32.9295C57.9387 30.1498 55.6854 27.8965 52.9057 27.8965Z" fill="#FFF7ED"/>
<path d="M52.3412 81.0994C55.4326 81.0994 57.9387 78.5933 57.9387 75.5018C57.9387 72.4104 55.4326 69.9043 52.3412 69.9043C49.2498 69.9043 46.7437 72.4104 46.7437 75.5018C46.7437 78.5933 49.2498 81.0994 52.3412 81.0994Z" fill="#FFF7ED"/>
</svg>
