<svg width="18" height="18" viewBox="0 0 18 18" fill="none" xmlns="http://www.w3.org/2000/svg">
<path d="M8.88281 0.222656C4.07306 0.222656 0.160156 4.13556 0.160156 8.94531C0.160156 13.7551 4.07306 17.668 8.88281 17.668C13.6926 17.668 17.6055 13.7551 17.6055 8.94531C17.6055 4.13556 13.6926 0.222656 8.88281 0.222656ZM8.88281 15.7614C5.12433 15.7614 2.06675 12.7038 2.06675 8.94531C2.06675 5.18702 5.12433 2.12925 8.88281 2.12925C12.6413 2.12925 15.6989 5.18702 15.6989 8.94531C15.6989 12.7038 12.6413 15.7614 8.88281 15.7614Z" fill="#4B4B4B"/>
<path d="M9.63798 8.95735V5.30149C9.63798 4.89329 9.3072 4.5625 8.89915 4.5625C8.49098 4.5625 8.16016 4.89329 8.16016 5.30149V9.19343C8.16016 9.20505 8.16302 9.21595 8.16358 9.22757C8.15386 9.42851 8.22309 9.63254 8.37655 9.78603L11.1287 12.538C11.4174 12.8267 11.8853 12.8267 12.1737 12.538C12.4622 12.2493 12.4624 11.7815 12.1737 11.493L9.63798 8.95735Z" fill="#4B4B4B"/>
</svg>
