<svg width="15" height="15" viewBox="0 0 15 15" fill="none" xmlns="http://www.w3.org/2000/svg">
<g id="XMLID_235_">
<g id="XMLID_164_">
<path id="XMLID_196_" d="M13.2571 3.17447C13.3946 2.98583 13.476 2.7538 13.476 2.503C13.476 1.87303 12.9635 1.36053 12.3336 1.36053C12.0828 1.36053 11.8507 1.44197 11.6621 1.5795C10.4742 0.723845 9.07478 0.272461 7.60034 0.272461C6.15395 0.272461 4.76696 0.711822 3.58927 1.54302C3.46653 1.62966 3.43726 1.79937 3.5239 1.92213C3.61054 2.04487 3.78028 2.07414 3.90301 1.9875C4.68968 1.43226 5.5779 1.06691 6.51486 0.907755C6.40581 1.04632 6.29624 1.21309 6.18811 1.41395C5.8581 2.02705 5.58576 2.87136 5.39592 3.8664C4.8965 3.9023 4.48507 4.26039 4.36903 4.73353H1.68689C1.84499 4.36035 2.03899 4.0011 2.26797 3.66035C2.35176 3.53565 2.31857 3.36665 2.19388 3.28287C2.06918 3.19906 1.90018 3.23225 1.8164 3.35694C1.04463 4.5055 0.636719 5.8469 0.636719 7.23608C0.636719 8.71001 1.08813 10.1098 1.94368 11.2978C1.8062 11.4864 1.72478 11.7184 1.72478 11.9692C1.72478 12.5991 2.23729 13.1116 2.86725 13.1116C3.11803 13.1116 3.35003 13.0302 3.53865 12.8927C4.7266 13.7483 6.12628 14.1997 7.60034 14.1997C9.46039 14.1997 11.2091 13.4754 12.5244 12.1601C13.8396 10.8449 14.564 9.09613 14.564 7.23608C14.564 5.76181 14.1126 4.36237 13.2571 3.17447ZM13.714 9.1946H10.8133C10.7202 8.81473 10.4366 8.50909 10.07 8.38467C10.0914 8.00679 10.1029 7.62175 10.1029 7.23608C10.1029 6.5635 10.0703 5.90538 10.0075 5.27759H13.7174C13.9172 5.90309 14.0199 6.56107 14.0199 7.23608C14.0199 7.91885 13.9124 8.57688 13.714 9.1946ZM7.60034 13.6557C7.14458 13.6557 6.65144 12.9925 6.28117 11.8817C6.07365 11.2591 5.91311 10.5318 5.80476 9.73866H8.59432C8.68142 10.0938 8.93477 10.3842 9.26699 10.5222C8.85317 12.6843 8.13961 13.6557 7.60034 13.6557ZM2.86725 10.8267C2.68536 10.8267 2.51336 10.8697 2.36057 10.9456C2.09008 10.5648 1.86444 10.1608 1.68534 9.73864H5.25627C5.36932 10.5946 5.54088 11.3813 5.76505 12.0538C5.98059 12.7005 6.23161 13.2063 6.51121 13.5643C5.56898 13.4045 4.67989 13.0364 3.89083 12.4759C3.96677 12.3231 4.00972 12.1511 4.00972 11.9692C4.00972 11.3392 3.49722 10.8267 2.86725 10.8267ZM5.64182 7.23608C5.64182 6.86492 5.6527 6.49457 5.6731 6.1311C6.12125 6.05382 6.48075 5.71483 6.58798 5.27757H9.46085C9.52535 5.90299 9.55886 6.56146 9.55886 7.23608C9.55886 7.60603 9.54803 7.97526 9.52774 8.33775C9.07097 8.40872 8.70304 8.7513 8.59432 9.1946H5.7398C5.67536 8.56921 5.64182 7.91074 5.64182 7.23608ZM9.70382 10.0651C9.37384 10.0651 9.10538 9.7966 9.10538 9.46662C9.10538 9.13664 9.37384 8.86818 9.70382 8.86818C10.0338 8.86818 10.3023 9.13664 10.3023 9.46662C10.3023 9.7966 10.0338 10.0651 9.70382 10.0651ZM9.43564 2.4184C9.22006 1.77168 8.96905 1.26578 8.68941 0.90781C9.63181 1.06762 10.5209 1.43566 11.31 1.99628C11.234 2.1491 11.1911 2.3211 11.1911 2.503C11.1911 3.13296 11.7036 3.64547 12.3336 3.64547C12.5155 3.64547 12.6874 3.60251 12.8403 3.52659C13.1108 3.90736 13.3363 4.31147 13.5154 4.73356H9.94442C9.83137 3.87758 9.65978 3.09091 9.43564 2.4184ZM12.932 2.503C12.932 2.83298 12.6635 3.10143 12.3336 3.10143C12.0036 3.10143 11.7351 2.83298 11.7351 2.503C11.7351 2.17301 12.0036 1.90456 12.3336 1.90456C12.6635 1.90456 12.932 2.17301 12.932 2.503ZM7.60034 0.816494C8.05611 0.816494 8.54924 1.47964 8.91951 2.59042C9.12703 3.21304 9.28758 3.94039 9.39592 4.73353H6.58801C6.5024 4.38451 6.25615 4.09805 5.93231 3.95731C6.34577 1.7902 7.06001 0.816494 7.60034 0.816494ZM5.4785 4.40714C5.80849 4.40714 6.07694 4.67559 6.07694 5.00558C6.07694 5.33556 5.80849 5.60401 5.4785 5.60401C5.14852 5.60401 4.88007 5.33556 4.88007 5.00558C4.88007 4.67559 5.14852 4.40714 5.4785 4.40714ZM4.36903 5.27759C4.46372 5.66367 4.75499 5.97322 5.13038 6.09361C5.10916 6.46949 5.09779 6.85243 5.09779 7.23608C5.09779 7.9087 5.13038 8.56682 5.19319 9.1946H1.48342C1.28352 8.56899 1.18075 7.91098 1.18075 7.23608C1.18075 6.56464 1.28425 5.90543 1.48506 5.27759H4.36903ZM2.26882 11.9692C2.26882 11.6392 2.53727 11.3707 2.86725 11.3707C3.19724 11.3707 3.46569 11.6392 3.46569 11.9692C3.46569 12.2992 3.19724 12.5676 2.86725 12.5676C2.53727 12.5676 2.26882 12.2992 2.26882 11.9692ZM8.68669 13.5633C8.79479 13.4258 8.90341 13.2606 9.01061 13.0619C9.34163 12.4483 9.61484 11.6021 9.80509 10.6044C10.2961 10.561 10.6987 10.2059 10.8133 9.73864H13.512C12.671 11.7176 10.8642 13.1906 8.68669 13.5633Z" fill="#8F8F8F" stroke="#8F8F8F" strokeWidth="0.3"/>
<path id="XMLID_1702_" d="M2.81303 2.83114C2.88487 2.83114 2.95475 2.80231 3.00562 2.75144C3.05621 2.70085 3.08505 2.63067 3.08505 2.55913C3.08505 2.48759 3.05621 2.41768 3.00562 2.36681C2.95475 2.31622 2.88487 2.28711 2.81303 2.28711C2.74149 2.28711 2.67131 2.31622 2.62074 2.36681C2.57015 2.41768 2.54102 2.48759 2.54102 2.55913C2.54102 2.63067 2.57012 2.70085 2.62074 2.75144C2.67131 2.80231 2.74149 2.83114 2.81303 2.83114Z" fill="#8F8F8F" stroke="#8F8F8F" strokeWidth="0.3"/>
</g>
</g>
</svg>
