<svg width="75" height="75" viewBox="0 0 75 75" fill="none" xmlns="http://www.w3.org/2000/svg">
<circle cx="37.5024" cy="37.3579" r="36.6899" fill="#2AA81A" fill-opacity="0.2"/>
<path fillRule="evenodd" clipRule="evenodd" d="M41.9026 39.5128C41.2051 39.7978 40.7595 40.8898 40.3075 41.4476C40.0757 41.7334 39.7993 41.778 39.443 41.6348C36.8251 40.5918 34.8183 38.8448 33.3737 36.4357C33.129 36.0621 33.1729 35.767 33.468 35.42C33.9042 34.9061 34.4527 34.3223 34.5707 33.6299C34.8327 32.0982 32.8303 27.3468 30.1857 29.4997C22.576 35.7008 42.8801 52.1474 46.5445 43.2522C47.5811 40.7307 43.0586 39.0392 41.9026 39.5128ZM37.5032 52.5663C34.8119 52.5663 32.1637 51.8508 29.8453 50.4962C29.4731 50.2781 29.0232 50.2205 28.6072 50.3335L23.5693 51.7163L25.3242 47.8502C25.5632 47.324 25.502 46.7115 25.1644 46.2436C23.2872 43.6416 22.2946 40.5695 22.2946 37.3585C22.2946 28.9721 29.1168 22.1499 37.5032 22.1499C45.8895 22.1499 52.7111 28.9721 52.7111 37.3585C52.7111 45.7441 45.8888 52.5663 37.5032 52.5663ZM37.5032 18.9316C27.3425 18.9316 19.0764 27.1978 19.0764 37.3585C19.0764 40.933 20.0913 44.3657 22.0196 47.3449L19.2203 53.51C18.9619 54.0793 19.0562 54.7459 19.4607 55.2202C19.7717 55.5837 20.2216 55.7853 20.6858 55.7853C21.7238 55.7853 27.3835 54.0066 28.8239 53.6115C31.4864 55.036 34.4728 55.7853 37.5032 55.7853C47.6631 55.7853 55.93 47.5184 55.93 37.3585C55.93 27.1978 47.6631 18.9316 37.5032 18.9316Z" fill="#39AE41"/>
</svg>
