<svg width="35" height="35" viewBox="0 0 35 35" fill="none" xmlns="http://www.w3.org/2000/svg">
<path fill-rule="evenodd" clip-rule="evenodd" d="M13.6478 8.42346H19.472L24.4007 13.5681V23.5588C24.4007 24.8101 23.3909 25.8263 22.1396 25.8263H13.6478C12.4029 25.8263 11.3867 24.8101 11.3867 23.5588V10.6846C11.3867 9.43968 12.4029 8.42346 13.6478 8.42346Z" fill="#00733B"/>
<path opacity="0.302" fill-rule="evenodd" clip-rule="evenodd" d="M19.4648 8.42249V13.5227H24.3999L19.4648 8.42249Z" fill="white"/>
<path d="M16.7971 21.0929H15.9524L15.3744 20.1212L14.7964 21.0929H13.9453L14.9488 19.4035L14.066 17.9363H14.9171L15.3744 18.6984L15.8253 17.9363H16.6764L15.7999 19.4098L16.7971 21.0929ZM17.0956 21.0929V17.9363H17.9022V20.407H19.2741V21.0929H17.0956V21.0929ZM20.6079 21.131C20.2903 21.131 20.0109 21.0294 19.7695 20.8325C19.5345 20.642 19.4012 20.4006 19.3821 20.1148L20.0744 19.9116C20.0935 20.064 20.157 20.1974 20.265 20.299C20.3793 20.4007 20.5063 20.4514 20.646 20.4514C20.7604 20.4514 20.8556 20.426 20.9319 20.3752C21.0017 20.3244 21.0398 20.2546 21.0398 20.172C21.0398 20.1021 21.0081 20.045 20.9509 19.9942C20.8937 19.9497 20.8175 19.9116 20.7286 19.8798C20.6397 19.8481 20.5317 19.8163 20.4237 19.7909C20.3094 19.7592 20.1951 19.7211 20.0871 19.6702C19.9728 19.6258 19.8712 19.5686 19.7822 19.4988C19.687 19.4352 19.6171 19.34 19.5599 19.2193C19.5028 19.105 19.471 18.9652 19.471 18.8064C19.471 18.546 19.579 18.3301 19.8013 18.1586C20.0236 17.9808 20.2903 17.8982 20.6015 17.8982C20.9128 17.8982 21.1859 17.9744 21.4145 18.1205C21.6432 18.2729 21.7892 18.4698 21.8464 18.7112L21.1224 19.016C21.0906 18.8827 21.0271 18.7747 20.9382 18.6921C20.8492 18.6159 20.7349 18.5715 20.6015 18.5715C20.4999 18.5715 20.4237 18.5969 20.3602 18.635C20.303 18.6731 20.2776 18.7303 20.2776 18.8001C20.2776 18.8636 20.3157 18.9208 20.3919 18.9652C20.4682 19.0034 20.5698 19.0351 20.6841 19.0542C20.7984 19.0732 20.9255 19.105 21.0588 19.1494C21.1986 19.2003 21.3192 19.2511 21.4399 19.3209C21.5542 19.3845 21.6495 19.4924 21.7257 19.6322C21.8083 19.7782 21.8464 19.9497 21.8464 20.1466C21.8464 20.4388 21.7321 20.6801 21.5034 20.858C21.2748 21.0358 20.9763 21.131 20.6079 21.131Z" fill="white"/>
</svg>
