<svg width="75" height="74" viewBox="0 0 75 74" fill="none" xmlns="http://www.w3.org/2000/svg">
<circle opacity="0.2" cx="37.4272" cy="36.7905" r="36.6899" fill="#FF0000"/>
<path d="M52.9388 29.0088C52.5658 27.6227 51.473 26.5301 50.0871 26.1568C47.5551 25.4639 37.4269 25.4639 37.4269 25.4639C37.4269 25.4639 27.299 25.4639 24.767 26.1304C23.4078 26.5034 22.2883 27.6229 21.9153 29.0088C21.249 31.5406 21.249 36.7912 21.249 36.7912C21.249 36.7912 21.249 42.0684 21.9153 44.5737C22.2885 45.9596 23.3811 47.0524 24.7673 47.4257C27.3257 48.1186 37.4272 48.1186 37.4272 48.1186C37.4272 48.1186 47.5551 48.1186 50.0871 47.4521C51.4732 47.0791 52.5658 45.9863 52.9391 44.6004C53.6053 42.0684 53.6053 36.8179 53.6053 36.8179C53.6053 36.8179 53.632 31.5406 52.9388 29.0088Z" fill="#FF0000"/>
<path d="M34.2021 41.642L42.6242 36.7912L34.2021 31.9404V41.642Z" fill="white"/>
</svg>
